<svg width="196" height="76" viewBox="0 0 196 76" fill="none" xmlns="http://www.w3.org/2000/svg">
<g clip-path="url(#clip0_467_246)">
<path d="M89.8603 0.698639C109.654 0.698639 130.408 2.75269 153.307 6.95861L155.176 7.29397C157.084 7.62933 159.072 7.97865 160.98 8.45374C170.785 10.8571 178.891 13.3583 186.59 16.4184C170.758 12.3942 153.834 9.83708 134.132 8.46771C123.828 7.75508 114.576 7.40575 105.85 7.40575C85.5963 7.40575 67.8032 9.30611 51.4578 13.2046C43.93 15.0072 35.2309 17.5363 27.782 22.7762C23.8865 25.515 19.1619 30.0982 18.8065 36.3162C18.6091 39.9073 19.9515 43.6521 22.5836 46.8939C24.9525 49.8003 28.0321 51.9242 30.73 53.615L31.796 54.2857L31.3222 45.3429L35.981 53.3635L45.1803 40.8854L39.7186 55.7669L47.4439 58.7292L39.4554 60.6016L41.5348 72.6604L35.4809 62.6556L29.1507 68.3427L31.6249 60.0706L23.9391 57.1362L30.9669 55.4874L28.9665 54.649C27.8873 54.2019 26.8213 53.7547 25.7422 53.3216C21.8466 51.7426 17.8063 50.0938 14.095 47.886C8.14648 44.3368 -1.46072 36.8751 1.09242 26.6468C1.69781 24.2155 3.06651 21.9798 4.92215 20.3449C15.5032 11.0947 28.7296 7.92276 43.6668 4.9884C58.1171 2.15185 73.6597 0.712608 89.8472 0.712608L89.8603 0.698639Z" fill="url(#paint0_linear_467_246)"/>
<path d="M40.2975 69.2929L36.4547 62.9351L35.6387 61.5937L34.4937 62.6277L30.4798 66.2328L32.0722 60.909L32.4539 59.6235L31.2694 59.1623L26.321 57.262L29.019 56.6332L33.2303 55.6551L32.5328 55.3616L32.4012 52.9443L32.138 48.0537L34.9412 52.8744L35.9282 54.5791L37.0864 53.0002L42.956 45.0495L39.3631 54.8446L38.8762 56.1861L40.1528 56.6751L45.1011 58.5755L39.9554 59.7772L38.7183 60.0706L38.942 61.3981L40.3107 69.3208M31.6247 54.9844L29.2032 53.9643C28.124 53.5172 27.058 53.07 25.9789 52.6369C22.0965 51.0579 18.0957 49.4231 14.4239 47.2432C0.94751 39.2226 0.697464 30.9925 1.73714 26.7865C2.30304 24.4949 3.59277 22.385 5.35629 20.8479C15.8058 11.7095 28.9531 8.55157 43.8114 5.64516C58.2354 2.82258 73.7253 1.38334 89.8733 1.38334C109.627 1.38334 130.355 3.42342 153.215 7.64332C153.834 7.7551 154.452 7.86688 155.084 7.97867C156.992 8.31403 158.966 8.66335 160.848 9.12447C166.02 10.396 170.719 11.6816 175.127 13.0789C162.598 10.5358 149.188 8.80309 134.185 7.7551C123.867 7.04247 114.602 6.69314 105.863 6.69314C85.5698 6.69314 67.7241 8.59349 51.3261 12.506C43.7324 14.3225 34.9675 16.8796 27.4265 22.1754C23.3994 25.0119 18.5168 29.7488 18.1615 36.2603C17.9509 40.0331 19.3591 43.9595 22.0965 47.3411C24.5312 50.3313 27.6634 52.4832 30.4008 54.2019L31.6247 54.9704M42.7849 76L40.2186 61.1186L49.7995 58.8689L40.5607 55.3337L47.3911 36.7075L36.0204 52.1199L30.4929 42.6181L31.0457 53.0002C28.1372 51.1697 25.2814 49.1436 23.0704 46.4188C20.7936 43.6242 19.2407 40.0191 19.4512 36.3442C19.7539 30.8388 23.7942 26.3813 28.124 23.3491C35.1386 18.4166 43.3771 15.8316 51.5761 13.8753C69.4218 9.61353 87.6097 8.09045 105.824 8.09045C115.247 8.09045 124.67 8.49567 134.066 9.15241C155.11 10.6196 175.627 13.6378 195.974 19.7301C184.3 14.2386 173.574 10.8152 161.098 7.7551C158.558 7.1263 155.966 6.72108 153.399 6.246C132.54 2.40338 111.154 -0.0279465 89.8338 -0.0279465C74.2912 -0.0279465 58.7749 1.27155 43.535 4.26181C29.7296 6.9726 15.5952 10.0607 4.48769 19.758C2.52676 21.4767 1.09227 23.8103 0.434235 26.4093C-2.0531 36.3861 6.26437 43.9735 13.7527 48.431C18.5168 51.2675 23.6494 53.112 28.7031 55.2359L21.5569 56.9127L30.7956 60.4479L27.8345 70.3828L35.336 63.6617L42.7849 75.9721V76Z" fill="#3F5FAB"/>
</g>
<defs>
<linearGradient id="paint0_linear_467_246" x1="166.649" y1="68.0122" x2="8.63129" y2="6.91248" gradientUnits="userSpaceOnUse">
<stop stop-color="#344C89" stop-opacity="0.6"/>
<stop offset="0.09" stop-color="#384E8A" stop-opacity="0.61"/>
<stop offset="0.2" stop-color="#43548D" stop-opacity="0.64"/>
<stop offset="0.31" stop-color="#575E92" stop-opacity="0.68"/>
<stop offset="0.42" stop-color="#736D99" stop-opacity="0.75"/>
<stop offset="0.53" stop-color="#9680A2" stop-opacity="0.83"/>
<stop offset="0.65" stop-color="#C196AC" stop-opacity="0.93"/>
<stop offset="0.72" stop-color="#E2A8B5"/>
<stop offset="0.76" stop-color="#E5B3BE" stop-opacity="0.93"/>
<stop offset="0.85" stop-color="#EFD0D7" stop-opacity="0.75"/>
<stop offset="0.96" stop-color="white" stop-opacity="0.47"/>
</linearGradient>
<clipPath id="clip0_467_246">
<rect width="196" height="76" fill="white" transform="matrix(-1 0 0 -1 196 76)"/>
</clipPath>
</defs>
</svg>
