<svg width="501" height="120" viewBox="0 0 501 120" fill="none" xmlns="http://www.w3.org/2000/svg">
<path d="M59.012 7.11199H110.084V30.792C110.084 34.0347 109.657 36.6373 108.804 38.6C108.036 40.4773 106.415 41.928 103.94 42.952C101.551 43.8907 98.6493 44.488 95.236 44.744C91.908 44.9147 87.9827 45 83.46 45C83.204 43.0373 82.6493 40.8613 81.796 38.472C81.028 35.9973 80.2173 33.9067 79.364 32.2C82.3507 32.3707 85.2947 32.456 88.196 32.456C91.1827 32.456 93.1027 32.4133 93.956 32.328C94.8947 32.2427 95.5347 32.1147 95.876 31.944C96.2173 31.688 96.388 31.2187 96.388 30.536V20.296H72.452V50.248H101.764L104.196 49.608L113.028 52.936C111.833 60.36 110.169 67.4427 108.036 74.184C105.903 80.9253 103.3 87.24 100.228 93.128C102.703 95.8587 105.348 98.376 108.164 100.68C111.065 102.899 114.095 104.819 117.252 106.44C115.631 107.891 113.881 109.768 112.004 112.072C110.127 114.376 108.633 116.467 107.524 118.344C102.063 114.931 97.028 110.579 92.42 105.288C88.1533 110.835 83.4173 115.528 78.212 119.368C77.5293 118.344 76.676 117.235 75.652 116.04C74.628 114.931 73.5613 113.821 72.452 112.712V118.984H59.012V7.11199ZM82.692 62.024C84.9107 68.7653 87.7693 75.0373 91.268 80.84C93.9987 74.952 96.0893 68.68 97.54 62.024H82.692ZM72.452 68.04V106.184C76.6333 102.685 80.4733 98.504 83.972 93.64C81.5827 89.8 79.4493 85.7467 77.572 81.48C75.6947 77.2133 73.988 72.7333 72.452 68.04ZM8.196 48.712L15.492 46.536H1.028V33.992H22.276V25.416H4.484V13H22.276V2.24799H35.972V13H52.868V25.416H35.972V33.992H55.684V46.536H43.268L50.948 48.456L44.804 61.128H53.38V73.672H35.972V83.784H55.812V96.328H35.972V118.728H22.276V96.328H0.9V83.784H22.276V73.672H3.844V61.128H12.676C12.2493 59.2507 11.6093 57.2027 10.756 54.984C9.988 52.68 9.13467 50.5893 8.196 48.712ZM38.276 46.536H19.46C20.5693 48.6693 21.5507 50.9307 22.404 53.32C23.3427 55.624 23.9827 57.6293 24.324 59.336L18.948 61.128H32.388C33.4973 58.824 34.564 56.392 35.588 53.832C36.6973 51.1867 37.5933 48.7547 38.276 46.536ZM171.14 1.09599L187.652 4.424C185.433 7.92266 183.087 11.2507 180.612 14.408H215.684L218.244 13.64L228.356 19.144C224.345 28.0187 219.097 36.1253 212.612 43.464C206.127 50.8027 198.788 57.3733 190.596 63.176H232.196V119.24H216.964V113.992H171.78V119.112H156.932V81.224C150.276 83.8693 143.364 86.216 136.196 88.264C135.257 86.216 133.977 83.8693 132.356 81.224C130.735 78.5787 129.156 76.488 127.62 74.952C135.3 73.16 142.809 70.856 150.148 68.04C157.487 65.224 164.441 61.9813 171.012 58.312C168.452 55.5813 165.465 52.7227 162.052 49.736C158.639 46.7493 155.311 43.976 152.068 41.416C148.228 44.1467 144.217 46.664 140.036 48.968C138.927 47.0907 137.348 44.9573 135.3 42.568C133.252 40.1787 131.375 38.344 129.668 37.064C139.908 32.2 148.441 26.568 155.268 20.168C162.18 13.6827 167.471 7.32533 171.14 1.09599ZM216.964 98.888V76.744H171.78V98.888H216.964ZM168.836 27.72L163.844 32.328C167.428 34.888 171.097 37.7467 174.852 40.904C178.692 43.976 181.977 46.8773 184.708 49.608C189.145 46.3653 193.199 42.9093 196.868 39.24C200.623 35.5707 203.908 31.7307 206.724 27.72H168.836ZM303.492 5.83199L317.956 0.199997C319.663 3.016 321.369 6.13066 323.076 9.544C324.783 12.872 326.063 15.7733 326.916 18.248L318.468 21.96H369.028V36.424H306.308C306.137 38.984 305.967 41.544 305.796 44.104C305.625 46.5787 305.412 49.096 305.156 51.656H358.148C358.148 51.656 358.105 52.0827 358.02 52.936C358.02 53.704 357.977 54.6 357.892 55.624C357.892 56.648 357.807 57.5013 357.636 58.184C356.953 69.5333 356.143 78.8347 355.204 86.088C354.351 93.256 353.327 98.888 352.132 102.984C350.937 106.995 349.487 109.896 347.78 111.688C345.903 113.821 343.94 115.272 341.892 116.04C339.844 116.893 337.369 117.448 334.468 117.704C332.079 117.96 328.964 118.088 325.124 118.088C321.369 118.088 317.401 118.003 313.22 117.832C313.135 115.613 312.58 113.096 311.556 110.28C310.532 107.464 309.295 105.032 307.844 102.984C312.111 103.325 316.207 103.581 320.132 103.752C324.057 103.837 326.916 103.88 328.708 103.88C330.073 103.88 331.225 103.795 332.164 103.624C333.103 103.368 333.999 102.941 334.852 102.344C336.473 100.893 337.839 97.3093 338.948 91.592C340.143 85.8747 341.167 77.4267 342.02 66.248H302.98C301.615 73.2453 299.567 80.0293 296.836 86.6C294.105 93.0853 290.393 99.144 285.7 104.776C281.007 110.408 274.948 115.4 267.524 119.752C266.415 117.789 264.836 115.613 262.788 113.224C260.74 110.92 258.692 109 256.644 107.464C264.068 103.453 269.913 98.76 274.18 93.384C278.532 88.008 281.775 82.2053 283.908 75.976C286.127 69.6613 287.62 63.176 288.388 56.52C289.156 49.7787 289.668 43.08 289.924 36.424H258.692V21.96H310.788C309.849 19.4853 308.697 16.7973 307.332 13.896C305.967 10.9093 304.687 8.22133 303.492 5.83199ZM447.108 2.37599H462.98C462.809 9.28799 462.852 16.2 463.108 23.112H482.436C480.729 21.064 478.511 18.8453 475.78 16.456C473.135 14.0667 470.575 11.9333 468.1 10.056L477.828 1.864C480.644 3.74133 483.631 6.00266 486.788 8.64799C489.945 11.2933 492.377 13.64 494.084 15.688L485.764 23.112H497.284V37.832H463.748C464.431 46.9627 465.369 55.496 466.564 63.432C467.844 71.368 469.295 78.3653 470.916 84.424C472.623 90.3973 474.457 95.0907 476.42 98.504C478.468 101.832 480.601 103.496 482.82 103.496C484.185 103.496 485.209 101.704 485.892 98.12C486.66 94.536 487.215 88.8187 487.556 80.968C489.263 82.6747 491.311 84.3813 493.7 86.088C496.175 87.7093 498.436 88.904 500.484 89.672C499.801 97.608 498.692 103.709 497.156 107.976C495.705 112.243 493.7 115.187 491.14 116.808C488.665 118.429 485.465 119.24 481.54 119.24C476.249 119.24 471.684 117.107 467.844 112.84C464.004 108.573 460.761 102.685 458.116 95.176C455.471 87.6667 453.337 79.0053 451.716 69.192C450.18 59.3787 449.028 48.9253 448.26 37.832H386.692V23.112H447.492C447.407 19.6987 447.321 16.2853 447.236 12.872C447.151 9.37333 447.108 5.87466 447.108 2.37599ZM386.564 100.552C389.721 100.125 393.263 99.5707 397.188 98.888C401.199 98.2053 405.423 97.48 409.86 96.712V66.632H391.3V52.04H444.548V66.632H424.58V94.152L447.62 89.8L448.644 103.24C441.988 104.691 435.204 106.184 428.292 107.72C421.38 109.171 414.724 110.579 408.324 111.944C401.924 113.309 396.036 114.547 390.66 115.656L386.564 100.552Z" fill="#2D3E63"/>
</svg>
