<svg width="495" height="296" viewBox="0 0 495 296" fill="none" xmlns="http://www.w3.org/2000/svg">
<path d="M329.945 55.2756C375.021 28.3059 430.201 27.8017 462.832 50.2556C489.805 68.8025 500.81 102.578 489.728 128.077C470.443 172.418 385.46 188.927 291.967 207.096C263.554 212.62 266.639 211.801 250.029 214.679C208.605 221.862 151.033 240.913 86.4154 295C127.402 256.94 129.382 235.137 123.725 222.282C114.623 201.551 83.5869 199.303 41.8543 166.978C21.5923 151.287 8.27283 135.807 0.378866 125.557C-0.546811 124.338 30.7462 163.512 83.3555 185.798C120.305 201.467 152.73 202.034 203.205 202.958C203.205 202.958 304.438 204.786 392.943 170.737C406.982 165.339 418.708 158.66 418.708 158.66C421.33 157.189 423.953 155.593 426.73 153.787C498.084 107.388 487.413 50.2556 487.413 50.2556C485.691 41.1816 480.008 21.4374 456.3 1C456.3 3.41552 456.146 22.8867 441.695 29.9652C425.676 37.7999 394.151 29.4401 376.795 2.55433C401.223 17.9926 413.051 42.2949 406.751 64.6856C400.965 85.2701 378.775 108.018 350.67 107.976C336.142 107.976 324.829 101.864 318.863 97.9358C321.614 99.4481 333.494 105.602 348.742 103.271C351.467 102.851 372.064 99.4271 377.052 84.5559C380.189 75.1879 375.844 65.2108 367.564 59.0354C357.639 51.6419 342.622 50.1085 329.92 55.2756H329.945Z" fill="url(#paint0_linear_1370_368)" stroke="black" stroke-width="0.5"/>
<defs>
<linearGradient id="paint0_linear_1370_368" x1="31.296" y1="147.99" x2="478.346" y2="147.99" gradientUnits="userSpaceOnUse">
<stop offset="0.04" stop-color="#F4DAE1" stop-opacity="0.41"/>
<stop offset="0.509615" stop-color="#B3BAD4" stop-opacity="0.47"/>
<stop offset="1" stop-color="#3F5FAB"/>
</linearGradient>
</defs>
</svg>
