<svg width="495" height="296" viewBox="0 0 495 296" fill="none" xmlns="http://www.w3.org/2000/svg">
<path d="M165.055 55.2756C119.979 28.3059 64.7986 27.8017 32.1685 50.2556C5.19532 68.8025 -5.80995 102.599 5.27246 128.077C24.5574 172.418 109.54 188.927 203.033 207.096C231.446 212.62 228.361 211.801 244.971 214.679C286.395 221.862 343.967 240.913 408.585 295C367.598 256.94 365.618 235.137 371.275 222.282C380.377 201.551 411.413 199.303 453.146 166.978C473.408 151.287 486.727 135.807 494.621 125.557C495.547 124.338 464.254 163.512 411.645 185.798C374.669 201.467 342.27 202.034 291.795 202.958C291.795 202.958 190.562 204.786 102.057 170.737C88.0177 165.339 76.2924 158.66 76.2924 158.66C73.6697 157.189 71.0469 155.593 68.2699 153.787C-3.08434 107.409 7.58665 50.2556 7.58665 50.2556C9.30944 41.1816 14.9921 21.4374 38.6997 1C38.6997 3.41552 38.854 22.8867 53.3048 29.9652C69.3242 37.7999 100.849 29.4401 118.205 2.55433C93.7774 17.9926 81.9493 42.2949 88.2491 64.6856C94.0346 85.2701 116.225 108.018 144.33 107.976C158.858 107.976 170.171 101.864 176.137 97.9358C173.386 99.4481 161.506 105.602 146.258 103.271C143.533 102.851 122.936 99.4271 117.948 84.5559C114.811 75.1879 119.156 65.2108 127.436 59.0354C137.361 51.6419 152.378 50.1085 165.08 55.2756H165.055Z" fill="url(#paint0_linear_1368_367)" stroke="black" stroke-width="0.5"/>
<defs>
<linearGradient id="paint0_linear_1368_367" x1="31.9371" y1="147.99" x2="478.988" y2="147.99" gradientUnits="userSpaceOnUse">
<stop stop-color="#3F5FAB"/>
<stop offset="0.490385" stop-color="#B3BAD4" stop-opacity="0.47"/>
<stop offset="0.96" stop-color="#F4DAE1" stop-opacity="0.41"/>
</linearGradient>
</defs>
</svg>
