<svg width="145" height="197" viewBox="0 0 145 197" fill="none" xmlns="http://www.w3.org/2000/svg">
<g filter="url(#filter0_f_2051_1685)">
<path d="M160.67 78.4241C164.537 68.3095 159.059 57.2603 155.836 53L50 53C58.5623 55.6111 84.6358 69.7387 77.344 109.208C68.2293 158.545 123.383 145.626 134.017 145.077C144.65 144.527 147.274 114.43 143.131 101.649C138.988 88.8686 155.836 91.0675 160.67 78.4241Z" fill="#DEEAFA"/>
</g>
<g filter="url(#filter1_f_2051_1685)">
<path d="M153.432 29.4401C154.077 51.871 138.497 73.3346 130.627 81.2625C121.95 80.4868 104.838 72.0612 105.799 44.5654C106.76 17.0696 122.436 8.75678 130.153 8.03733C137.644 5.82542 152.788 7.0093 153.432 29.4401Z" fill="#F4DAE1"/>
</g>
<defs>
<filter id="filter0_f_2051_1685" x="0" y="3" width="212" height="194" filterUnits="userSpaceOnUse" color-interpolation-filters="sRGB">
<feFlood flood-opacity="0" result="BackgroundImageFix"/>
<feBlend mode="normal" in="SourceGraphic" in2="BackgroundImageFix" result="shape"/>
<feGaussianBlur stdDeviation="25" result="effect1_foregroundBlur_2051_1685"/>
</filter>
<filter id="filter1_f_2051_1685" x="55.7607" y="-42.7417" width="147.691" height="174.004" filterUnits="userSpaceOnUse" color-interpolation-filters="sRGB">
<feFlood flood-opacity="0" result="BackgroundImageFix"/>
<feBlend mode="normal" in="SourceGraphic" in2="BackgroundImageFix" result="shape"/>
<feGaussianBlur stdDeviation="25" result="effect1_foregroundBlur_2051_1685"/>
</filter>
</defs>
</svg>
