<svg width="79" height="117" viewBox="0 0 79 117" fill="none" xmlns="http://www.w3.org/2000/svg">
<path d="M25.3734 100.272C12.5488 100.186 12.6178 100.117 12.6867 116.625C12.7557 100.099 12.8074 100.168 0 100.272C12.8246 100.358 12.7557 100.427 12.6867 83.9193C12.6178 100.444 12.566 100.375 25.3734 100.272Z" fill="#D2788B"/>
<path d="M51.2467 24.6324C31.9408 24.4944 32.027 24.3909 32.1304 49.2648C32.2338 24.3909 32.32 24.4944 13.0142 24.6324C32.32 24.7704 32.2338 24.8739 32.1304 0C32.027 24.8739 31.9408 24.7704 51.2467 24.6324Z" fill="#E9D2D6"/>
<path d="M25.3734 100.272C12.5488 100.186 12.6178 100.117 12.6867 116.624C12.7557 100.099 12.8074 100.168 0 100.272C12.8246 100.358 12.7557 100.427 12.6867 83.9193C12.6178 100.444 12.566 100.375 25.3734 100.272Z" fill="#D2788B"/>
<path d="M51.2467 24.6324C31.9408 24.4944 32.027 24.3909 32.1304 49.2648C32.2338 24.3909 32.32 24.4944 13.0142 24.6324C32.32 24.7704 32.2338 24.8739 32.1304 0C32.027 24.8739 31.9408 24.7704 51.2467 24.6324Z" fill="#E9D2D6"/>
</svg>
