<svg width="524" height="502" viewBox="0 0 524 502" fill="none" xmlns="http://www.w3.org/2000/svg">
<g clip-path="url(#clip0_730_832)">
<path d="M54.6097 26.8645C54.6097 26.8645 246.275 40.4192 257.09 89.5551C269.598 146.402 22.6482 170.088 45.3495 242.945C62.937 299.377 304.186 203.837 315.588 230.738C327.682 259.231 90.1648 335.338 106.508 382.226C130.454 428.008 205.192 339.799 341.469 372.613C455.01 399.93 517.274 474.481 517.274 474.481C517.274 474.481 432.516 322.509 310.613 317.046C264.761 315.006 186.153 349.481 183.803 343.014C179.277 330.497 368.938 275.448 369.215 224.445C369.526 167.564 156.057 226.797 152.222 198.062C148.421 169.431 352.491 117.252 350.694 85.544C348.172 40.5575 54.6097 26.8645 54.6097 26.8645Z" fill="url(#paint0_linear_730_832)" stroke="#3E5BA0" stroke-width="0.5" stroke-miterlimit="10"/>
</g>
<defs>
<linearGradient id="paint0_linear_730_832" x1="43.8638" y1="250.656" x2="517.274" y2="250.656" gradientUnits="userSpaceOnUse">
<stop stop-color="#D2788B"/>
<stop offset="0.51" stop-color="#F3F3F3"/>
<stop offset="1" stop-color="#3E5BA0"/>
</linearGradient>
<clipPath id="clip0_730_832">
<rect width="475" height="449" fill="white" transform="translate(43 26)"/>
</clipPath>
</defs>
</svg>
