<svg width="115" height="138" viewBox="0 0 115 138" fill="none" xmlns="http://www.w3.org/2000/svg">
<g opacity="0.75" filter="url(#filter0_f_730_816)">
<g clip-path="url(#clip0_730_816)">
<g filter="url(#filter1_f_730_816)">
<path d="M26.3174 72.4043L61.9353 103.5L108.634 91.463V35.2901L75.391 22.25H34.2325L26.3174 72.4043Z" fill="#DDCED2"/>
</g>
<g filter="url(#filter2_f_730_816)">
<path d="M12.0488 89.8426L36.269 108.5L68.0244 101.278V67.5741L45.4189 59.75H17.4311L12.0488 89.8426Z" fill="#D89EAB"/>
</g>
</g>
</g>
<path d="M84.9697 68.46C60.8697 71.98 59.3497 74.82 57.4697 119.96C55.5897 74.83 54.0697 71.98 29.9697 68.46C54.0697 64.94 55.5897 62.1 57.4697 16.96C59.3497 62.09 60.8697 64.94 84.9697 68.46Z" stroke="#4C67AB" stroke-miterlimit="10"/>
<path d="M63.3304 68.46C58.1904 69.21 57.8704 69.82 57.4704 79.43C57.0704 69.81 56.7504 69.21 51.6104 68.46C56.7504 67.71 57.0704 67.1 57.4704 57.49C57.8704 67.11 58.1904 67.71 63.3304 68.46Z" fill="#4C67AB"/>
<defs>
<filter id="filter0_f_730_816" x="19" y="21" width="75" height="95" filterUnits="userSpaceOnUse" color-interpolation-filters="sRGB">
<feFlood flood-opacity="0" result="BackgroundImageFix"/>
<feBlend mode="normal" in="SourceGraphic" in2="BackgroundImageFix" result="shape"/>
<feGaussianBlur stdDeviation="7.5" result="effect1_foregroundBlur_730_816"/>
</filter>
<filter id="filter1_f_730_816" x="4.71738" y="0.65" width="125.517" height="124.45" filterUnits="userSpaceOnUse" color-interpolation-filters="sRGB">
<feFlood flood-opacity="0" result="BackgroundImageFix"/>
<feBlend mode="normal" in="SourceGraphic" in2="BackgroundImageFix" result="shape"/>
<feGaussianBlur stdDeviation="10.8" result="effect1_foregroundBlur_730_816"/>
</filter>
<filter id="filter2_f_730_816" x="-9.55117" y="38.15" width="99.1756" height="91.95" filterUnits="userSpaceOnUse" color-interpolation-filters="sRGB">
<feFlood flood-opacity="0" result="BackgroundImageFix"/>
<feBlend mode="normal" in="SourceGraphic" in2="BackgroundImageFix" result="shape"/>
<feGaussianBlur stdDeviation="10.8" result="effect1_foregroundBlur_730_816"/>
</filter>
<clipPath id="clip0_730_816">
<rect x="34" y="36" width="45" height="65" rx="22.5" fill="white"/>
</clipPath>
</defs>
</svg>
