<svg width="37" height="77" viewBox="0 0 37 77" fill="none" xmlns="http://www.w3.org/2000/svg">
<g clip-path="url(#clip0_957_1073)">
<path d="M14.8663 53.6338C9.06277 55.0701 8.74906 56.2262 8.34821 77.0001C7.94737 56.2262 7.61623 55.0701 1.83008 53.6338C7.63366 52.1975 7.94737 51.0415 8.34821 30.2676C8.74906 51.0415 9.0802 52.1975 14.8663 53.6338Z" stroke="#EBD6DD" stroke-width="0.5" stroke-miterlimit="10"/>
<g clip-path="url(#clip1_957_1073)">
<path d="M25 0C24.6146 17.4245 24.3024 17.9059 13 18.5C24.3024 19.0941 24.6146 19.5755 25 37C25.3854 19.5755 25.6976 19.0941 37 18.5C25.6976 17.9059 25.3854 17.4245 25 0ZM30.4008 26.8263C25.1406 19.2546 24.8594 19.2546 19.5992 26.8263C24.5105 18.7168 24.5105 18.2832 19.5992 10.1737C24.8594 17.7454 25.1406 17.7454 30.4008 10.1737C25.4895 18.2832 25.4895 18.7168 30.4008 26.8263ZM30.4008 10.1737C25.4895 18.2832 25.4895 18.7168 30.4008 26.8263C25.1406 19.2546 24.8594 19.2546 19.5992 26.8263C24.5105 18.7168 24.5105 18.2832 19.5992 10.1737C24.8594 17.7454 25.1406 17.7454 30.4008 10.1737Z" fill="url(#paint0_linear_957_1073)"/>
</g>
</g>
<defs>
<linearGradient id="paint0_linear_957_1073" x1="13" y1="18.5" x2="37" y2="18.5" gradientUnits="userSpaceOnUse">
<stop stop-color="#D2788B"/>
<stop offset="0.51" stop-color="#F3F3F3"/>
<stop offset="1" stop-color="#3E5BA0"/>
</linearGradient>
<clipPath id="clip0_957_1073">
<rect width="37" height="77" fill="white"/>
</clipPath>
<clipPath id="clip1_957_1073">
<rect width="24" height="37" fill="white" transform="translate(13)"/>
</clipPath>
</defs>
</svg>
