<svg width="340" height="48" viewBox="0 0 340 48" fill="none" xmlns="http://www.w3.org/2000/svg">
<path d="M21.0281 47H190.003C195.155 47 200.11 45.0111 203.832 41.4479L212.656 33.0021C216.378 29.4389 221.332 27.45 226.485 27.45H325.601C330.636 27.45 335.253 24.6527 337.584 20.1906L337.735 19.9007C339.77 16.0049 339.685 11.3417 337.509 7.52291C335.21 3.49006 330.926 1 326.284 1H31.2728C25.7548 1 20.4819 3.27982 16.702 7.29996L4.67059 20.0961C2.31274 22.6038 1 25.9164 1 29.3585C1 32.5799 2.15009 35.6955 4.24319 38.1443L5.8251 39.995C9.62488 44.4404 15.18 47 21.0281 47Z" fill="url(#paint0_linear_372_12)" stroke="#415FA1"/>
<defs>
<linearGradient id="paint0_linear_372_12" x1="341" y1="24" x2="1" y2="24" gradientUnits="userSpaceOnUse">
<stop stop-color="#4C6395"/>
<stop offset="0.5" stop-color="#D6A0B2"/>
<stop offset="1" stop-color="#F1EFEF"/>
</linearGradient>
</defs>
</svg>
