<svg width="340" height="48" viewBox="0 0 340 48" fill="none" xmlns="http://www.w3.org/2000/svg">
<path d="M318.972 1H149.997C144.845 1 139.89 2.98892 136.168 6.5521L127.344 14.9979C123.622 18.5611 118.668 20.55 113.515 20.55H14.3986C9.36445 20.55 4.74728 23.3473 2.41649 27.8094L2.26506 28.0993C0.230072 31.9951 0.315366 36.6583 2.49146 40.4771C4.78954 44.5099 9.07445 47 13.7161 47H308.727C314.245 47 319.518 44.7202 323.298 40.7L335.329 27.9039C337.687 25.3962 339 22.0836 339 18.6415C339 15.4201 337.85 12.3045 335.757 9.85573L334.175 8.00505C330.375 3.55962 324.82 1 318.972 1Z" fill="url(#paint0_linear_370_6)" stroke="#415FA1"/>
<defs>
<linearGradient id="paint0_linear_370_6" x1="-1" y1="24" x2="339" y2="24" gradientUnits="userSpaceOnUse">
<stop stop-color="#4C6395"/>
<stop offset="0.504808" stop-color="#D6A0B2"/>
<stop offset="1" stop-color="#F1EFEF"/>
</linearGradient>
</defs>
</svg>
