<svg xmlns="http://www.w3.org/2000/svg" width="300" height="200" viewBox="0 0 300 200"><rect width="100%" height="100%" fill="#DDDDDD"/><path fill="#999999" d="M81.885 104.205q.42 0 .74.32l2.02 2.19q-1.68 2.07-4.12 3.17t-5.86 1.1q-3.06 0-5.5-1.04-2.44-1.05-4.17-2.91t-2.65-4.44q-.92-2.59-.92-5.65 0-3.09.99-5.67.98-2.57 2.78-4.43 1.8-1.87 4.28-2.9 2.49-1.04 5.51-1.04 3.01 0 5.33.99 2.33.99 3.97 2.58l-1.71 2.38q-.16.23-.39.4-.24.17-.66.17-.28 0-.59-.16-.3-.16-.66-.4t-.84-.52q-.47-.29-1.1-.53-.63-.23-1.46-.4-.82-.16-1.9-.16-1.85 0-3.38.66-1.53.65-2.63 1.9-1.1 1.24-1.71 3.04-.61 1.79-.61 4.09 0 2.32.66 4.13.65 1.8 1.78 3.04 1.12 1.23 2.64 1.89 1.52.65 3.26.65 1.05 0 1.89-.11.85-.12 1.56-.36.72-.25 1.35-.64.64-.39 1.27-.96.19-.17.39-.27.21-.11.44-.11m10.22-21.75v10.83q1.14-1.07 2.51-1.73 1.37-.67 3.21-.67 1.6 0 2.83.54 1.24.55 2.07 1.52.82.98 1.25 2.34t.43 2.99v12.41h-4.7v-12.41q0-1.78-.81-2.76-.82-.98-2.49-.98-1.22 0-2.28.55-1.07.55-2.02 1.5v14.1h-4.69v-28.23zm28.85 8.74h4.69v19.49h-2.87q-.93 0-1.18-.85l-.32-1.56q-1.2 1.21-2.64 1.96-1.45.75-3.4.75-1.6 0-2.83-.54-1.22-.54-2.06-1.53-.83-.98-1.26-2.34t-.43-3v-12.38h4.7v12.38q0 1.79.82 2.77.83.98 2.48.98 1.22 0 2.28-.54 1.07-.55 2.02-1.5zm13.39.85.32 1.54q.59-.59 1.25-1.09.65-.51 1.38-.86.74-.35 1.57-.55.84-.2 1.83-.2 1.59 0 2.83.54 1.23.55 2.06 1.52.83.98 1.25 2.34.43 1.36.43 2.99v12.41h-4.69v-12.41q0-1.78-.82-2.76t-2.49-.98q-1.21 0-2.28.55-1.06.55-2.01 1.5v14.1h-4.7v-19.49h2.87q.92 0 1.2.85m24.49 8.42q.88 0 1.52-.24.65-.24 1.07-.66.43-.41.65-1t.22-1.29q0-1.45-.87-2.29-.86-.85-2.59-.85t-2.59.85q-.87.84-.87 2.29 0 .68.22 1.27t.65 1.02q.43.42 1.08.66.66.24 1.51.24m5.3 11.09q0-.57-.34-.93t-.93-.56-1.38-.29q-.79-.1-1.67-.14-.88-.05-1.82-.09t-1.84-.15q-.78.44-1.26 1.02-.49.59-.49 1.37 0 .51.26.96t.82.77 1.45.5q.89.19 2.19.19 1.31 0 2.26-.2t1.56-.56q.62-.35.91-.83.28-.49.28-1.06m-.93-19.7h5.61v1.75q0 .83-1.01 1.03l-1.75.32q.4 1.01.4 2.2 0 1.45-.58 2.61-.58 1.17-1.6 1.99-1.03.82-2.43 1.26-1.39.45-3.01.45-.57 0-1.1-.06-.53-.05-1.05-.15-.91.55-.91 1.24 0 .59.54.86.55.28 1.44.39t2.03.14 2.34.13q1.2.09 2.34.33t2.03.75 1.43 1.4q.54.88.54 2.27 0 1.29-.63 2.5-.64 1.22-1.85 2.17-1.2.95-2.96 1.53t-4 .58q-2.2 0-3.84-.43-1.63-.43-2.71-1.14-1.09-.71-1.62-1.64t-.53-1.94q0-1.37.83-2.29.82-.92 2.27-1.47-.78-.4-1.24-1.07-.45-.66-.45-1.74 0-.44.16-.91.16-.46.47-.92.32-.45.79-.86.48-.41 1.12-.73-1.48-.8-2.33-2.13-.84-1.33-.84-3.12 0-1.44.58-2.61t1.61-2q1.04-.82 2.45-1.26 1.42-.44 3.09-.44 1.26 0 2.36.26t2.01.75m13.26-9.4v10.83q1.14-1.07 2.51-1.73 1.37-.67 3.21-.67 1.6 0 2.83.54 1.24.55 2.07 1.52.82.98 1.25 2.34t.43 2.99v12.41h-4.7v-12.41q0-1.78-.81-2.76-.82-.98-2.49-.98-1.22 0-2.28.55-1.07.55-2.02 1.5v14.1h-4.69v-28.23zm41.01 8.74h3.57l-6.2 19.49h-3.76q-.64 0-.89-.84l-3.5-11.26q-.17-.57-.31-1.13t-.24-1.13q-.11.57-.25 1.15-.15.58-.32 1.15l-3.55 11.22q-.23.84-1.01.84h-3.61l-6.17-19.49h3.74q.51 0 .87.24.36.25.48.63l2.79 10.41q.21.86.37 1.67.16.82.28 1.64.21-.82.44-1.64.24-.81.51-1.67l3.23-10.45q.11-.38.44-.63.34-.24.81-.24h2.07q.5 0 .85.24.35.25.46.63l3.14 10.45q.25.86.46 1.68.22.83.43 1.65.25-1.62.7-3.33l2.87-10.41q.14-.38.48-.63.34-.24.82-.24m16.53 14.45v-3.28q-2.04.09-3.42.35-1.39.26-2.23.66-.83.39-1.19.93-.37.53-.37 1.16 0 1.23.74 1.76.73.53 1.91.53 1.44 0 2.49-.52 1.06-.52 2.07-1.59m-9.92-10.24-.84-1.5q3.36-3.08 8.1-3.08 1.71 0 3.05.57 1.35.56 2.28 1.55.94 1 1.42 2.39t.48 3.04v12.31h-2.12q-.67 0-1.03-.2t-.57-.81l-.42-1.4q-.74.66-1.44 1.17-.7.5-1.46.84t-1.63.52q-.86.18-1.91.18-1.23 0-2.28-.33-1.04-.33-1.8-1-.76-.66-1.18-1.65t-.42-2.3q0-.74.25-1.47.24-.73.81-1.4.56-.66 1.45-1.25t2.19-1.03q1.3-.43 3.03-.71t3.96-.33v-1.14q0-1.96-.84-2.9t-2.41-.94q-1.14 0-1.89.27-.75.26-1.32.59-.57.34-1.04.6-.47.27-1.04.27-.49 0-.83-.26-.34-.25-.55-.6"/></svg>