<?xml version="1.0" encoding="UTF-8"?>
<svg id="_圖層_3" data-name="圖層 3" xmlns="http://www.w3.org/2000/svg" viewBox="0 0 212.57 211.19">
  <defs>
    <style>
      .cls-1 {
        fill: #e9bece;
      }

      .cls-2 {
        fill: #b9cfea;
      }

      .cls-3 {
        fill: #b1c7f2;
      }

      .cls-4 {
        fill: #dfcace;
      }
    </style>
  </defs>
  <path class="cls-3" d="M22.62,73.1c-2.3,1.62-1.81,14.91-1.13,17.43,1.23,4.53,5.05,8.93,9.87,9.55,5.47,.71,10.3-3.16,15.21-5.67s12.3-2.96,14.63,2.03c1.84,3.95-.95,8.57-4.35,11.29-9.34,7.5-25.01,9.79-27.25,21.55-1.89,9.91,9.23,18.46,19.3,17.69,10.06-.76,18.49-7.71,25.63-14.84,20-19.98,29.9-53.78,52.74-70.22,5.08-3.66,12.28-5.11,17.61-1.84,2.98,1.83,5,4.83,7.31,7.45,7.72,8.79,19.62,13.72,31.29,12.98,7.36-.47,16.6-2.26,20.57,3.96,3.37,5.26-.15,12.22-4.35,16.85-9.42,10.39-22.97,17.51-36.89,18.72,10.64-2.72,23.7-7.95,31.18-16.37,4.05-4.55,5.81-11.73,2.45-16.81-6.85-10.36-24.05-2.21-35.04-8.01-6.08-3.21-9.33-10.34-15.43-13.53-5.86-3.06-13.26-1.74-18.84,1.8s-9.67,8.96-13.38,14.43c-15,22.19-26.78,48.34-49.77,62.09-8.11,4.85-18.07,7.88-27.03,4.89-8.96-2.99-15.53-13.77-11.45-22.3,5.73-11.97,25.82-11.03,31.15-23.19,.39-.89,.68-1.84,.62-2.81-.2-3.34-4.41-5.04-7.68-4.34-3.27,.7-6.01,2.89-9.11,4.15-7.16,2.89-16.18-.03-20.29-6.56-3.57-5.68-3.52-16.2,2.42-20.39Z"/>
  <path class="cls-2" d="M160.37,120.02c-12.96-.09-12.91-.16-12.84,16.53,.07-16.7,.13-16.62-12.84-16.53,12.96,.09,12.91,.16,12.84-16.53-.07,16.7-.13,16.62,12.84,16.53Z"/>
  <path class="cls-1" d="M133.53,136.06c-6.48-.05-6.45-.08-6.42,8.27,.04-8.35,.06-8.31-6.42-8.27,6.48,.05,6.45,.08,6.42-8.27-.04,8.35-.06,8.31,6.42,8.27Z"/>
  <path class="cls-4" d="M146.61,97.83c-9.76-.07-9.72-.12-9.67,12.45,.05-12.57,.1-12.52-9.67-12.45,9.76,.07,9.72,.12,9.67-12.45-.05,12.57-.1,12.52,9.67,12.45Z"/>
</svg>