<svg width="816" height="452" viewBox="0 0 816 452" fill="none" xmlns="http://www.w3.org/2000/svg">
<rect x="56" width="735" height="333" fill="#F4DAE1"/>
<g filter="url(#filter0_f_3537_2003)">
<path d="M55.7671 391.029L41.083 134.407C104.5 95.5 141.294 149.289 170 159.5C198.706 169.711 212.366 223.42 292 210C415.138 189.247 421.318 316.524 431.153 369.549L55.7671 391.029Z" fill="#D3E4FC"/>
</g>
<g filter="url(#filter1_f_3537_2003)">
<path d="M796 144.5V327.269H124V280.769C132.4 223.169 200.167 215.769 233 219.269C303.5 257.936 457.8 312.069 525 219.269C592.2 126.469 734.833 138 796 144.5Z" fill="#E1ACB7" fill-opacity="0.72"/>
</g>
<defs>
<filter id="filter0_f_3537_2003" x="-18.917" y="60.4629" width="510.07" height="390.566" filterUnits="userSpaceOnUse" color-interpolation-filters="sRGB">
<feFlood flood-opacity="0" result="BackgroundImageFix"/>
<feBlend mode="normal" in="SourceGraphic" in2="BackgroundImageFix" result="shape"/>
<feGaussianBlur stdDeviation="30" result="effect1_foregroundBlur_3537_2003"/>
</filter>
<filter id="filter1_f_3537_2003" x="64" y="80.2417" width="792" height="307.028" filterUnits="userSpaceOnUse" color-interpolation-filters="sRGB">
<feFlood flood-opacity="0" result="BackgroundImageFix"/>
<feBlend mode="normal" in="SourceGraphic" in2="BackgroundImageFix" result="shape"/>
<feGaussianBlur stdDeviation="30" result="effect1_foregroundBlur_3537_2003"/>
</filter>
</defs>
</svg>
