<svg width="358" height="93" viewBox="0 0 358 93" fill="none" xmlns="http://www.w3.org/2000/svg">
<g clip-path="url(#clip0_421_136)">
<rect width="358" height="93" rx="30" fill="#8A99AE" fill-opacity="0.15"/>
<g clip-path="url(#clip1_421_136)">
<rect width="369" height="219" transform="translate(-5 -122)" fill="#2D3E63"/>
<g filter="url(#filter0_f_421_136)">
<path d="M213.88 40.3152C134.513 34.7898 55.1462 103.55 42.1884 117.057L189.044 226.337L377.472 137.317C349.397 106.825 277.373 44.7356 213.88 40.3152Z" fill="#3E5BA0"/>
<path d="M444.421 51.98C353.716 51.98 238.715 159.419 212.8 188.273V306.149L689 299.396V105.392C637.709 87.5882 516.985 51.98 444.421 51.98Z" fill="#7B8EBF"/>
<path d="M214.419 169.937C111.837 145.38 63.2447 28.7324 -28 56.9734V332.63C73.1431 333.858 300.373 335.577 400.148 332.63C418.505 225.191 317.002 194.495 214.419 169.937Z" fill="#F4DAE1"/>
</g>
</g>
<path d="M119.048 55.416L121.704 55.128C121.853 55.9813 121.949 56.9307 121.992 57.976C122.056 59 122.077 59.8853 122.056 60.632L119.304 60.92C119.347 60.1733 119.336 59.288 119.272 58.264C119.229 57.2187 119.155 56.2693 119.048 55.416ZM122.12 55.352L124.712 54.872C124.989 55.704 125.245 56.6107 125.48 57.592C125.715 58.552 125.875 59.3947 125.96 60.12L123.24 60.696C123.197 59.9707 123.069 59.1067 122.856 58.104C122.643 57.1013 122.397 56.184 122.12 55.352ZM115.944 54.328L118.856 55.416C118.664 56.3547 118.408 57.368 118.088 58.456C117.789 59.5227 117.448 60.4293 117.064 61.176L114.024 59.928C114.451 59.1813 114.824 58.296 115.144 57.272C115.485 56.2267 115.752 55.2453 115.944 54.328ZM125.16 55.288L127.784 54.328C128.467 55.4587 129.043 56.632 129.512 57.848V46.744H133.384V32.088H137.704V38.328H143.336V42.52H137.704V46.744H142.344V61.56H138.12V60.632H133.544V61.688H129.512V59.512L127.24 60.44C127.091 59.736 126.813 58.904 126.408 57.944C126.024 56.9627 125.608 56.0773 125.16 55.288ZM133.544 56.536H138.12V50.84H133.544V56.536ZM118.536 38.296V42.264H120.68V40.952L119.048 41.496C119.027 41.0693 118.963 40.5787 118.856 40.024C118.771 39.448 118.664 38.872 118.536 38.296ZM118.536 35.864V36.984L119.912 36.536C120.061 36.984 120.2 37.4747 120.328 38.008C120.477 38.52 120.595 39.0213 120.68 39.512V35.864H118.536ZM125.448 39.096C125.277 39.544 125.107 39.9707 124.936 40.376C124.765 40.7813 124.605 41.144 124.456 41.464L123.272 41.016V42.264H125.448V39.096ZM124.072 36.536L125.448 37.016V35.864H123.272V39.736C123.443 39.2027 123.592 38.648 123.72 38.072C123.869 37.496 123.987 36.984 124.072 36.536ZM114.856 50.552H120.008V49.496H115.464V46.136H120.008V45.208H115.304V32.888H128.84V45.208H123.912V46.136H128.584V49.496H123.912V50.552H129.064V53.912H114.856V50.552ZM167.08 35.224L170.408 32.92C170.941 33.3893 171.485 33.912 172.04 34.488C172.616 35.064 173.149 35.64 173.64 36.216C174.131 36.792 174.515 37.3253 174.792 37.816L171.208 40.376C170.973 39.864 170.632 39.3093 170.184 38.712C169.736 38.1147 169.235 37.5067 168.68 36.888C168.147 36.2693 167.613 35.7147 167.08 35.224ZM170.152 45.816L174.056 47.544C173.373 48.7813 172.605 49.9547 171.752 51.064C170.92 52.1733 170.035 53.2187 169.096 54.2C169.416 55.1387 169.747 55.8747 170.088 56.408C170.429 56.9413 170.76 57.208 171.08 57.208C171.315 57.208 171.517 56.824 171.688 56.056C171.859 55.2667 171.987 53.9867 172.072 52.216C172.563 52.7493 173.139 53.2613 173.8 53.752C174.483 54.2427 175.112 54.6053 175.688 54.84C175.475 56.7387 175.165 58.1893 174.76 59.192C174.355 60.216 173.811 60.9093 173.128 61.272C172.467 61.656 171.624 61.848 170.6 61.848C169.533 61.848 168.573 61.4427 167.72 60.632C166.888 59.8427 166.152 58.7653 165.512 57.4C163.891 58.6587 162.152 59.7893 160.296 60.792C159.976 60.2373 159.539 59.6187 158.984 58.936C158.429 58.2533 157.875 57.6453 157.32 57.112C158.472 56.6 159.613 56.0027 160.744 55.32C161.875 54.616 162.963 53.848 164.008 53.016C163.688 51.8213 163.4 50.552 163.144 49.208C162.909 47.864 162.707 46.4667 162.536 45.016H156.776V47.8L161.192 47.064L161.48 51.192L156.776 52.12V56.568C156.776 57.72 156.637 58.616 156.36 59.256C156.104 59.9173 155.635 60.4293 154.952 60.792C154.269 61.1547 153.448 61.3893 152.488 61.496C151.528 61.624 150.429 61.688 149.192 61.688C149.107 61.048 148.904 60.28 148.584 59.384C148.264 58.488 147.933 57.72 147.592 57.08C148.403 57.1227 149.192 57.1547 149.96 57.176C150.728 57.176 151.251 57.1653 151.528 57.144C152.019 57.144 152.264 56.9307 152.264 56.504V52.984L147.272 53.944L146.216 49.336C147.048 49.2293 147.976 49.112 149 48.984C150.024 48.8347 151.112 48.6747 152.264 48.504V45.016H146.888V40.728H152.264V37.944C151.496 38.0507 150.739 38.1573 149.992 38.264C149.245 38.3493 148.509 38.424 147.784 38.488C147.699 37.9333 147.528 37.2827 147.272 36.536C147.016 35.7893 146.771 35.1707 146.536 34.68C147.987 34.488 149.448 34.264 150.92 34.008C152.392 33.752 153.8 33.464 155.144 33.144C156.509 32.824 157.725 32.4933 158.792 32.152L161.8 36.024C161.011 36.2587 160.189 36.472 159.336 36.664C158.504 36.856 157.651 37.0373 156.776 37.208V40.728H162.12C162.013 39.32 161.928 37.912 161.864 36.504C161.821 35.096 161.8 33.6987 161.8 32.312H166.472C166.429 33.6987 166.429 35.1067 166.472 36.536C166.515 37.944 166.589 39.3413 166.696 40.728H174.76V45.016H167.144C167.336 46.5093 167.571 47.9173 167.848 49.24C168.744 48.152 169.512 47.0107 170.152 45.816ZM192.904 33.304H206.056V39.128C206.056 40.0667 205.939 40.824 205.704 41.4C205.491 41.9547 205.043 42.3813 204.36 42.68C203.699 42.9787 202.931 43.16 202.056 43.224C201.203 43.2667 200.221 43.288 199.112 43.288C199.027 42.6907 198.867 42.0293 198.632 41.304C198.397 40.5787 198.152 39.9493 197.896 39.416C198.323 39.4373 198.771 39.4587 199.24 39.48C199.709 39.48 200.136 39.48 200.52 39.48C200.925 39.48 201.192 39.48 201.32 39.48C201.555 39.4587 201.715 39.4267 201.8 39.384C201.907 39.32 201.96 39.2027 201.96 39.032V37.24H196.936V44.152H203.464L204.168 43.992L206.792 44.952C206.515 46.808 206.141 48.5787 205.672 50.264C205.203 51.928 204.616 53.4853 203.912 54.936C204.488 55.5333 205.096 56.088 205.736 56.6C206.397 57.112 207.091 57.56 207.816 57.944C207.347 58.3493 206.824 58.904 206.248 59.608C205.693 60.312 205.256 60.9413 204.936 61.496C203.741 60.728 202.643 59.7893 201.64 58.68C200.744 59.8747 199.741 60.9093 198.632 61.784C198.44 61.464 198.184 61.1333 197.864 60.792C197.565 60.4507 197.256 60.12 196.936 59.8V61.688H192.904V33.304ZM199.688 47.704C200.115 48.8987 200.616 50.0293 201.192 51.096C201.619 50.0293 201.96 48.8987 202.216 47.704H199.688ZM196.936 50.328V57.656C197.725 56.9093 198.451 56.056 199.112 55.096C198.685 54.3707 198.291 53.6133 197.928 52.824C197.565 52.0133 197.235 51.1813 196.936 50.328ZM180.104 44.152L181.672 43.672H178.44V39.896H183.528V38.296H179.304V34.584H183.528V32.184H187.656V34.584H191.592V38.296H187.656V39.896H192.264V43.672H189.544L191.304 44.12L190.024 46.84H191.656V50.616H187.656V52.6H192.264V56.376H187.656V61.624H183.528V56.376H178.44V52.6H183.528V50.616H179.208V46.84H181.032C180.925 46.4133 180.787 45.9547 180.616 45.464C180.445 44.9733 180.275 44.536 180.104 44.152ZM187.528 43.672H183.56C183.773 44.1413 183.965 44.632 184.136 45.144C184.328 45.6347 184.467 46.072 184.552 46.456L183.368 46.84H186.376C186.589 46.328 186.792 45.7947 186.984 45.24C187.197 44.6853 187.379 44.1627 187.528 43.672ZM220.712 31.832L225.704 32.824C225.213 33.6133 224.701 34.36 224.168 35.064H231.944L232.68 34.872L235.752 36.504C234.835 38.616 233.651 40.5573 232.2 42.328C230.771 44.0987 229.117 45.6987 227.24 47.128H236.648V61.72H232.008V60.504H221.864V61.688H217.384V52.6C215.827 53.2187 214.195 53.7733 212.488 54.264C212.211 53.624 211.827 52.9093 211.336 52.12C210.867 51.3307 210.397 50.7013 209.928 50.232C213.704 49.3573 217.171 48.0773 220.328 46.392C219.731 45.7733 219.048 45.1333 218.28 44.472C217.533 43.7893 216.819 43.1707 216.136 42.616C215.304 43.1493 214.44 43.672 213.544 44.184C213.331 43.8 213.043 43.384 212.68 42.936C212.317 42.4667 211.933 42.0187 211.528 41.592C211.123 41.1653 210.749 40.824 210.408 40.568C212.968 39.3733 215.091 38.008 216.776 36.472C218.483 34.936 219.795 33.3893 220.712 31.832ZM232.008 55.96V51.224H221.864V55.96H232.008ZM220.584 39.064L219.72 39.864C220.509 40.44 221.341 41.08 222.216 41.784C223.091 42.4667 223.837 43.128 224.456 43.768C225.395 43.064 226.269 42.3173 227.08 41.528C227.891 40.7387 228.605 39.9173 229.224 39.064H220.584Z" fill="white" fill-opacity="0.8"/>
</g>
<rect x="1.5" y="1.5" width="355" height="90" rx="28.5" stroke="url(#paint0_linear_421_136)" stroke-width="3"/>
<defs>
<filter id="filter0_f_421_136" x="-98" y="-30" width="857" height="434.257" filterUnits="userSpaceOnUse" color-interpolation-filters="sRGB">
<feFlood flood-opacity="0" result="BackgroundImageFix"/>
<feBlend mode="normal" in="SourceGraphic" in2="BackgroundImageFix" result="shape"/>
<feGaussianBlur stdDeviation="35" result="effect1_foregroundBlur_421_136"/>
</filter>
<linearGradient id="paint0_linear_421_136" x1="179" y1="-2.77162e-06" x2="179" y2="102.5" gradientUnits="userSpaceOnUse">
<stop stop-color="#D3E4FC" stop-opacity="0.8"/>
<stop offset="1" stop-color="#D3E4FC" stop-opacity="0.2"/>
</linearGradient>
<clipPath id="clip0_421_136">
<rect width="358" height="93" rx="30" fill="white"/>
</clipPath>
<clipPath id="clip1_421_136">
<rect width="369" height="219" fill="white" transform="translate(-5 -122)"/>
</clipPath>
</defs>
</svg>
