<svg width="396" height="131" viewBox="0 0 396 131" fill="none" xmlns="http://www.w3.org/2000/svg">
<g filter="url(#filter0_dn_421_134)">
<g clip-path="url(#clip0_421_134)">
<rect x="19" y="15" width="358" height="93" rx="30" fill="#8A99AE" fill-opacity="0.15" shape-rendering="crispEdges"/>
<path d="M138.048 70.416L140.704 70.128C140.853 70.9813 140.949 71.9307 140.992 72.976C141.056 74 141.077 74.8853 141.056 75.632L138.304 75.92C138.347 75.1733 138.336 74.288 138.272 73.264C138.229 72.2187 138.155 71.2693 138.048 70.416ZM141.12 70.352L143.712 69.872C143.989 70.704 144.245 71.6107 144.48 72.592C144.715 73.552 144.875 74.3947 144.96 75.12L142.24 75.696C142.197 74.9707 142.069 74.1067 141.856 73.104C141.643 72.1013 141.397 71.184 141.12 70.352ZM134.944 69.328L137.856 70.416C137.664 71.3547 137.408 72.368 137.088 73.456C136.789 74.5227 136.448 75.4293 136.064 76.176L133.024 74.928C133.451 74.1813 133.824 73.296 134.144 72.272C134.485 71.2267 134.752 70.2453 134.944 69.328ZM144.16 70.288L146.784 69.328C147.467 70.4587 148.043 71.632 148.512 72.848V61.744H152.384V47.088H156.704V53.328H162.336V57.52H156.704V61.744H161.344V76.56H157.12V75.632H152.544V76.688H148.512V74.512L146.24 75.44C146.091 74.736 145.813 73.904 145.408 72.944C145.024 71.9627 144.608 71.0773 144.16 70.288ZM152.544 71.536H157.12V65.84H152.544V71.536ZM137.536 53.296V57.264H139.68V55.952L138.048 56.496C138.027 56.0693 137.963 55.5787 137.856 55.024C137.771 54.448 137.664 53.872 137.536 53.296ZM137.536 50.864V51.984L138.912 51.536C139.061 51.984 139.2 52.4747 139.328 53.008C139.477 53.52 139.595 54.0213 139.68 54.512V50.864H137.536ZM144.448 54.096C144.277 54.544 144.107 54.9707 143.936 55.376C143.765 55.7813 143.605 56.144 143.456 56.464L142.272 56.016V57.264H144.448V54.096ZM143.072 51.536L144.448 52.016V50.864H142.272V54.736C142.443 54.2027 142.592 53.648 142.72 53.072C142.869 52.496 142.987 51.984 143.072 51.536ZM133.856 65.552H139.008V64.496H134.464V61.136H139.008V60.208H134.304V47.888H147.84V60.208H142.912V61.136H147.584V64.496H142.912V65.552H148.064V68.912H133.856V65.552ZM186.08 50.224L189.408 47.92C189.941 48.3893 190.485 48.912 191.04 49.488C191.616 50.064 192.149 50.64 192.64 51.216C193.131 51.792 193.515 52.3253 193.792 52.816L190.208 55.376C189.973 54.864 189.632 54.3093 189.184 53.712C188.736 53.1147 188.235 52.5067 187.68 51.888C187.147 51.2693 186.613 50.7147 186.08 50.224ZM189.152 60.816L193.056 62.544C192.373 63.7813 191.605 64.9547 190.752 66.064C189.92 67.1733 189.035 68.2187 188.096 69.2C188.416 70.1387 188.747 70.8747 189.088 71.408C189.429 71.9413 189.76 72.208 190.08 72.208C190.315 72.208 190.517 71.824 190.688 71.056C190.859 70.2667 190.987 68.9867 191.072 67.216C191.563 67.7493 192.139 68.2613 192.8 68.752C193.483 69.2427 194.112 69.6053 194.688 69.84C194.475 71.7387 194.165 73.1893 193.76 74.192C193.355 75.216 192.811 75.9093 192.128 76.272C191.467 76.656 190.624 76.848 189.6 76.848C188.533 76.848 187.573 76.4427 186.72 75.632C185.888 74.8427 185.152 73.7653 184.512 72.4C182.891 73.6587 181.152 74.7893 179.296 75.792C178.976 75.2373 178.539 74.6187 177.984 73.936C177.429 73.2533 176.875 72.6453 176.32 72.112C177.472 71.6 178.613 71.0027 179.744 70.32C180.875 69.616 181.963 68.848 183.008 68.016C182.688 66.8213 182.4 65.552 182.144 64.208C181.909 62.864 181.707 61.4667 181.536 60.016H175.776V62.8L180.192 62.064L180.48 66.192L175.776 67.12V71.568C175.776 72.72 175.637 73.616 175.36 74.256C175.104 74.9173 174.635 75.4293 173.952 75.792C173.269 76.1547 172.448 76.3893 171.488 76.496C170.528 76.624 169.429 76.688 168.192 76.688C168.107 76.048 167.904 75.28 167.584 74.384C167.264 73.488 166.933 72.72 166.592 72.08C167.403 72.1227 168.192 72.1547 168.96 72.176C169.728 72.176 170.251 72.1653 170.528 72.144C171.019 72.144 171.264 71.9307 171.264 71.504V67.984L166.272 68.944L165.216 64.336C166.048 64.2293 166.976 64.112 168 63.984C169.024 63.8347 170.112 63.6747 171.264 63.504V60.016H165.888V55.728H171.264V52.944C170.496 53.0507 169.739 53.1573 168.992 53.264C168.245 53.3493 167.509 53.424 166.784 53.488C166.699 52.9333 166.528 52.2827 166.272 51.536C166.016 50.7893 165.771 50.1707 165.536 49.68C166.987 49.488 168.448 49.264 169.92 49.008C171.392 48.752 172.8 48.464 174.144 48.144C175.509 47.824 176.725 47.4933 177.792 47.152L180.8 51.024C180.011 51.2587 179.189 51.472 178.336 51.664C177.504 51.856 176.651 52.0373 175.776 52.208V55.728H181.12C181.013 54.32 180.928 52.912 180.864 51.504C180.821 50.096 180.8 48.6987 180.8 47.312H185.472C185.429 48.6987 185.429 50.1067 185.472 51.536C185.515 52.944 185.589 54.3413 185.696 55.728H193.76V60.016H186.144C186.336 61.5093 186.571 62.9173 186.848 64.24C187.744 63.152 188.512 62.0107 189.152 60.816ZM211.904 48.304H225.056V54.128C225.056 55.0667 224.939 55.824 224.704 56.4C224.491 56.9547 224.043 57.3813 223.36 57.68C222.699 57.9787 221.931 58.16 221.056 58.224C220.203 58.2667 219.221 58.288 218.112 58.288C218.027 57.6907 217.867 57.0293 217.632 56.304C217.397 55.5787 217.152 54.9493 216.896 54.416C217.323 54.4373 217.771 54.4587 218.24 54.48C218.709 54.48 219.136 54.48 219.52 54.48C219.925 54.48 220.192 54.48 220.32 54.48C220.555 54.4587 220.715 54.4267 220.8 54.384C220.907 54.32 220.96 54.2027 220.96 54.032V52.24H215.936V59.152H222.464L223.168 58.992L225.792 59.952C225.515 61.808 225.141 63.5787 224.672 65.264C224.203 66.928 223.616 68.4853 222.912 69.936C223.488 70.5333 224.096 71.088 224.736 71.6C225.397 72.112 226.091 72.56 226.816 72.944C226.347 73.3493 225.824 73.904 225.248 74.608C224.693 75.312 224.256 75.9413 223.936 76.496C222.741 75.728 221.643 74.7893 220.64 73.68C219.744 74.8747 218.741 75.9093 217.632 76.784C217.44 76.464 217.184 76.1333 216.864 75.792C216.565 75.4507 216.256 75.12 215.936 74.8V76.688H211.904V48.304ZM218.688 62.704C219.115 63.8987 219.616 65.0293 220.192 66.096C220.619 65.0293 220.96 63.8987 221.216 62.704H218.688ZM215.936 65.328V72.656C216.725 71.9093 217.451 71.056 218.112 70.096C217.685 69.3707 217.291 68.6133 216.928 67.824C216.565 67.0133 216.235 66.1813 215.936 65.328ZM199.104 59.152L200.672 58.672H197.44V54.896H202.528V53.296H198.304V49.584H202.528V47.184H206.656V49.584H210.592V53.296H206.656V54.896H211.264V58.672H208.544L210.304 59.12L209.024 61.84H210.656V65.616H206.656V67.6H211.264V71.376H206.656V76.624H202.528V71.376H197.44V67.6H202.528V65.616H198.208V61.84H200.032C199.925 61.4133 199.787 60.9547 199.616 60.464C199.445 59.9733 199.275 59.536 199.104 59.152ZM206.528 58.672H202.56C202.773 59.1413 202.965 59.632 203.136 60.144C203.328 60.6347 203.467 61.072 203.552 61.456L202.368 61.84H205.376C205.589 61.328 205.792 60.7947 205.984 60.24C206.197 59.6853 206.379 59.1627 206.528 58.672ZM239.712 46.832L244.704 47.824C244.213 48.6133 243.701 49.36 243.168 50.064H250.944L251.68 49.872L254.752 51.504C253.835 53.616 252.651 55.5573 251.2 57.328C249.771 59.0987 248.117 60.6987 246.24 62.128H255.648V76.72H251.008V75.504H240.864V76.688H236.384V67.6C234.827 68.2187 233.195 68.7733 231.488 69.264C231.211 68.624 230.827 67.9093 230.336 67.12C229.867 66.3307 229.397 65.7013 228.928 65.232C232.704 64.3573 236.171 63.0773 239.328 61.392C238.731 60.7733 238.048 60.1333 237.28 59.472C236.533 58.7893 235.819 58.1707 235.136 57.616C234.304 58.1493 233.44 58.672 232.544 59.184C232.331 58.8 232.043 58.384 231.68 57.936C231.317 57.4667 230.933 57.0187 230.528 56.592C230.123 56.1653 229.749 55.824 229.408 55.568C231.968 54.3733 234.091 53.008 235.776 51.472C237.483 49.936 238.795 48.3893 239.712 46.832ZM251.008 70.96V66.224H240.864V70.96H251.008ZM239.584 54.064L238.72 54.864C239.509 55.44 240.341 56.08 241.216 56.784C242.091 57.4667 242.837 58.128 243.456 58.768C244.395 58.064 245.269 57.3173 246.08 56.528C246.891 55.7387 247.605 54.9173 248.224 54.064H239.584Z" fill="white" fill-opacity="0.8"/>
</g>
<rect x="19.5" y="15.5" width="357" height="92" rx="29.5" stroke="url(#paint0_linear_421_134)" shape-rendering="crispEdges"/>
</g>
<defs>
<filter id="filter0_dn_421_134" x="0" y="0" width="396" height="131" filterUnits="userSpaceOnUse" color-interpolation-filters="sRGB">
<feFlood flood-opacity="0" result="BackgroundImageFix"/>
<feColorMatrix in="SourceAlpha" type="matrix" values="0 0 0 0 0 0 0 0 0 0 0 0 0 0 0 0 0 0 127 0" result="hardAlpha"/>
<feMorphology radius="1" operator="erode" in="SourceAlpha" result="effect1_dropShadow_421_134"/>
<feOffset dy="4"/>
<feGaussianBlur stdDeviation="10"/>
<feComposite in2="hardAlpha" operator="out"/>
<feColorMatrix type="matrix" values="0 0 0 0 0.109804 0 0 0 0 0.105882 0 0 0 0 0.121569 0 0 0 0.6 0"/>
<feBlend mode="normal" in2="BackgroundImageFix" result="effect1_dropShadow_421_134"/>
<feBlend mode="normal" in="SourceGraphic" in2="BackgroundImageFix" result="shape"/>
<feTurbulence type="fractalNoise" baseFrequency="5 5" stitchTiles="stitch" numOctaves="3" result="noise" seed="4726" />
<feColorMatrix in="noise" type="luminanceToAlpha" result="alphaNoise" />
<feComponentTransfer in="alphaNoise" result="coloredNoise1">
<feFuncA type="discrete" tableValues="1 1 1 1 1 1 1 1 1 1 1 1 1 1 1 1 1 1 1 1 1 1 1 1 1 1 1 1 1 1 1 1 1 1 1 1 1 1 1 1 1 1 1 1 1 1 1 1 1 1 1 0 0 0 0 0 0 0 0 0 0 0 0 0 0 0 0 0 0 0 0 0 0 0 0 0 0 0 0 0 0 0 0 0 0 0 0 0 0 0 0 0 0 0 0 0 0 0 0 0 "/>
</feComponentTransfer>
<feComposite operator="in" in2="shape" in="coloredNoise1" result="noise1Clipped" />
<feFlood flood-color="rgba(0, 0, 0, 0.25)" result="color1Flood" />
<feComposite operator="in" in2="noise1Clipped" in="color1Flood" result="color1" />
<feMerge result="effect2_noise_421_134">
<feMergeNode in="shape" />
<feMergeNode in="color1" />
</feMerge>
<feBlend mode="normal" in="effect2_noise_421_134" in2="effect1_dropShadow_421_134" result="effect2_noise_421_134"/>
</filter>
<linearGradient id="paint0_linear_421_134" x1="198" y1="15" x2="198" y2="117.5" gradientUnits="userSpaceOnUse">
<stop stop-color="#D3E4FC" stop-opacity="0.8"/>
<stop offset="1" stop-color="#D3E4FC" stop-opacity="0.2"/>
</linearGradient>
<clipPath id="clip0_421_134">
<rect x="19" y="15" width="358" height="93" rx="30" fill="white"/>
</clipPath>
</defs>
</svg>
