<svg width="258" height="279" viewBox="0 0 258 279" fill="none" xmlns="http://www.w3.org/2000/svg">
<path d="M66.5092 200.605C39.0222 188.482 39.2232 188.425 26.7166 217.616C39.5327 188.523 39.5909 188.693 11.9955 176.921C39.4825 189.044 39.2815 189.101 51.7881 159.91C38.972 189.003 38.9137 188.833 66.5092 200.605Z" fill="#D2788B"/>
<path d="M180.081 91.2978C138.709 73.0332 138.974 72.9311 120.128 116.915C139.418 73.1242 139.524 73.3872 97.9402 55.6096C139.312 73.8742 139.048 73.9763 157.894 29.992C138.603 73.7833 138.498 73.5202 180.081 91.2978Z" fill="#E9D2D6"/>
<path d="M66.5092 200.605C39.0222 188.482 39.2232 188.425 26.7166 217.616C39.5327 188.523 39.5909 188.693 11.9955 176.921C39.4825 189.044 39.2815 189.101 51.7881 159.91C38.972 189.003 38.9137 188.833 66.5092 200.605Z" fill="#D2788B"/>
<path d="M180.081 91.2978C138.709 73.0332 138.974 72.9311 120.128 116.915C139.418 73.1242 139.524 73.3872 97.9402 55.6096C139.312 73.8742 139.048 73.9763 157.894 29.992C138.603 73.7833 138.498 73.5202 180.081 91.2978Z" fill="#E9D2D6"/>
</svg>
