<svg width="149" height="123" viewBox="0 0 149 123" fill="none" xmlns="http://www.w3.org/2000/svg">
<g clip-path="url(#clip0_749_1406)">
<path d="M98.5534 61.3157C94.3164 52.009 86.5643 45.128 78.1572 39.5101C74.0596 36.7763 69.7786 34.3167 65.3977 32.0763C61.7738 30.2136 58.0865 28.4981 54.3297 26.917C52.1239 25.9878 49.8952 25.0929 47.6428 24.2639C47.351 24.1592 47.0592 24.0546 46.7674 23.9499L56.7952 40.0078L13.3362 43.7037C13.4721 43.7099 13.6046 43.7256 13.7499 43.7352C14.1413 43.7693 14.5362 43.7941 14.937 43.8316C15.5652 43.8869 16.1934 43.9423 16.8277 44.0104C17.6671 44.0989 18.5064 44.1875 19.3424 44.2855C20.3742 44.4005 21.3991 44.5344 22.4241 44.6683C23.6132 44.8185 24.8049 44.9909 25.9967 45.1634C27.327 45.3643 28.6667 45.5685 29.9902 45.7882C31.4429 46.033 32.8921 46.2871 34.3346 46.5601C35.8781 46.8481 37.4241 47.1582 38.9634 47.4872C40.5814 47.8337 42.1927 48.1991 43.8066 48.5867C45.4205 48.9743 47.1312 49.4178 48.788 49.8633C50.4826 50.3223 52.1636 50.8189 53.8379 51.3344C55.531 51.8566 57.22 52.4199 58.8989 53.0114C60.5777 53.6029 62.2397 54.2414 63.8916 54.9082C72.4636 58.4074 80.57 62.9082 87.0511 69.6308C87.833 70.4424 88.4453 71.3419 88.7567 72.3991C88.9803 73.138 89.0875 73.9944 87.9392 74.56C87.3731 74.835 86.7292 74.9122 86.1051 74.8158C82.2205 74.2726 78.4171 73.3547 74.5859 72.5438C74.3875 72.5045 74.1797 72.4618 73.9847 72.4131L87.297 83.5191L59.7524 96.6939L89.596 91.2384L85.0832 109.391L98.0344 90.9927L105.321 109.956L103.995 91.643L129.844 92.319L107.645 84.1024L122.826 73.7923L105.232 74.0051C106.735 67.947 108.244 61.9016 109.757 55.8469C107.366 58.6333 104.885 61.3449 102.317 63.9723C102.052 64.2384 101.78 64.5232 101.414 64.6256C100.331 64.9491 99.5283 63.6626 99.0965 62.6153C98.9135 62.1778 98.7304 61.7404 98.5345 61.3089L98.5534 61.3157Z" fill="url(#paint0_linear_749_1406)" stroke="#3F5FAB" stroke-linejoin="round"/>
<path d="M103.404 52.4105C103.502 51.0431 103.513 49.6769 103.446 48.3248C103.131 42.2414 101.033 36.3897 98.2043 30.7113C98.0319 30.3626 97.8561 30.0233 97.6837 29.6746C97.114 28.5673 96.5256 27.4533 95.9337 26.3486C95.8881 26.2685 95.0406 24.7216 95.0406 24.7216L89.3496 29.9259L79.0589 28.0201C79.0589 28.0201 81.7399 29.7571 82.5342 30.297C87.8584 33.9062 92.2881 38.3208 95.9275 42.7175C99.3668 46.8724 101.973 51.366 102.96 56.1076C103.168 54.8756 103.326 53.636 103.417 52.4045L103.404 52.4105Z" fill="url(#paint1_linear_749_1406)" stroke="#3F5FAB" stroke-miterlimit="10"/>
</g>
<defs>
<linearGradient id="paint0_linear_749_1406" x1="59.9883" y1="100.391" x2="82.7753" y2="36.8531" gradientUnits="userSpaceOnUse">
<stop stop-color="#344C89" stop-opacity="0.6"/>
<stop offset="0.09" stop-color="#384E8A" stop-opacity="0.61"/>
<stop offset="0.2" stop-color="#43548D" stop-opacity="0.64"/>
<stop offset="0.31" stop-color="#575E92" stop-opacity="0.68"/>
<stop offset="0.42" stop-color="#736D99" stop-opacity="0.75"/>
<stop offset="0.53" stop-color="#9680A2" stop-opacity="0.83"/>
<stop offset="0.65" stop-color="#C196AC" stop-opacity="0.93"/>
<stop offset="0.72" stop-color="#E2A8B5"/>
<stop offset="0.76" stop-color="#E5B3BE" stop-opacity="0.93"/>
<stop offset="0.85" stop-color="#EFD0D7" stop-opacity="0.75"/>
<stop offset="0.96" stop-color="white" stop-opacity="0.47"/>
</linearGradient>
<linearGradient id="paint1_linear_749_1406" x1="79.9025" y1="39.751" x2="102.454" y2="37.877" gradientUnits="userSpaceOnUse">
<stop stop-color="#344C89" stop-opacity="0.6"/>
<stop offset="0.09" stop-color="#384E8A" stop-opacity="0.61"/>
<stop offset="0.2" stop-color="#43548D" stop-opacity="0.64"/>
<stop offset="0.31" stop-color="#575E92" stop-opacity="0.68"/>
<stop offset="0.42" stop-color="#736D99" stop-opacity="0.75"/>
<stop offset="0.53" stop-color="#9680A2" stop-opacity="0.83"/>
<stop offset="0.65" stop-color="#C196AC" stop-opacity="0.93"/>
<stop offset="0.72" stop-color="#E2A8B5"/>
<stop offset="0.76" stop-color="#E5B3BE" stop-opacity="0.93"/>
<stop offset="0.85" stop-color="#EFD0D7" stop-opacity="0.75"/>
<stop offset="0.96" stop-color="white" stop-opacity="0.47"/>
</linearGradient>
<clipPath id="clip0_749_1406">
<rect width="84.36" height="127.1" fill="white" transform="translate(0 79.4077) rotate(-70.2702)"/>
</clipPath>
</defs>
</svg>
