<svg width="186" height="321" viewBox="0 0 186 321" fill="none" xmlns="http://www.w3.org/2000/svg">
<g clip-path="url(#clip0_729_990)">
<path d="M82.79 59.32C53.38 68.22 53.82 69.34 50.42 0C54.62 69.34 54.85 68.22 25.44 59.32C55.03 67.41 55.03 67.18 24.98 80.92C54.89 66.32 54.54 65.41 54.12 134.75C53.7 65.41 53.35 66.32 83.26 80.92C53.2 67.18 53.21 67.4 82.8 59.32H82.79Z" fill="url(#paint0_linear_729_990)"/>
<path d="M78.0002 170.51C53.4202 169.88 53.7302 169.37 54.1102 209.77C54.4902 169.37 54.8102 169.88 30.2202 170.51C54.8002 171.14 54.4902 171.65 54.1102 131.25C53.7302 171.65 53.4102 171.14 78.0002 170.51Z" stroke="#E9D2D6" stroke-miterlimit="10"/>
<path d="M59.3601 226.91C34.7801 226.28 35.0901 225.77 35.4701 266.17C35.8501 225.77 36.1701 226.28 11.5801 226.91C36.1601 227.54 35.8501 228.05 35.4701 187.65C35.0901 228.05 34.7701 227.54 59.3601 226.91Z" stroke="#D2788B" stroke-width="0.75" stroke-miterlimit="10"/>
<path d="M47.7702 257.46C23.1902 256.45 23.5002 255.63 23.8802 320.4C24.2602 255.63 24.5802 256.45 -0.00976562 257.46C24.5702 258.47 24.2602 259.29 23.8802 194.52C23.5002 259.29 23.1802 258.47 47.7702 257.46Z" fill="url(#paint1_linear_729_990)"/>
<path d="M50.9501 138.96C41.6001 147.76 34.7401 159.17 31.3601 171.55C30.3101 175.41 29.5801 179.49 30.4601 183.4C32.2101 191.17 40.3701 193.42 47.2901 193.89C50.7201 194.13 58.4801 194.17 74.9901 185.58C81.7101 182.09 93.1101 176.04 105.46 164.21C117.05 153.1 124.58 142.12 124.06 141.66C124.93 142.43 95.5501 167.13 93.4401 168.6C81.7001 176.75 67.4301 187.43 52.3001 186.1C37.4001 184.78 34.7101 169.57 38.9401 157.41C41.3701 150.42 45.8801 144.33 50.9701 138.96H50.9501Z" fill="url(#paint2_linear_729_990)" stroke="#3E5BA0" stroke-width="0.25" stroke-miterlimit="10"/>
<path d="M115.47 163.11C115.47 163.11 115.42 163.17 115.4 163.21C146.07 133.93 174.61 99.3602 185.37 58.4502C181.24 70.4902 178.73 74.5702 172.77 85.8102C172.21 86.8702 168.23 94.1902 167.12 94.6402C164.75 95.6102 164.74 93.0902 164.86 90.5302C164.98 87.9702 164.88 86.6802 165.33 84.1602C166.06 80.0902 163.97 75.8602 160.75 73.2702C157.53 70.6802 153.35 69.5402 149.22 69.2402C140.63 68.6202 129.14 71.2102 121.53 75.2302C113.92 79.2502 112.8 79.8702 105.72 84.7802C96.9198 90.8802 84.4798 101.79 80.1198 111.57C79.0998 113.86 78.6498 117.05 80.7398 118.43C82.6698 119.7 85.3698 118.3 86.5598 116.32C87.7498 114.34 89.3998 112.02 90.7398 110.14C96.7298 101.8 100.32 97.3902 103.57 94.5402C111.23 87.8302 112.37 86.4802 121.35 81.6802C130.33 76.8802 140.62 73.9902 150.73 75.2802C154.49 75.7602 158.77 77.3702 159.74 81.0402C160.16 82.6202 159.86 84.3002 159.4 85.8702C157.65 91.8302 153.72 96.9202 149.27 101.24C138.61 111.57 124.4 118.17 109.63 119.66C115.45 119.07 122.73 120.63 128.77 118.51C133.76 116.75 135.9 115.72 140.04 112.48C142.19 110.8 144.5 108.59 146.9 109.89C149.86 111.48 149.34 114.75 147.78 117.73C145.41 122.27 142.53 126.56 139.23 130.48C140.39 129.36 141.56 128.24 142.72 127.12C133.64 139.12 124.56 151.13 115.48 163.13L115.47 163.11Z" fill="url(#paint3_linear_729_990)"/>
</g>
<defs>
<linearGradient id="paint0_linear_729_990" x1="54.11" y1="134.75" x2="54.11" y2="0" gradientUnits="userSpaceOnUse">
<stop offset="0.41" stop-color="#D2788B"/>
<stop offset="0.51" stop-color="#F3F3F3"/>
<stop offset="0.61" stop-color="#3E5BA0"/>
</linearGradient>
<linearGradient id="paint1_linear_729_990" x1="23.8902" y1="320.4" x2="23.8902" y2="194.52" gradientUnits="userSpaceOnUse">
<stop offset="0.41" stop-color="#D2788B"/>
<stop offset="0.51" stop-color="#F3F3F3"/>
<stop offset="0.61" stop-color="#3E5BA0"/>
</linearGradient>
<linearGradient id="paint2_linear_729_990" x1="30.0701" y1="166.46" x2="124.08" y2="166.46" gradientUnits="userSpaceOnUse">
<stop stop-color="#E9D2D6"/>
<stop offset="1" stop-color="#F3F3F3"/>
</linearGradient>
<linearGradient id="paint3_linear_729_990" x1="79.2598" y1="110.83" x2="185.36" y2="110.83" gradientUnits="userSpaceOnUse">
<stop stop-color="#D2788B"/>
<stop offset="0.51" stop-color="#F3F3F3"/>
<stop offset="1" stop-color="#3E5BA0"/>
</linearGradient>
<clipPath id="clip0_729_990">
<rect width="185.36" height="320.4" fill="white"/>
</clipPath>
</defs>
</svg>
