<svg width="191" height="31" viewBox="0 0 191 31" fill="none" xmlns="http://www.w3.org/2000/svg">
<path d="M14.4 21.696L16.704 20.16H13.6V16H23.008V13.696H12.96V9.504H19.648V7.584H14.688V3.488H19.648V1.024H23.904V3.488H29.024V7.584H23.904V9.504H30.304V13.696H27.264V16H29.92V20.16H27.264V25.792C27.264 26.88 27.1467 27.744 26.912 28.384C26.6773 29.024 26.2293 29.5147 25.568 29.856C24.9067 30.1973 24.1387 30.4107 23.264 30.496C22.3893 30.6027 21.3973 30.656 20.288 30.656C20.2027 29.9947 20.0427 29.2267 19.808 28.352C19.5733 27.4987 19.3173 26.7627 19.04 26.144C19.6587 26.1653 20.3093 26.1867 20.992 26.208C21.696 26.208 22.1547 26.208 22.368 26.208C22.624 26.208 22.7947 26.176 22.88 26.112C22.9653 26.048 23.008 25.92 23.008 25.728V20.16H18.048C18.6027 20.8 19.1467 21.4827 19.68 22.208C20.2347 22.9333 20.6613 23.584 20.96 24.16L17.6 26.496C17.408 26.048 17.1307 25.5467 16.768 24.992C16.4267 24.4373 16.0427 23.872 15.616 23.296C15.1893 22.72 14.784 22.1867 14.4 21.696ZM2.368 3.552L5.792 4.192L5.568 6.944H6.368V1.056H10.592V6.944H12.608V11.264H10.592V16.256L12.608 15.712L12.96 19.904L10.592 20.672V30.72H6.368V21.952L2.432 23.104L1.536 18.464C2.19733 18.336 2.93333 18.176 3.744 17.984C4.576 17.792 5.45067 17.5787 6.368 17.344V11.264H5.024C4.768 12.928 4.49067 14.336 4.192 15.488C3.808 15.2107 3.27467 14.912 2.592 14.592C1.93067 14.2507 1.38667 14.0053 0.96 13.856C1.216 13.024 1.44 12.0533 1.632 10.944C1.824 9.81333 1.984 8.608 2.112 7.328C2.24 6.048 2.32533 4.78933 2.368 3.552ZM49.664 4.896H53.984V22.752H49.664V4.896ZM56.736 1.696H61.152V25.376C61.152 26.6347 61.0133 27.6053 60.736 28.288C60.48 28.9707 60 29.4933 59.296 29.856C58.5707 30.2187 57.664 30.4533 56.576 30.56C55.488 30.688 54.24 30.752 52.832 30.752C52.7467 30.0907 52.544 29.3013 52.224 28.384C51.9253 27.4667 51.616 26.6773 51.296 26.016C52.256 26.0587 53.1733 26.0907 54.048 26.112C54.944 26.112 55.5627 26.112 55.904 26.112C56.4587 26.112 56.736 25.856 56.736 25.344V1.696ZM38.848 6.464V9.792H43.488V6.464H38.848ZM34.848 2.496H47.776V13.792H42.112L41.952 15.904H48.128C48.128 15.904 48.1173 16.0107 48.096 16.224C48.096 16.416 48.096 16.64 48.096 16.896C48.096 17.1307 48.0853 17.3333 48.064 17.504C47.9787 19.9787 47.872 22.0053 47.744 23.584C47.6373 25.1413 47.4987 26.3573 47.328 27.232C47.1573 28.1067 46.9227 28.7253 46.624 29.088C46.2827 29.536 45.9093 29.856 45.504 30.048C45.0987 30.24 44.64 30.3787 44.128 30.464C43.7013 30.5493 43.1573 30.6027 42.496 30.624C41.856 30.6453 41.184 30.6453 40.48 30.624C40.4587 30.0267 40.3307 29.3547 40.096 28.608C39.8827 27.8827 39.616 27.2533 39.296 26.72C39.872 26.784 40.4053 26.8267 40.896 26.848C41.3867 26.848 41.7707 26.848 42.048 26.848C42.2827 26.848 42.4747 26.8267 42.624 26.784C42.7733 26.72 42.9227 26.6027 43.072 26.432C43.264 26.176 43.424 25.5573 43.552 24.576C43.7013 23.5733 43.8187 21.9947 43.904 19.84H41.472C41.088 21.9093 40.48 23.8827 39.648 25.76C38.8373 27.6373 37.6213 29.2907 36 30.72C35.6587 30.1653 35.2107 29.5573 34.656 28.896C34.1013 28.256 33.5573 27.744 33.024 27.36C34.368 26.2293 35.36 24.928 36 23.456C36.6613 21.984 37.0987 20.4267 37.312 18.784C37.5467 17.12 37.696 15.456 37.76 13.792H34.848V2.496ZM72.192 12.832C70.72 13.8987 69.2053 14.848 67.648 15.68C67.3493 15.1467 66.9227 14.5173 66.368 13.792C65.8347 13.0667 65.3333 12.4693 64.864 12C66.6133 11.1467 68.288 10.112 69.888 8.896C71.488 7.65867 72.9067 6.35733 74.144 4.992C75.4027 3.62667 76.4053 2.32533 77.152 1.088H81.792C83.4773 3.52 85.4507 5.65333 87.712 7.488C89.9733 9.30133 92.3413 10.688 94.816 11.648C94.2613 12.224 93.7387 12.8747 93.248 13.6C92.7573 14.304 92.3093 15.008 91.904 15.712C90.4533 14.9653 88.992 14.0587 87.52 12.992V15.04H72.192V12.832ZM79.648 5.504C78.368 7.36 76.6293 9.216 74.432 11.072H85.024C83.936 10.176 82.9227 9.248 81.984 8.288C81.0667 7.328 80.288 6.4 79.648 5.504ZM69.952 17.696H89.952V30.784H85.344V29.696H74.336V30.784H69.952V17.696ZM74.336 25.728H85.344V21.664H74.336V25.728ZM112.096 1.312L116.384 2.432C115.979 3.648 115.52 4.864 115.008 6.08H126.464V10.368H118.144V12.992H125.6V17.12H118.144V19.904H126.016V24.128H118.144V30.72H113.536V10.368H112.928C112.331 11.4987 111.701 12.5653 111.04 13.568C110.379 14.5493 109.717 15.424 109.056 16.192C108.821 15.9147 108.501 15.5733 108.096 15.168C107.691 14.7627 107.264 14.368 106.816 13.984C106.389 13.5787 106.016 13.2587 105.696 13.024C106.592 12.0853 107.435 10.9973 108.224 9.76C109.035 8.50133 109.771 7.14667 110.432 5.696C111.093 4.24533 111.648 2.784 112.096 1.312ZM103.584 1.184L107.904 2.56C107.093 4.71467 106.144 6.83733 105.056 8.928V30.688H100.576V15.936C100.149 16.4693 99.7227 16.96 99.296 17.408C99.168 17.0453 98.9547 16.5547 98.656 15.936C98.3787 15.296 98.08 14.6667 97.76 14.048C97.44 13.408 97.152 12.896 96.896 12.512C97.792 11.616 98.656 10.56 99.488 9.344C100.32 8.128 101.088 6.82667 101.792 5.44C102.496 4.05333 103.093 2.63467 103.584 1.184ZM143.616 5.376C142.784 6.592 141.739 7.84 140.48 9.12C139.243 10.3787 137.856 11.5947 136.32 12.768C134.805 13.92 133.205 14.9653 131.52 15.904C131.243 15.3707 130.816 14.7413 130.24 14.016C129.685 13.2907 129.163 12.6933 128.672 12.224C130.464 11.328 132.16 10.24 133.76 8.96C135.381 7.68 136.821 6.336 138.08 4.928C139.36 3.49867 140.373 2.144 141.12 0.863998H145.76C147.467 3.38133 149.472 5.58933 151.776 7.488C154.08 9.38667 156.469 10.8373 158.944 11.84C158.389 12.4373 157.856 13.0987 157.344 13.824C156.853 14.528 156.395 15.232 155.968 15.936C154.389 15.0613 152.811 14.0373 151.232 12.864C149.653 11.6693 148.203 10.432 146.88 9.152C145.557 7.85067 144.469 6.592 143.616 5.376ZM133.696 15.296H138.08V25.792H141.568V10.048H146.336V16.384H154.176V20.416H146.336V25.792H156.896V29.888H130.656V25.792H133.696V15.296ZM164.16 2.368L167.968 1.088C168.395 1.728 168.811 2.45333 169.216 3.264C169.643 4.07467 169.952 4.78933 170.144 5.408L168.8 5.888H170.976V1.024H175.136V5.888H176.576V1.024H180.8V5.888H182.848L181.888 5.6C182.208 4.98133 182.528 4.26667 182.848 3.456C183.168 2.624 183.424 1.87733 183.616 1.216L188.288 2.304C187.883 2.96533 187.488 3.60533 187.104 4.224C186.741 4.82133 186.389 5.376 186.048 5.888H189.6V9.568H184.032L182.848 11.616H188.352V15.104H177.952V15.968H186.976V19.2H177.952V20.064H189.664V23.744H181.792C183.008 24.3627 184.363 24.896 185.856 25.344C187.371 25.7707 188.939 26.0907 190.56 26.304C190.24 26.624 189.888 27.0293 189.504 27.52C189.12 28.0107 188.757 28.512 188.416 29.024C188.075 29.536 187.787 30.0053 187.552 30.432C185.739 29.984 184.011 29.3653 182.368 28.576C180.747 27.7867 179.275 26.848 177.952 25.76V30.72H173.536V25.92C172.149 26.9227 170.624 27.808 168.96 28.576C167.317 29.3653 165.632 29.984 163.904 30.432C163.712 30.0693 163.445 29.6533 163.104 29.184C162.784 28.7147 162.443 28.256 162.08 27.808C161.717 27.3387 161.376 26.9547 161.056 26.656C162.635 26.3573 164.192 25.9627 165.728 25.472C167.285 24.96 168.683 24.384 169.92 23.744H162.048V20.064H173.536V19.2H164.864V15.968H173.536V15.104H163.36V11.616H168.736C168.651 11.296 168.533 10.9547 168.384 10.592C168.256 10.208 168.128 9.86667 168 9.568H162.112V5.888H165.792C165.579 5.33333 165.323 4.74667 165.024 4.128C164.725 3.50933 164.437 2.92267 164.16 2.368ZM179.104 9.568H172.704C172.853 9.90933 173.003 10.2613 173.152 10.624C173.301 10.9653 173.408 11.2747 173.472 11.552L173.088 11.616H178.336C178.464 11.296 178.592 10.9653 178.72 10.624C178.869 10.2827 178.997 9.93067 179.104 9.568Z" fill="#2D3E63"/>
</svg>
