<svg width="142" height="35" viewBox="0 0 142 35" fill="none" xmlns="http://www.w3.org/2000/svg">
<path d="M10.124 21.28V22.216H23.66V21.28H10.124ZM10.124 24.808V25.78H23.66V24.808H10.124ZM10.124 17.716V18.652H23.66V17.716H10.124ZM4.976 5.692L4.328 6.772H7.388V5.692H4.976ZM18.188 30.244L20.924 28.552H12.464L15.344 29.812C14.408 30.436 13.304 31.012 12.032 31.54C10.76 32.068 9.44 32.548 8.072 32.98C6.704 33.436 5.408 33.808 4.184 34.096C3.92 33.76 3.572 33.364 3.14 32.908C2.708 32.452 2.264 32.008 1.808 31.576C1.352 31.144 0.944 30.784 0.584 30.496C2.072 30.304 3.572 30.04 5.084 29.704C6.62 29.368 7.976 28.984 9.152 28.552H5.264V14.908H9.296L8.18 12.424C8.468 12.256 8.756 11.98 9.044 11.596C9.356 11.212 9.512 10.648 9.512 9.904H8.324C8.012 11.296 7.448 12.508 6.632 13.54C5.84 14.572 4.532 15.448 2.708 16.168C2.492 15.712 2.156 15.16 1.7 14.512C1.268 13.864 0.836 13.348 0.404 12.964C1.628 12.628 2.528 12.208 3.104 11.704C3.68 11.176 4.088 10.576 4.328 9.904H1.088V6.772H3.644C3.26 6.484 2.828 6.22 2.348 5.98C1.892 5.716 1.484 5.512 1.124 5.368C1.652 4.696 2.096 3.976 2.456 3.208C2.816 2.44 3.104 1.708 3.32 1.012L6.596 1.552L6.236 2.704H7.388V0.687998H11.348V2.704H15.56V5.692H11.348V6.772H16.136V9.904H13.508V11.056L16.496 10.516L16.352 11.884C17.36 11.644 18.116 11.368 18.62 11.056C19.148 10.72 19.532 10.336 19.772 9.904H17V6.772H18.872C18.512 6.484 18.104 6.22 17.648 5.98C17.192 5.716 16.772 5.512 16.388 5.368C16.94 4.696 17.408 3.976 17.792 3.208C18.2 2.416 18.512 1.684 18.728 1.012L22.04 1.588L21.68 2.704H22.796V0.687998H26.792V2.704H31.4V5.692H26.792V6.772H32.372V9.904H28.664V11.02C28.664 11.404 28.676 11.644 28.7 11.74C28.748 11.812 28.832 11.848 28.952 11.848C29 11.848 29.072 11.848 29.168 11.848C29.288 11.848 29.384 11.848 29.456 11.848C29.648 11.848 29.768 11.764 29.816 11.596C29.888 11.404 29.948 10.984 29.996 10.336C30.332 10.6 30.812 10.852 31.436 11.092C32.084 11.308 32.66 11.476 33.164 11.596C32.996 12.94 32.66 13.852 32.156 14.332C31.676 14.812 30.944 15.052 29.96 15.052H28.772V28.552H24.38C25.916 29.08 27.416 29.632 28.88 30.208C30.368 30.784 31.616 31.3 32.624 31.756L27.152 34.06C26.504 33.7 25.7 33.304 24.74 32.872C23.78 32.44 22.736 31.984 21.608 31.504C20.48 31.048 19.34 30.628 18.188 30.244ZM20.312 5.692L19.628 6.772H22.796V5.692H20.312ZM23.768 9.904C23.504 11.032 23.012 12.004 22.292 12.82C21.572 13.636 20.432 14.332 18.872 14.908H26.756C25.964 14.74 25.448 14.356 25.208 13.756C24.968 13.156 24.848 12.256 24.848 11.056V9.904H23.768ZM18.116 14.908C17.924 14.5 17.66 14.044 17.324 13.54C16.988 13.036 16.652 12.604 16.316 12.244L16.208 13.576L9.944 14.908H18.116ZM36.188 25.384L38.564 24.952V2.02H51.056V22.396L52.316 22.108L52.64 25.276C53.624 23.596 54.332 21.724 54.764 19.66C55.196 17.596 55.472 15.328 55.592 12.856H51.848V8.068H55.736L55.772 0.723999H60.668L60.596 8.068H68.012C68.012 8.068 68.012 8.212 68.012 8.5C68.012 8.764 68 9.076 67.976 9.436C67.976 9.772 67.976 10.036 67.976 10.228C67.904 13.804 67.82 16.852 67.724 19.372C67.652 21.892 67.556 23.98 67.436 25.636C67.316 27.268 67.16 28.552 66.968 29.488C66.8 30.424 66.572 31.108 66.284 31.54C65.828 32.212 65.36 32.68 64.88 32.944C64.4 33.232 63.836 33.448 63.188 33.592C62.612 33.712 61.904 33.772 61.064 33.772C60.248 33.796 59.396 33.796 58.508 33.772C58.484 33.076 58.328 32.26 58.04 31.324C57.776 30.388 57.44 29.584 57.032 28.912C57.8 28.96 58.508 28.996 59.156 29.02C59.828 29.044 60.356 29.056 60.74 29.056C61.268 29.056 61.676 28.852 61.964 28.444C62.204 28.132 62.396 27.412 62.54 26.284C62.684 25.156 62.804 23.512 62.9 21.352C62.996 19.168 63.08 16.336 63.152 12.856H60.416C60.248 15.952 59.876 18.82 59.3 21.46C58.724 24.076 57.824 26.44 56.6 28.552C55.376 30.664 53.684 32.5 51.524 34.06C51.164 33.436 50.648 32.74 49.976 31.972C49.328 31.204 48.692 30.604 48.068 30.172C49.388 29.236 50.516 28.192 51.452 27.04C48.932 27.664 46.4 28.288 43.856 28.912C41.336 29.536 39.056 30.1 37.016 30.604L36.188 25.384ZM42.956 24.088L46.412 23.368V20.812H42.956V24.088ZM42.956 13.648V16.384H46.412V13.648H42.956ZM42.956 9.22H46.412V6.556H42.956V9.22ZM88.568 5.548C87.632 6.916 86.456 8.32 85.04 9.76C83.648 11.176 82.088 12.544 80.36 13.864C78.656 15.16 76.856 16.336 74.96 17.392C74.648 16.792 74.168 16.084 73.52 15.268C72.896 14.452 72.308 13.78 71.756 13.252C73.772 12.244 75.68 11.02 77.48 9.58C79.304 8.14 80.924 6.628 82.34 5.044C83.78 3.436 84.92 1.912 85.76 0.471998H90.98C92.9 3.304 95.156 5.788 97.748 7.924C100.34 10.06 103.028 11.692 105.812 12.82C105.188 13.492 104.588 14.236 104.012 15.052C103.46 15.844 102.944 16.636 102.464 17.428C100.688 16.444 98.912 15.292 97.136 13.972C95.36 12.628 93.728 11.236 92.24 9.796C90.752 8.332 89.528 6.916 88.568 5.548ZM77.408 16.708H82.34V28.516H86.264V10.804H91.628V17.932H100.448V22.468H91.628V28.516H103.508V33.124H73.988V28.516H77.408V16.708ZM111.68 2.164L115.964 0.723999C116.444 1.444 116.912 2.26 117.368 3.172C117.848 4.084 118.196 4.888 118.412 5.584L116.9 6.124H119.348V0.651998H124.028V6.124H125.648V0.651998H130.4V6.124H132.704L131.624 5.8C131.984 5.104 132.344 4.3 132.704 3.388C133.064 2.452 133.352 1.612 133.568 0.868L138.824 2.092C138.368 2.836 137.924 3.556 137.492 4.252C137.084 4.924 136.688 5.548 136.304 6.124H140.3V10.264H134.036L132.704 12.568H138.896V16.492H127.196V17.464H137.348V21.1H127.196V22.072H140.372V26.212H131.516C132.884 26.908 134.408 27.508 136.088 28.012C137.792 28.492 139.556 28.852 141.38 29.092C141.02 29.452 140.624 29.908 140.192 30.46C139.76 31.012 139.352 31.576 138.968 32.152C138.584 32.728 138.26 33.256 137.996 33.736C135.956 33.232 134.012 32.536 132.164 31.648C130.34 30.76 128.684 29.704 127.196 28.48V34.06H122.228V28.66C120.668 29.788 118.952 30.784 117.08 31.648C115.232 32.536 113.336 33.232 111.392 33.736C111.176 33.328 110.876 32.86 110.492 32.332C110.132 31.804 109.748 31.288 109.34 30.784C108.932 30.256 108.548 29.824 108.188 29.488C109.964 29.152 111.716 28.708 113.444 28.156C115.196 27.58 116.768 26.932 118.16 26.212H109.304V22.072H122.228V21.1H112.472V17.464H122.228V16.492H110.78V12.568H116.828C116.732 12.208 116.6 11.824 116.432 11.416C116.288 10.984 116.144 10.6 116 10.264H109.376V6.124H113.516C113.276 5.5 112.988 4.84 112.652 4.144C112.316 3.448 111.992 2.788 111.68 2.164ZM128.492 10.264H121.292C121.46 10.648 121.628 11.044 121.796 11.452C121.964 11.836 122.084 12.184 122.156 12.496L121.724 12.568H127.628C127.772 12.208 127.916 11.836 128.06 11.452C128.228 11.068 128.372 10.672 128.492 10.264Z" fill="#2D3E63"/>
</svg>
