<svg width="519" height="123" viewBox="0 0 519 123" fill="none" xmlns="http://www.w3.org/2000/svg">
<path d="M245.065 108.414V108.815H237.421V108.414C238.483 108.414 239.242 107.559 239.242 105.95V93.2511L232.509 109.032H232.079L224.99 94.815V102.822C224.99 102.822 224.939 108.414 228.433 108.414V108.815H220.763V108.414C224.561 108.414 224.561 102.822 224.561 102.822V94.1739C223.598 92.5874 222.332 92.5874 221.699 92.5388V92.1341H228.078L234.178 104.146L239.242 92.1341H244.836V92.5388C243.747 92.5388 242.885 93.1799 242.885 94.6239V105.95C242.885 107.562 243.973 108.414 245.062 108.414H245.065ZM257.799 103.13H249.748C249.951 105.451 251.217 106.659 252.913 107.015C254.279 107.3 256.304 106.827 256.937 105.713L257.366 105.927C256.96 107.158 255.467 109.032 252.076 109.032C248.685 109.032 246.483 106.167 246.483 103.392C246.483 100.051 248.915 97.6578 252.406 97.6578C256.078 97.6578 257.799 99.4354 257.799 103.133V103.13ZM254.712 102.728C254.712 99.7429 253.675 98.0593 252.28 98.0593C250.788 98.0593 249.748 100.452 249.748 102.728H254.709H254.712ZM265.066 108.414V108.815H259.876V108.414C260.838 108.129 260.89 107.135 260.89 105.927V100.666C260.89 99.8595 260.638 99.5292 259.598 99.008V98.6065L264.029 97.6578V105.927C264.029 107.255 264.155 108.177 265.066 108.414ZM262.204 95.7604C261.242 95.7604 260.483 95.0481 260.483 94.148C260.483 93.2479 261.242 92.5356 262.204 92.5356C263.167 92.5356 263.951 93.2479 263.951 94.148C263.951 95.0481 263.167 95.7604 262.204 95.7604ZM277.826 105.973C277.47 107.18 275.953 109.029 272.788 109.029C269.623 109.029 267.22 106.066 267.22 103.295C267.22 100.523 269.448 97.6545 273.776 97.6545C275.575 97.6545 276.663 98.341 277.093 98.6971C277.522 99.0533 277.777 99.717 277.6 100.284C277.348 101.113 276.434 101.656 275.523 101.42C274.612 101.206 274.079 100.329 274.335 99.5001C274.435 99.0501 274.738 98.7425 275.119 98.5514C275.349 98.4575 274.79 98.0528 273.779 98.0528C272.868 98.0528 270.411 98.7878 270.411 102.864C270.411 105.422 271.88 106.559 273.627 106.915C274.893 107.177 276.892 106.536 277.474 105.756L277.829 105.969L277.826 105.973ZM291.574 108.414V108.815H286.384V108.414C287.346 108.155 287.398 107.109 287.398 105.901V101.423C287.398 100.073 286.739 99.4321 285.273 99.4321C284.563 99.4321 283.703 99.9048 283.171 100.854V105.901C283.171 107.203 283.297 108.174 284.207 108.388V108.815H278.992V108.388C279.954 108.129 280.006 107.109 280.006 105.901V93.9602C280.006 93.1313 279.754 92.895 278.74 92.5388V92.1341L283.171 91.14V100.216C283.652 98.9594 285.777 97.6578 287.346 97.6578C289.371 97.6578 290.537 98.4867 290.537 101.329V105.901C290.537 107.203 290.689 108.2 291.574 108.414ZM305.8 107.986V108.388L302.054 109.003C301.369 109.097 301.347 108.553 301.347 108.553V106.468C300.739 107.818 298.637 109.026 297.067 109.026C295.068 109.026 293.877 108.245 293.877 105.399V100.329C293.877 98.9076 293.928 98.6939 292.459 98.5061V98.1014L297.016 97.6513V105.328C297.016 106.656 297.674 107.294 299.141 107.294C299.848 107.294 300.81 106.701 301.343 105.756V100.4C301.343 98.9562 301.443 98.6453 300.155 98.5061V98.1014L304.508 97.6513V106.633C304.508 107.77 304.738 107.863 305.8 107.983V107.986ZM328.856 95.2165V105.286C328.856 107.229 328.652 107.773 329.97 108.106V108.508H324.706V108.106C325.391 107.87 325.313 107.229 325.313 105.286V100.76H319.187V105.286C319.187 107.229 319.086 107.87 319.794 108.106V108.508H314.504V108.106C315.847 107.773 315.644 107.229 315.644 105.286V95.2165C315.644 93.3936 315.721 92.4449 314.504 92.2312V91.8265H319.794V92.2312C319.086 92.4449 319.187 93.3936 319.187 95.2165V100.287H325.313V95.2165C325.313 93.3936 325.413 92.4449 324.706 92.2312V91.8265H329.97V92.2312C328.782 92.4449 328.856 93.3936 328.856 95.2165ZM343.237 106.876L343.667 107.041C343.463 107.799 342.3 108.725 340.705 108.725C340.705 108.725 338.451 108.725 338.173 106.805C337.792 107.847 336.3 108.725 334.501 108.725C334.501 108.725 331.591 108.725 331.591 106.309C331.591 103.725 333.716 103.489 338.147 102.447V100.977C338.147 98.5126 336.678 97.279 334.931 98.1337C334.12 98.5126 334.02 98.9141 334.198 98.94C334.579 98.9885 334.908 99.1537 335.134 99.4613C335.589 100.076 335.412 100.905 334.753 101.333C334.094 101.734 333.209 101.592 332.754 100.977C332.45 100.526 332.424 99.9566 332.676 99.5551C332.928 99.1504 333.258 98.5126 334.65 97.8262C335.79 97.2563 337.104 97.3534 337.104 97.3534C340.421 97.3534 341.332 99.2961 341.332 102.094V105.626C341.332 105.626 341.306 107.284 342.546 107.284C342.546 107.284 343.079 107.284 343.231 106.882L343.237 106.876ZM338.147 102.871C335.667 103.392 334.831 104.506 334.831 105.713C334.831 105.713 334.83 107.277 336.478 107.277C337.337 107.277 337.921 106.636 338.147 106.07V102.871ZM355.69 105.668C355.335 106.876 353.817 108.725 350.652 108.725C347.487 108.725 345.084 105.762 345.084 102.99C345.084 100.219 347.313 97.3502 351.64 97.3502C353.439 97.3502 354.528 98.0366 354.957 98.3928C355.387 98.7489 355.642 99.4127 355.464 99.9793C355.212 100.808 354.298 101.352 353.387 101.116C352.477 100.902 351.944 100.025 352.199 99.1958C352.299 98.7457 352.603 98.4381 352.984 98.2471C353.213 98.1532 352.654 97.7484 351.644 97.7484C350.733 97.7484 348.275 98.4834 348.275 102.56C348.275 105.118 349.745 106.254 351.492 106.61C352.758 106.873 354.757 106.232 355.338 105.451L355.693 105.665L355.69 105.668ZM361.92 108.109V108.511H356.704V108.109C357.667 107.85 357.718 106.853 357.718 105.645V93.6558C357.718 92.827 357.466 92.4708 356.452 92.1146V91.7131L360.883 90.8357V105.645C360.883 106.95 361.009 107.896 361.92 108.109ZM370.046 108.109V108.511H366.477C364.73 108.511 364.504 108.084 362.805 105.717C362.046 104.674 361.387 103.725 361.387 103.725L363.767 101.31C363.767 101.31 367.388 97.8747 364.097 97.9686V97.5671H370.249V97.9686C369.794 98.0172 367.21 98.0884 363.845 101.974C367.591 106.924 367.643 106.924 367.643 106.924C368.479 108.016 369.616 108.087 370.049 108.109H370.046ZM383.083 106.879L383.513 107.044C383.309 107.802 382.147 108.728 380.551 108.728C380.551 108.728 378.297 108.728 378.019 106.808C377.638 107.85 376.146 108.728 374.347 108.728C374.347 108.728 371.437 108.728 371.437 106.312C371.437 103.729 373.563 103.492 377.993 102.45V100.98C377.993 98.5158 376.524 97.2822 374.777 98.137C373.966 98.5158 373.866 98.9173 374.044 98.9432C374.425 98.9918 374.754 99.1569 374.98 99.4645C375.436 100.08 375.258 100.909 374.599 101.336C373.94 101.737 373.055 101.595 372.6 100.98C372.297 100.53 372.271 99.9599 372.523 99.5584C372.775 99.1537 373.104 98.5158 374.496 97.8294C375.636 97.2595 376.95 97.3567 376.95 97.3567C380.267 97.3567 381.178 99.2994 381.178 102.097V105.629C381.178 105.629 381.152 107.287 382.392 107.287C382.392 107.287 382.925 107.287 383.077 106.886L383.083 106.879ZM377.993 102.874C375.513 103.395 374.677 104.509 374.677 105.717C374.677 105.717 374.677 107.281 376.324 107.281C377.183 107.281 377.767 106.64 377.993 106.073V102.874ZM392.12 106.215L392.501 106.429C391.994 107.543 390.45 108.728 388.754 108.728C386.755 108.728 385.564 107.97 385.564 105.102V97.9686H384.298L384.22 97.5671H385.56V94.3941L388.725 93.8954V97.5671H391.738L391.638 97.9686H388.729V105.03C388.729 106.358 389.336 107.044 390.602 107.044C391.335 107.044 391.893 106.572 392.12 106.215ZM406.042 108.109V108.511H400.852V108.109C401.815 107.85 401.866 106.805 401.866 105.597V101.119C401.866 99.7688 401.208 99.1278 399.741 99.1278C399.031 99.1278 398.172 99.6005 397.639 100.549V105.597C397.639 106.899 397.765 107.87 398.676 108.084V108.511H393.46V108.084C394.422 107.825 394.474 106.805 394.474 105.597V93.6558C394.474 92.827 394.222 92.5906 393.208 92.2344V91.8297L397.639 90.8357V99.9113C398.12 98.655 400.245 97.3534 401.815 97.3534C403.84 97.3534 405.005 98.1823 405.005 101.025V105.597C405.005 106.899 405.157 107.896 406.042 108.109ZM419.587 103.039C419.587 106.144 417.436 108.725 413.561 108.725C409.685 108.725 407.534 106.141 407.534 103.039C407.534 99.9372 409.711 97.3534 413.561 97.3534C417.41 97.3534 419.587 99.9113 419.587 103.039ZM415.841 103.039C415.841 98.7489 415.385 97.7549 413.564 97.7549C411.742 97.7549 411.261 98.7489 411.261 103.039C411.261 107.329 411.742 108.323 413.564 108.323C415.385 108.323 415.841 107.329 415.841 103.039ZM433.716 108.109V108.511H428.5V108.109C429.463 107.85 429.515 106.831 429.515 105.623V101.025C429.515 99.8886 428.73 99.0598 427.464 99.0598C426.476 99.0598 425.313 100.054 425.313 101.002V105.671C425.313 106.976 425.465 107.873 426.35 108.113V108.514H421.16V108.113C422.122 107.854 422.148 106.882 422.148 105.671V100.316C422.148 99.4872 421.919 99.2249 420.882 98.7036V98.3021L425.313 97.3534V99.8886C425.894 98.4446 427.897 97.3534 429.489 97.3534C431.462 97.3534 432.679 98.0884 432.679 100.954V105.623C432.679 106.924 432.805 107.896 433.716 108.109ZM450.113 108.262V108.663H442.491V108.262C443.528 108.262 444.897 108.168 444.897 106.413V96.1522C444.897 94.0185 442.543 95.5823 442.543 95.5823L442.291 95.2035L447.229 91.7682H448.039V106.41C448.039 108.236 449.228 108.258 450.116 108.258L450.113 108.262ZM457.783 108.877C455.832 108.877 454.414 108.521 453.226 107.692C452.693 107.336 452.415 106.555 452.593 105.869C452.822 104.875 453.885 104.256 454.921 104.496C455.984 104.732 456.643 105.704 456.391 106.698C456.265 107.196 455.961 107.527 455.58 107.74C455.328 107.834 455.732 108.475 457.757 108.475C460.341 108.475 460.87 106.319 460.667 104.376C460.567 103.525 459.782 100.941 455.858 100.442V100.041C460.085 98.8104 459.556 95.7054 458.112 94.6142C456.972 93.7368 454.44 93.8566 453.478 95.7054L453.074 95.6115C453.63 91.7747 457.579 91.7747 457.579 91.7747C461.148 91.7747 464.365 95.3298 460.085 99.1893C462.314 100.232 463.606 101.724 463.706 103.169C463.984 107.41 460.363 108.88 457.783 108.88V108.877ZM473.721 106.364L474.102 106.578C473.595 107.692 472.051 108.877 470.355 108.877C468.356 108.877 467.165 108.119 467.165 105.25V98.1176H465.899L465.821 97.7161H467.161V94.543L470.326 94.0444V97.7161H473.34L473.239 98.1176H470.33V105.179C470.33 106.507 470.937 107.193 472.203 107.193C472.936 107.193 473.495 106.72 473.721 106.364ZM487.643 108.258V108.66H482.453V108.258C483.416 107.999 483.467 106.954 483.467 105.746V101.268C483.467 99.9178 482.809 99.2767 481.342 99.2767C480.635 99.2767 479.773 99.7494 479.24 100.698V105.746C479.24 107.051 479.366 108.022 480.277 108.233V108.66H475.061V108.233C476.023 107.97 476.075 106.954 476.075 105.746V93.8048C476.075 92.9759 475.823 92.7395 474.809 92.3834V91.9819L479.24 90.9879V100.063C479.721 98.8072 481.846 97.5056 483.416 97.5056C485.441 97.5056 486.607 98.3345 486.607 101.177V105.749C486.607 107.054 486.758 108.048 487.643 108.262V108.258Z" fill="url(#paint0_linear_1016_1024)"/>
<path d="M442.93 61.0122V79.5455L436.148 81.255V77.0135H418.802L416.383 75.0287H436.148V62.916H414.716V81.9026L413.134 78.3345C412.507 76.9196 410.864 75.7475 409.539 74.9963L407.938 74.0865V58.9529L414.994 60.9312H435.486L442.933 61.0122H442.93ZM404.876 27.3841C408.454 29.288 412.698 29.3948 416.686 28.825C420.678 28.2551 424.563 27.0539 428.555 26.4873C432.395 25.9401 436.316 25.9822 440.143 26.6168C441.929 26.9114 443.74 27.3356 445.526 27.0474C446.537 26.8855 447.532 26.4387 448.294 25.7296C448.875 25.1889 449.282 23.7092 450.219 24.2758C450.784 24.6158 455.735 29.8028 455.829 29.7089C452.147 32.0757 448.779 34.9574 445.849 38.2503C445.572 38.0592 445.294 37.865 445.016 37.6739C445.22 36.1522 445.426 34.6271 445.63 33.1054C440.466 30.2172 434.342 26.7592 428.5 27.4359C425.558 27.7791 423.013 31.4962 420.129 32.1826C417.245 32.869 414.138 32.0498 411.3 31.1821C410.389 30.9036 409.527 30.5054 408.697 30.0327C407.36 29.2718 406.106 28.3231 404.873 27.3841H404.876ZM417.478 15.7183C419.671 17.104 424.286 21.8572 426.582 27.4392C432.376 21.8118 433.319 22.3234 432.172 21.7568C429.847 20.6041 426.74 19.3673 417.478 15.7183ZM459.359 57.7743L457.085 58.7748C457.085 58.7748 450.012 58.1143 449.253 63.2916C449.253 63.2916 433.341 60.112 426.214 53.3741C426.214 53.3741 409.271 62.44 394.057 64.9817L394.719 64.5997C394.719 64.5997 412.194 59.0112 422.693 50.2885C422.693 50.2885 417.203 44.891 416.037 41.9382C416.037 41.9382 405.993 50.1849 398.846 53.0342L398.436 52.487C398.436 52.487 413.299 44.0104 417.91 30.2302L424.87 33.6687C424.87 33.6687 424.228 34.9801 422.073 34.6271L420.342 37.0231H434.388L437.834 33.0179L445.029 39.4968C445.029 39.4968 443.382 39.8012 440.86 39.9242C440.86 39.9242 435.686 46.9503 430.906 49.9226C430.906 49.9226 441.535 56.5893 459.355 57.784L459.359 57.7743ZM433.131 38.6582H419.364C418.627 39.4806 418.876 39.3414 418.137 40.0991C420.103 42.372 423.194 45.5159 425.959 47.1575C428.901 44.3147 431.035 42.0903 433.131 38.6582ZM404.424 23.7707C403.416 26.1764 399.308 32.4546 394.06 36.1943L397.27 36.3659C398.737 36.2881 400.167 36.8418 401.22 37.8973L402.105 38.7813C402.854 36.3238 403.62 33.5587 405.648 24.0459M242.591 33.2478L241.806 33.9569C241.661 34.0897 241.503 34.2127 241.338 34.3196C240.056 35.1679 239.975 35.1938 237.362 36.4921L235.192 37.402C239.659 31.8426 241.015 26.9147 242.488 19.1309L252.822 20.4779C252.561 21.1902 251.472 21.4104 249.654 21.3294C248.798 23.3369 247.807 25.0529 246.605 27.1316L263.321 27.3194L266.283 23.9164C266.283 23.9164 267.882 25.8462 270.385 27.954C270.262 28.6598 269.503 28.9998 268.595 29.0257L245.892 29.0063C245.168 30.1816 244.296 31.3569 243.566 32.2344C243.266 32.5938 242.937 32.9338 242.591 33.2478ZM236.242 69.165C236.507 69.165 236.775 69.1488 237.049 69.0905C237.45 69.0031 237.856 68.8574 238.173 68.5887C238.283 68.498 238.412 68.4106 238.489 68.2843C238.573 68.1451 238.59 67.9767 238.59 67.8181V40.6204C238.59 38.7877 237.944 37.5347 237.42 36.8159C240.098 39.5648 245.336 40.7693 245.336 40.7693L245.259 47.504C248.101 41.9349 250.306 36.9778 258.325 36.9195C266.344 36.8612 268.201 43.5894 268.201 43.5894L267.746 68.4462L268.744 68.4689L270.485 67.2191L272.904 69.2557C272.887 69.696 272.513 70.0457 272.057 70.0457H267.61C267.391 72.7428 263.764 76.217 260.767 77.9363C260.767 77.9363 259.262 78.749 258.396 78.9335C258.277 78.9594 257.996 78.9659 257.67 78.9594C256.966 78.94 256.275 78.7781 255.648 78.4705C255.112 78.2082 254.421 77.797 253.73 77.1851C252.622 76.204 251.705 74.5398 251.278 73.1508L250.865 75.1161C250.658 76.0972 249.88 76.8743 248.869 77.0977L248.178 77.2531C249.092 78.8688 250.151 80.0991 250.959 80.8276C251.941 81.7148 253.872 83.1589 255.503 83.4438C257.285 83.7546 258.306 83.4373 259.071 82.7444C259.824 82.0645 260.58 79.9826 260.799 77.6643C260.954 76.0227 261.142 70.0522 261.142 70.0522H248.114L240.763 70.2529C232.899 70.7418 231.071 67.6044 231.071 67.6044C231.698 68.0998 232.337 68.5142 233.106 68.7473C233.794 68.9545 235.176 69.165 236.245 69.1747L236.242 69.165ZM246.328 66.6881C247.703 68.566 250.794 68.1742 253.362 68.3232C255.929 68.4721 261.083 68.3491 261.083 68.3491C261.335 60.5524 261.235 53.9375 261.484 46.1441C261.532 44.6223 261.571 43.0487 260.912 41.6338C258.461 36.3659 250.675 40.3257 248.217 43.4599C246.26 45.9563 245.459 49.0063 245.213 52.0143C244.968 55.0222 245.239 58.0398 245.223 61.0543C245.22 61.9511 245.197 62.8771 245.294 63.774C245.407 64.8134 245.682 65.8139 246.324 66.6913L246.328 66.6881ZM234.088 54.5365H268.741L270.995 52.7525L273.688 55.5953C273.688 56.3108 271.809 56.3691 271.014 56.3691H234.088V54.5365ZM227.27 44.4021V69.6215C227.27 70.0522 227.186 70.5605 227.112 70.9814C226.492 74.4977 223.472 78.4219 220.255 79.9696C203.865 86.0438 211.238 60.792 211.238 60.792C213.628 54.611 214.433 49.9744 220.32 40.86C220.41 40.7207 220.32 37.9751 220.32 37.8034H212.708C211.91 37.8034 211.61 37.9848 211.61 37.9848C211.694 37.0134 208.623 33.8371 208.623 33.8371C209.478 34.6174 210.502 35.1841 211.248 35.537C211.852 35.8219 212.498 35.9611 213.15 35.9611H220.333V20.9441C220.333 20.8632 220.31 20.7369 220.333 20.6592L222.332 22.1615C222.623 22.3785 222.939 22.5501 223.272 22.6666L226.75 23.3498L227.27 35.9352L226.96 35.9579L229.482 32.011C229.482 32.011 231.875 34.7469 233.558 36.7835C233.39 37.4829 232.886 37.8034 232.101 37.8034L227.27 37.7808V44.4021ZM220.365 46.9794C220.365 46.9794 219.448 48.0285 219.267 48.2163C218.46 49.0614 217.746 50.1007 217.042 51.0559C215.634 52.9694 214.439 55.0837 213.467 57.321C212.924 58.5676 212.453 59.853 212.052 61.1676C211.012 64.5673 210.441 68.158 210.36 71.7553C210.328 73.2738 210.376 74.8118 210.773 76.2623C211.171 77.7128 211.943 79.076 213.092 79.8498C214.307 80.6722 215.802 80.7596 217.207 80.6075C218.114 80.5103 219.093 80.2707 219.687 79.4839C220.304 78.6648 220.333 77.4862 220.333 76.4112C220.333 74.0185 220.333 71.6257 220.33 69.2298C220.326 62.9322 220.323 56.6346 220.32 50.3338L220.365 46.9794ZM256.452 46.7075C256.921 47.3129 256.927 48.1386 256.778 48.8736C256.433 50.5799 255.364 52.0855 254.095 53.3418C254.269 51.8815 253.798 50.3921 252.961 49.1553C252.803 48.9221 252.632 48.6955 252.451 48.4785C252.018 47.9573 251.527 47.4845 250.998 47.0539C250.733 46.837 250.458 46.633 250.174 46.4355C250.096 46.3804 249.761 46.1473 249.761 46.1473C249.761 46.1473 250.2 46.0113 250.287 45.9951C251.724 45.7361 253.093 45.5095 254.55 45.7555C254.834 45.8041 255.125 45.8753 255.393 45.9757C255.81 46.1344 256.187 46.3675 256.449 46.7075H256.452ZM255.971 59.8789C256.439 60.4844 256.446 61.31 256.297 62.045C255.952 63.7514 254.883 65.2569 253.613 66.5132C253.788 65.053 253.316 63.5636 252.48 62.3267C252.322 62.0936 252.15 61.8669 251.97 61.65C251.537 61.1287 251.046 60.656 250.516 60.2254C250.251 60.0084 249.977 59.8045 249.693 59.6069C249.615 59.5519 249.279 59.3188 249.279 59.3188C249.279 59.3188 249.719 59.1828 249.806 59.1666C251.243 58.9076 252.612 58.6809 254.069 58.927C254.353 58.9756 254.644 59.0468 254.912 59.1472C255.328 59.3058 255.706 59.5389 255.968 59.8789H255.971ZM228.129 42.1324C232.44 47.1089 233.887 48.7894 234.947 50.2529C235.47 50.9749 234.046 52.4578 230.593 56.4922C229.992 48.8444 229.101 46.6589 228.129 45.0108V42.1324ZM502.257 24.3632C503.587 36.0647 506.849 45.4415 513.505 52.011C514.171 49.615 516.166 47.3583 518.563 46.5359L518.695 45.7134C511.173 41.3327 506.116 32.9176 503.985 24.3632H502.254H502.257ZM507.721 73.3483C499.269 74.1707 491.347 74.8539 486.358 75.1258C491.683 68.4883 497.606 58.4964 500.8 51.3796C502.131 51.4476 502.928 50.9004 503.197 50.2173L494.344 46.2477C492.746 54.2548 487.556 68.6923 483.696 74.3747C483.164 74.9218 481.568 75.401 481.568 75.401L484.43 83.201C485.163 82.9257 485.828 82.3106 486.361 81.4234C495.145 79.1634 502.867 76.9746 508.457 75.2651M481.165 51.0688C486.955 45.8009 492.578 36.7382 495.375 27.0895C496.838 27.0895 497.638 26.4743 497.903 25.6519L489.119 23.3239C487.989 32.7686 483.897 43.1977 480.302 49.6992M501.149 61.4007C503.242 64.441 507.263 73.8987 508.603 83.9618C513.786 77.9719 518.75 81.3748 517.626 80.0473C515.343 77.3502 510.437 70.5734 501.146 61.4007M474.079 45.3735V70.5929C474.079 71.0235 473.995 71.5318 473.921 71.9528C473.301 75.469 470.281 79.3933 467.064 80.941C450.674 87.0151 458.047 61.7633 458.047 61.7633C460.437 55.5823 461.241 50.9458 467.129 41.8313C467.219 41.6921 467.129 38.9464 467.129 38.7748H459.517C458.719 38.7748 458.419 38.9561 458.419 38.9561C458.503 37.9848 455.431 34.8085 455.431 34.8085C456.287 35.5888 457.311 36.1554 458.057 36.5083C458.661 36.7932 459.307 36.9325 459.959 36.9325H467.142V21.9155C467.142 21.8345 467.119 21.7082 467.142 21.6305L469.141 23.1329C469.432 23.3498 469.748 23.5214 470.081 23.638L473.559 24.3212L474.079 36.9066L473.769 36.9292L476.291 32.9823C476.291 32.9823 478.684 35.7183 480.367 37.7549C480.199 38.4543 479.695 38.7748 478.91 38.7748L474.079 38.7521V45.3735ZM467.174 47.9508C467.174 47.9508 466.257 48.9998 466.076 49.1876C465.269 50.0327 464.555 51.072 463.851 52.0272C462.443 53.9408 461.248 56.0551 460.276 58.2924C459.733 59.539 459.262 60.8244 458.861 62.1389C457.821 65.5386 457.25 69.1294 457.169 72.7266C457.137 74.2451 457.185 75.7831 457.582 77.2337C457.98 78.6842 458.751 80.0473 459.901 80.8212C461.115 81.6436 462.611 81.731 464.016 81.5788C464.923 81.4817 465.902 81.2421 466.496 80.4553C467.113 79.6361 467.142 78.4575 467.142 77.3826C467.142 74.9898 467.142 72.5971 467.139 70.2011C467.135 63.9035 467.132 57.606 467.129 51.3052L467.174 47.9508ZM475.19 45.7134C476.162 47.3615 477.053 49.547 477.654 57.1948C481.106 53.1604 482.531 51.6775 482.007 50.9555C480.948 49.492 479.501 47.8116 475.19 42.835V45.7134ZM286.035 38.8784H302.373C303.232 38.8784 303.911 38.5708 304.095 37.8909C301.637 35.605 297.461 32.2053 297.461 32.2053L293.899 37.1494H287.02C288.803 33.8112 290.398 30.1039 291.751 26.0858C293.163 26.0858 293.902 25.5904 294.148 24.7259L284.197 22.0676C282.415 33.2543 281.216 40.1509 276.918 47.4424L277.654 47.9378C281.953 44.4766 282.967 44.3179 286.038 38.8784H286.035ZM327.754 32.079L324.008 37.1462H313.134C315.101 33.8695 316.819 30.2852 318.356 26.3318C319.832 26.3318 320.569 25.7749 320.814 25.0335L310.557 21.9446C308.59 32.8852 307.024 39.4709 302.418 46.4549L303.155 46.9503C307.576 43.7351 308.774 43.9488 312.091 38.8784H332.731C333.59 38.8784 334.268 38.5708 334.452 37.8909C331.933 35.5434 327.758 32.0822 327.758 32.0822L327.754 32.079ZM315.653 71.8168C314.242 71.8168 307.789 71.3829 307.789 71.3829V72.1859C311.045 72.7428 312.459 73.6073 313.38 74.7211C314.3 75.8349 314.668 77.6869 314.73 80.0376C323.084 79.4192 324.312 75.8964 324.312 70.8908V41.582L323.304 41.8216C321.515 42.249 319.635 41.6921 318.36 40.3581L316.939 38.8719V70.6382C316.939 71.3797 316.632 71.8135 315.65 71.8135L315.653 71.8168ZM287.078 80.478V40.8308L288.573 42.0288C289.904 43.0941 291.758 43.2009 293.198 42.2911L294.509 41.4622V80.4812M372.807 71.8265L364.91 66.8532C366.942 69.369 368.766 78.0625 367.329 81.5626L368.198 81.1158C369.664 80.1088 370.756 79.1148 371.563 78.1888C373.391 76.1004 375.019 73.4357 372.807 71.8265ZM374.573 37.58C375.261 37.2368 375.926 36.722 376.143 35.987C376.265 35.5726 376.233 35.1387 376.117 34.721C376.039 34.4491 375.93 34.1836 375.8 33.9342C375.145 32.6618 374.153 31.7487 373.097 30.8033C373.033 30.745 372.664 30.4924 372.664 30.4924C372.664 30.4924 372.674 30.8972 372.674 30.9878C372.681 31.3278 372.674 31.6645 372.655 32.0045C372.616 32.678 372.519 33.3514 372.351 34.0055C372.28 34.2807 372.196 34.5527 372.099 34.8182C371.583 36.2266 370.649 37.5153 369.361 38.2826C371.127 38.4834 372.981 38.3701 374.573 37.58ZM356.811 34.8182C356.714 34.5527 356.63 34.2807 356.559 34.0055C356.391 33.3514 356.294 32.678 356.255 32.0045C356.236 31.6678 356.229 31.3278 356.236 30.9878C356.236 30.8939 356.245 30.4924 356.245 30.4924C356.245 30.4924 355.877 30.745 355.813 30.8033C354.76 31.7487 353.765 32.6618 353.11 33.9342C352.98 34.1836 352.871 34.4491 352.793 34.721C352.677 35.1387 352.644 35.5726 352.767 35.987C352.987 36.722 353.649 37.2401 354.337 37.58C355.929 38.3701 357.783 38.4834 359.549 38.2826C358.261 37.512 357.327 36.2266 356.811 34.8182ZM373.029 68.6308C383.806 69.7575 384.152 77.4312 385.263 81.4882L385.431 81.0575C386.08 79.4127 387.268 78.1856 388.764 77.5056C389.568 77.1398 390.437 76.9746 391.309 76.9649L393.986 76.9261C389.142 73.3645 385.221 68.2746 374.977 68.4171L373.026 68.6308H373.029ZM356.145 68.7732C356.123 68.757 356.1 68.7376 356.074 68.7214C354.889 67.8375 353.646 66.9665 352.247 67.9702C351.656 68.3944 351.207 68.9966 350.697 69.5276C349.273 71.0106 347.39 72.1373 345.426 72.2992C343.385 72.4708 343.111 72.0887 340.64 70.5605C343.014 73.1475 341.648 75.9579 335.986 77.7517C338.315 78.5644 344.17 79.5131 346.276 78.192C348.381 76.871 349.793 74.2063 350.855 71.8524C351.469 70.4893 352.07 68.8088 353.642 68.7506C354.346 68.7247 355.018 69.0711 355.503 69.6151C357.017 71.3117 357.421 73.7498 357.198 76.0259C357.011 77.9589 356.242 79.7397 354.912 81.0996C354.821 81.1935 354.724 81.2842 354.631 81.3748C355.05 81.1093 355.58 80.9766 356.026 80.7629C356.497 80.5362 356.962 80.2902 357.415 80.0247C358.319 79.4904 359.181 78.8752 359.985 78.1888C360.547 77.7064 361.132 77.2142 361.493 76.5408C361.803 75.9644 361.807 75.3298 361.678 74.6952C361.448 73.5652 360.143 72.4417 359.23 71.5837C358.209 70.622 357.25 69.6053 356.142 68.7732H356.145ZM385.88 58.0722C385.554 57.8035 385.076 57.8585 384.817 58.192L381.003 62.1778C380.858 62.3656 380.638 62.4724 380.402 62.4692L368.069 62.3008V54.9121L385.489 55.0869C385.993 55.0869 387.401 54.8376 387.078 54.012C387.01 53.8404 386.884 53.6947 386.745 53.5716C385.076 52.1081 383.451 50.8681 382.305 49.9647C382.153 49.8287 381.765 49.7219 381.565 49.7316C381.181 49.751 380.793 50.1201 380.483 50.3209C380.031 50.6123 379.582 50.9037 379.13 51.1951L376.427 52.9435C375.829 53.3288 375.245 53.2381 374.57 53.2252C373.937 53.2122 373.304 53.1961 372.671 53.1831C371.502 53.1572 370.333 53.1313 369.167 53.1054L368.066 53.0827V45.8235H379.03V47.6885C379.03 47.8666 379.107 48.0382 379.24 48.1548C379.543 48.4203 381.352 48.3685 382.831 47.9184C383.354 47.7598 383.874 47.5881 384.381 47.3745C384.636 47.2676 384.888 47.151 385.134 47.0248C385.24 46.9697 385.344 46.9147 385.444 46.8532C385.508 46.8143 385.625 46.7657 385.67 46.701C385.822 46.5844 385.912 46.4031 385.912 46.2088V29.3786C385.912 26.5553 386.361 24.4086 381.907 24.3697H378.649C376.278 24.373 373.905 24.3924 371.534 24.3632C370.901 24.3568 356.604 24.373 355.683 24.373H349.593L346.86 24.3632C342.739 24.3632 342.856 26.6686 342.856 29.67V49.887H344.034C347.109 49.887 350.083 48.2972 350.083 47.6432V45.8138L360.977 45.7523V53.0083L344.399 53.0763L344.987 54.9056L360.977 54.8376V61.6112C360.977 61.9511 360.705 62.2296 360.37 62.2296L338.38 62.2943L338.903 64.1917L390.853 64.3665C391.793 64.3665 392.526 64.0233 392.701 63.2624C390.311 61.3392 387.23 59.1828 385.88 58.0625V58.0722ZM368.269 26.2768H379.03V43.9294H368.269V26.2768ZM360.88 43.9262H350.083V26.2736L360.131 26.28H360.88V43.9294V43.9262Z" fill="url(#paint1_linear_1016_1024)"/>
<g filter="url(#filter0_d_1016_1024)">
<path d="M48.9727 14.1803C48.9921 20.3742 43.9992 25.409 37.821 25.4285C31.6429 25.4479 26.621 20.4422 26.6016 14.2483C26.5822 8.0543 31.5751 3.01948 37.7532 3.00006C43.9314 2.98063 48.9533 7.9863 48.9727 14.1803ZM92.113 101.456C90.5499 85.6843 88.7866 69.4369 81.1907 55.5402C76.1494 46.3189 68.4824 38.3797 58.9617 33.9763C49.4345 29.5696 35.8672 28.2162 26.7372 34.3551C17.5911 40.5038 11.2935 50.7482 10.0921 61.7406C8.81642 73.3968 13.3249 85.5451 21.8864 93.5328C23.6756 95.2035 25.8362 97.3372 25.1031 99.6782C24.4991 101.608 22.2417 102.398 20.2652 102.793C14.5909 103.926 8.71308 104.036 3 103.12C19.4061 109.217 39.0838 105.286 51.9051 93.3515C46.3794 86.4225 40.8568 79.4936 35.3311 72.5647C35.6379 74.611 35.9447 76.6994 35.5894 78.7392C35.2342 80.779 34.1038 82.7962 32.2307 83.6704C30.2962 84.5737 27.8902 84.0589 26.2269 82.7152C24.5637 81.3715 23.5819 79.3252 23.1492 77.2304C21.7185 70.3079 26.0461 63.1782 31.982 59.3608C39.917 54.258 50.3969 54.0702 59.1522 57.58C67.9043 61.0898 75.0319 67.9378 80.2671 75.7992C85.5022 83.6574 88.9998 92.5388 92.1163 101.462L92.113 101.456Z" fill="url(#paint2_linear_1016_1024)"/>
</g>
<g filter="url(#filter1_d_1016_1024)">
<path d="M172.058 31.7292C163.955 27.3808 155.781 26.5746 146.66 25.6777C141.199 25.1402 133.129 24.7776 118.854 24.7582L142.397 55.6988C142.084 53.1992 141.777 50.6187 142.465 48.1935C143.153 45.7716 145.097 43.5214 147.603 43.298C150.226 43.0616 152.577 45.0755 153.862 47.3776C157.276 53.4971 154.96 61.6823 149.861 66.4775C144.761 71.2727 137.54 73.1733 130.555 73.5133C119.797 74.0378 108.739 71.1173 100.2 64.5381C92.0325 58.2437 85.9739 49.3656 85.3183 38.2502C83.4807 45.7393 85.5121 55.2131 88.7642 64.1333C91.9324 72.8172 97.1126 80.779 103.84 87.1154C114.4 97.0652 129.725 103.175 143.615 99.0371C156.72 95.1322 166.193 82.4691 168.289 68.9253C170.071 57.3922 165.508 47.3841 159.21 37.7807C157.622 35.3556 157.47 32.7588 158.216 31.577C159.353 29.7703 162.782 29.4983 167.049 30.3272L172.061 31.7324L172.058 31.7292Z" fill="url(#paint3_linear_1016_1024)"/>
</g>
<defs>
<filter id="filter0_d_1016_1024" x="0" y="0" width="109.116" height="122.96" filterUnits="userSpaceOnUse" color-interpolation-filters="sRGB">
<feFlood flood-opacity="0" result="BackgroundImageFix"/>
<feColorMatrix in="SourceAlpha" type="matrix" values="0 0 0 0 0 0 0 0 0 0 0 0 0 0 0 0 0 0 127 0" result="hardAlpha"/>
<feOffset dx="7" dy="7"/>
<feGaussianBlur stdDeviation="5"/>
<feColorMatrix type="matrix" values="0 0 0 0 0.878431 0 0 0 0 0.627451 0 0 0 0 0.713726 0 0 0 0.24 0"/>
<feBlend mode="normal" in2="BackgroundImageFix" result="effect1_dropShadow_1016_1024"/>
<feBlend mode="normal" in="SourceGraphic" in2="effect1_dropShadow_1016_1024" result="shape"/>
</filter>
<filter id="filter1_d_1016_1024" x="81.623" y="21.7582" width="107.438" height="95.5905" filterUnits="userSpaceOnUse" color-interpolation-filters="sRGB">
<feFlood flood-opacity="0" result="BackgroundImageFix"/>
<feColorMatrix in="SourceAlpha" type="matrix" values="0 0 0 0 0 0 0 0 0 0 0 0 0 0 0 0 0 0 127 0" result="hardAlpha"/>
<feOffset dx="7" dy="7"/>
<feGaussianBlur stdDeviation="5"/>
<feColorMatrix type="matrix" values="0 0 0 0 0.878431 0 0 0 0 0.627451 0 0 0 0 0.713726 0 0 0 0.24 0"/>
<feBlend mode="normal" in2="BackgroundImageFix" result="effect1_dropShadow_1016_1024"/>
<feBlend mode="normal" in="SourceGraphic" in2="effect1_dropShadow_1016_1024" result="shape"/>
</filter>
<linearGradient id="paint0_linear_1016_1024" x1="220.759" y1="99.9307" x2="487.647" y2="99.9307" gradientUnits="userSpaceOnUse">
<stop stop-color="#EAD4DA"/>
<stop offset="0.12" stop-color="#B6AFC7" stop-opacity="0.95"/>
<stop offset="0.25" stop-color="#878EB6" stop-opacity="0.9"/>
<stop offset="0.36" stop-color="#6476AA" stop-opacity="0.87"/>
<stop offset="0.44" stop-color="#4F67A2" stop-opacity="0.85"/>
<stop offset="0.5" stop-color="#4862A0" stop-opacity="0.84"/>
<stop offset="0.56" stop-color="#4E66A2" stop-opacity="0.85"/>
<stop offset="0.64" stop-color="#5E72A8" stop-opacity="0.86"/>
<stop offset="0.73" stop-color="#7A85B2" stop-opacity="0.89"/>
<stop offset="0.84" stop-color="#A1A0BF" stop-opacity="0.93"/>
<stop offset="0.95" stop-color="#D2C3D1" stop-opacity="0.98"/>
<stop offset="1" stop-color="#EAD4DA"/>
</linearGradient>
<linearGradient id="paint1_linear_1016_1024" x1="210.134" y1="48.893" x2="520.207" y2="48.893" gradientUnits="userSpaceOnUse">
<stop stop-color="#EAD4DA"/>
<stop offset="0.07" stop-color="#C6BBCD" stop-opacity="0.97"/>
<stop offset="0.17" stop-color="#999BBD" stop-opacity="0.92"/>
<stop offset="0.27" stop-color="#7682B0" stop-opacity="0.89"/>
<stop offset="0.36" stop-color="#5C70A7" stop-opacity="0.86"/>
<stop offset="0.44" stop-color="#4D65A1" stop-opacity="0.85"/>
<stop offset="0.5" stop-color="#4862A0" stop-opacity="0.84"/>
<stop offset="0.57" stop-color="#4C64A1" stop-opacity="0.84"/>
<stop offset="0.65" stop-color="#586DA5" stop-opacity="0.86"/>
<stop offset="0.73" stop-color="#6C7BAD" stop-opacity="0.88"/>
<stop offset="0.81" stop-color="#898FB7" stop-opacity="0.9"/>
<stop offset="0.89" stop-color="#AEA9C4" stop-opacity="0.94"/>
<stop offset="0.97" stop-color="#DAC9D4" stop-opacity="0.98"/>
<stop offset="1" stop-color="#EAD4DA"/>
</linearGradient>
<linearGradient id="paint2_linear_1016_1024" x1="1.06227" y1="64.9785" x2="80.2827" y2="49.1072" gradientUnits="userSpaceOnUse">
<stop stop-color="white" stop-opacity="0.22"/>
<stop offset="0.09" stop-color="#FAEDF1" stop-opacity="0.31"/>
<stop offset="0.22" stop-color="#F4D2DD" stop-opacity="0.46"/>
<stop offset="0.6" stop-color="#E2A6B4" stop-opacity="0.4"/>
<stop offset="1" stop-color="#D27E90" stop-opacity="0.35"/>
</linearGradient>
<linearGradient id="paint3_linear_1016_1024" x1="-749.3" y1="-650.947" x2="-687.335" y2="-594.308" gradientUnits="userSpaceOnUse">
<stop stop-color="#D27E90" stop-opacity="0.35"/>
<stop offset="0.41" stop-color="#E2A6B4" stop-opacity="0.4"/>
<stop offset="0.79" stop-color="#F4D2DD" stop-opacity="0.46"/>
<stop offset="0.91" stop-color="#FAEDF1" stop-opacity="0.31"/>
<stop offset="1" stop-color="white" stop-opacity="0.22"/>
</linearGradient>
</defs>
</svg>
