<svg xmlns="http://www.w3.org/2000/svg" viewBox="0 0 356.67 182"><defs><style>.cls-1{fill:#231815;}.cls-2{fill:#c30d23;}</style></defs><title>活動王</title><g id="圖層_3" data-name="圖層 3"><path class="cls-1" d="M44.89,160.5l-9.22,16.3h3.45l2-3.6h6.46l.54,3.6h3.18l-2.64-16.3Zm-2.64,10,3.93-6.57,1,6.57Z"/><path class="cls-1" d="M62.77,164a4.45,4.45,0,0,1,2.59-.85,3.08,3.08,0,0,1,2,.64,3.45,3.45,0,0,1,1,2.07l3.21-.32a5.79,5.79,0,0,0-1.92-3.86,6.33,6.33,0,0,0-4.28-1.42A8.22,8.22,0,0,0,57.94,165a11.41,11.41,0,0,0-1.13,5.08,7.35,7.35,0,0,0,1.69,5.23,6.08,6.08,0,0,0,4.67,1.8,7.63,7.63,0,0,0,4.64-1.45,8.69,8.69,0,0,0,3-4.2l-3.38-.51a5,5,0,0,1-1.62,2.5,3.76,3.76,0,0,1-2.39.85,3,3,0,0,1-2.34-1.07,4.46,4.46,0,0,1-.94-3,9.4,9.4,0,0,1,.73-3.59A5.63,5.63,0,0,1,62.77,164Z"/><polygon class="cls-1" points="76.11 163.23 80.89 163.23 78.05 176.8 81.41 176.8 84.24 163.23 88.96 163.23 89.52 160.5 76.68 160.5 76.11 163.23"/><polygon class="cls-1" points="90.35 176.8 93.71 176.8 97.12 160.5 93.77 160.5 90.35 176.8"/><polygon class="cls-1" points="106.17 172.83 104.1 160.5 100.75 160.5 103.67 176.8 107.25 176.8 116.24 160.5 112.92 160.5 106.17 172.83"/><polygon class="cls-1" points="116.43 176.8 119.79 176.8 123.19 160.5 119.84 160.5 116.43 176.8"/><polygon class="cls-1" points="126.98 163.23 131.76 163.23 128.91 176.8 132.27 176.8 135.11 163.23 139.82 163.23 140.39 160.5 127.54 160.5 126.98 163.23"/><path class="cls-1" d="M152.11,163.8,150.56,166c-.36.54-.68,1-1,1.54q-.24-.74-1-2.4l-2-4.6H143l4.5,9.95-1.33,6.35h3.35l1.27-6,7.47-10.26h-3.89Z"/><polygon class="cls-1" points="179.85 160.5 172.31 167.43 173.75 160.5 170.4 160.5 166.99 176.8 170.36 176.8 171.41 171.81 174.57 169.04 178.6 176.8 182.39 176.8 177.02 166.9 184.34 160.5 179.85 160.5"/><polygon class="cls-1" points="185.6 176.8 188.96 176.8 192.36 160.5 189.02 160.5 185.6 176.8"/><polygon class="cls-1" points="205.4 171.41 200.98 160.5 197.84 160.5 194.44 176.8 197.57 176.8 199.86 165.85 204.26 176.8 207.39 176.8 210.79 160.5 207.68 160.5 205.4 171.41"/><path class="cls-1" d="M220.29,163.78a5.57,5.57,0,0,1,3-.84,3.67,3.67,0,0,1,2.31.7,3.89,3.89,0,0,1,1.33,2.08l3.13-.36a6.35,6.35,0,0,0-2.27-3.82,7.22,7.22,0,0,0-4.53-1.32,8.37,8.37,0,0,0-4.91,1.45,9.25,9.25,0,0,0-3.23,4.07,11.32,11.32,0,0,0-.94,4.56,6.69,6.69,0,0,0,2.2,5.41,7,7,0,0,0,4.64,1.37,12.78,12.78,0,0,0,3.82-.58,12.52,12.52,0,0,0,3.16-1.41l1.47-7h-7.3l-.57,2.72h4.17l-.51,2.42a9.15,9.15,0,0,1-2,.73,8.31,8.31,0,0,1-2.22.31,3.57,3.57,0,0,1-2.73-1,4.29,4.29,0,0,1-.94-3,9.64,9.64,0,0,1,.77-3.86A5.6,5.6,0,0,1,220.29,163.78Z"/><path class="cls-1" d="M248.89,163.78a5.55,5.55,0,0,1,3-.84,3.67,3.67,0,0,1,2.31.7,4,4,0,0,1,1.33,2.08l3.12-.36a6.29,6.29,0,0,0-2.26-3.82,7.22,7.22,0,0,0-4.53-1.32,8.4,8.4,0,0,0-4.92,1.45,9.23,9.23,0,0,0-3.22,4.07,11.33,11.33,0,0,0-.95,4.56,6.72,6.72,0,0,0,2.2,5.41,7,7,0,0,0,4.64,1.37,12.73,12.73,0,0,0,3.82-.58,12.6,12.6,0,0,0,3.17-1.41l1.46-7h-7.29l-.57,2.72h4.16l-.5,2.42a9.25,9.25,0,0,1-2,.73,8.24,8.24,0,0,1-2.21.31,3.61,3.61,0,0,1-2.74-1,4.29,4.29,0,0,1-.93-3,9.47,9.47,0,0,1,.77-3.86A5.6,5.6,0,0,1,248.89,163.78Z"/><path class="cls-1" d="M275.29,160.88a8.84,8.84,0,0,0-2.9-.38h-7.24l-3.42,16.3h3.36l1.41-6.75h1.37a3.22,3.22,0,0,1,1.67.32A5,5,0,0,1,271,172.5q1.28,2.92,1.71,4.3h3.6a40.52,40.52,0,0,0-2.5-5.4,6.47,6.47,0,0,0-1.21-1.52,6,6,0,0,0,3.77-1.68,4.85,4.85,0,0,0,1.24-3.43,4.55,4.55,0,0,0-.64-2.48A3.29,3.29,0,0,0,275.29,160.88Zm-1.53,5.39a2.81,2.81,0,0,1-1.38,1,12.41,12.41,0,0,1-3.59.33H267l.92-4.38h3.69a4.37,4.37,0,0,1,1.92.26,1.47,1.47,0,0,1,.72,1.34A2.38,2.38,0,0,1,273.76,166.27Z"/><path class="cls-1" d="M290.56,160.22a8.63,8.63,0,0,0-4,.92,8.34,8.34,0,0,0-2.93,2.5,10.64,10.64,0,0,0-1.73,3.72,11.64,11.64,0,0,0-.44,3,7.9,7.9,0,0,0,.65,3.09,5.82,5.82,0,0,0,2.19,2.56,6.7,6.7,0,0,0,3.82,1,8.67,8.67,0,0,0,4.71-1.3,9.09,9.09,0,0,0,3.29-3.71,11,11,0,0,0,1.21-5,6.76,6.76,0,0,0-1.86-5A6.59,6.59,0,0,0,290.56,160.22Zm2.59,10.46a6.55,6.55,0,0,1-2.07,2.71,4.39,4.39,0,0,1-2.61.9,3.47,3.47,0,0,1-2.69-1.13,4.07,4.07,0,0,1-1-2.82,8.77,8.77,0,0,1,1.54-5,4.65,4.65,0,0,1,4-2.3,3.47,3.47,0,0,1,2.63,1.1,4.23,4.23,0,0,1,1,3A8.67,8.67,0,0,1,293.15,170.68Z"/><path class="cls-1" d="M311.66,169.41a15.07,15.07,0,0,1-.88,3.06,3,3,0,0,1-1.23,1.35,3.87,3.87,0,0,1-2,.46,3,3,0,0,1-2.05-.63,2,2,0,0,1-.7-1.6,3.28,3.28,0,0,1,0-.52l.46-2.18,1.84-8.85h-3.35l-1.8,8.59c-.23,1.11-.36,1.78-.39,2a7,7,0,0,0-.07,1,4.64,4.64,0,0,0,1.51,3.58,6.16,6.16,0,0,0,4.36,1.4,7.55,7.55,0,0,0,3.93-.93,6,6,0,0,0,2.33-2.43,17.66,17.66,0,0,0,1.35-4.3l1.86-8.92h-3.35Z"/><path class="cls-1" d="M331.93,160.92a7.57,7.57,0,0,0-2.8-.42h-6.62l-3.42,16.3h3.36l1.3-6.21h2.15a26.38,26.38,0,0,0,3-.11,7.79,7.79,0,0,0,2.16-.56,4.85,4.85,0,0,0,1.5-1.06,5.71,5.71,0,0,0,1.17-1.86,6.28,6.28,0,0,0,.48-2.41,4.22,4.22,0,0,0-.6-2.29A3.32,3.32,0,0,0,331.93,160.92Zm-1.64,5.56a2.89,2.89,0,0,1-1.4,1.07,12.22,12.22,0,0,1-3.55.33h-1l1-4.7h2.4a8.12,8.12,0,0,1,2.11.17,1.51,1.51,0,0,1,.73.55,1.73,1.73,0,0,1,.26,1A2.75,2.75,0,0,1,330.29,166.48Z"/><path class="cls-2" d="M322,73.38V86.63c0,.47.23.7.67.7h11.72v3.09h-17v1.8h15.75A40.42,40.42,0,0,1,317.3,98.9l.75,1.72c5.11-.9,10.59-3.28,16.33-7.19v9h1.8V93.55a46.1,46.1,0,0,0,15.2,6.91l.94-1.64a42.21,42.21,0,0,1-15-6.6H352.2v-1.8h-16V87.33h13.95v-1.8H336.18V82.45h13.4v-1.8h-13.4V77.56h13.24V75.77H336.18V72.52h13.95V70.73H337l1.52-3.25L337,66.7a31.74,31.74,0,0,1-1.92,4H324l2.06-3.6-1.6-.78A26.64,26.64,0,0,1,316.72,76l1.48,1.17A22.88,22.88,0,0,0,322,73.38Zm1.8-.62a.21.21,0,0,1,.23-.24h10.36v3.25H323.79Zm0,4.8h10.59v3.09H323.79Zm0,4.89h10.59v3.08H324c-.15,0-.23-.07-.23-.27Z"/><path class="cls-2" d="M329.69,135.91l-1.25,1.29a23.27,23.27,0,0,1,2.89,3.05l1.36-1.25A22.29,22.29,0,0,0,329.69,135.91Z"/><path class="cls-2" d="M350.91,110.28H319.37c-.31,0-.43.15-.43.47V143.5c0,.31.12.46.43.46h31.54c.35,0,.5-.15.5-.46V110.75C351.41,110.43,351.26,110.28,350.91,110.28Zm-14.78,9.34h8.06l.07.07v1.8h-8.13Zm0,3.51h8.13v1.92l-.07.12h-8.06Zm0,3.68h7.67l-.59.43L344.5,129l-8.37.23Zm13.49,15.12a.21.21,0,0,1-.24.24H320.9c-.13,0-.2-.08-.2-.24V112.27a.18.18,0,0,1,.2-.19h13.44v2.22H322.81v1.64h11.53v2h-9.85c-.16,0-.24.07-.24.23v8.32c0,.2.08.28.24.28h9.85v2.46l-10.47.27.15,1.64,17.51-.43v2.74H322.81v1.8h18.72v3.32c0,.15-.12.31-.36.47s-1.64,0-4.06-.63v1.84c2.35.9,4.06,1.13,5.08.66a1.67,1.67,0,0,0,.75-.66,2.25,2.25,0,0,0,.38-1.29v-3.71h4.89v-1.8h-4.89v-2.77h2.19l.79,1.21,1.52-1a27.07,27.07,0,0,0-2.66-4.14h.63c.19,0,.27-.08.27-.28v-8.32c0-.16-.08-.23-.27-.23h-9.66v-2h11V114.3h-11v-2.22h13.25c.16,0,.24.07.24.19Zm-23.56-20.44v-1.8l.07-.07h8.21v1.87Zm8.28,1.64v2h-8.21l-.07-.12v-1.92Z"/><path class="cls-2" d="M306.83,9.34a4.18,4.18,0,0,0-2.05,7.84l-.63,1.13c-14.9,31.88-20,20.56-22.95,16.69-.89-2-7.48-15.91-10.72-22.75a4.19,4.19,0,1,0-3.53,0c-1.44,3.2-4.1,9.06-9,19.87C248.61,55.53,234.42,22,233,18.6a4.17,4.17,0,1,0-1.91.48h.08c.67,8.62,5.11,22,6.59,26.19,4.55-1.08,13.7-1.88,24.72-2.11a6.73,6.73,0,1,1,12.33,0c12,.22,21.79,1.12,26.08,2.32a125.73,125.73,0,0,0,5.72-27.74l.18,0a4.2,4.2,0,0,0,0-8.4Z"/><path class="cls-2" d="M244.4,32.25A5.66,5.66,0,1,0,254,28.2l-2.38-5.59a4,4,0,1,0-3.13,0l-2.37,5.59A5.63,5.63,0,0,0,244.4,32.25Z"/><path class="cls-2" d="M282.23,32.25a5.66,5.66,0,1,0,9.6-4.05l-2.37-5.59a4,4,0,1,0-3.14,0L284,28.2A5.63,5.63,0,0,0,282.23,32.25Z"/><path class="cls-2" d="M246.59,47.65a2.19,2.19,0,1,0-2.19,2.19A2.19,2.19,0,0,0,246.59,47.65Z"/><path class="cls-2" d="M257.9,46.77A2.19,2.19,0,1,0,255.71,49,2.19,2.19,0,0,0,257.9,46.77Z"/><path class="cls-2" d="M285.19,46.77A2.19,2.19,0,1,0,283,49,2.18,2.18,0,0,0,285.19,46.77Z"/><path class="cls-2" d="M296.76,47.65a2.19,2.19,0,1,0-2.19,2.19A2.19,2.19,0,0,0,296.76,47.65Z"/><polygon class="cls-2" points="63.7 47.04 231.13 42.45 65.57 42.45 63.31 42.45 54.03 42.45 48.32 56.56 59.82 56.56 63.7 47.04"/><polygon class="cls-2" points="54.59 68.27 59.48 65.64 55.82 65.64 53.38 65.64 44.32 65.64 35.84 86.38 46.06 86.38 54.59 68.27"/><polygon class="cls-2" points="41.42 97.97 46.92 95.03 42.56 95.03 40.81 95.03 32.02 95.03 5.89 154.01 22.06 142.78 41.42 97.97"/><path class="cls-2" d="M83,136.72l2.41-4.45H52.23l8.89-31h42.11l-17.79,40,7.85,13.59,7.61-18.18v2H156v-3.08H139.66l4.45-9.56h19.13V123h-17.7l4.67-10h4l1.76-2.89h-4.45l3.91-8.4h10.28l-6.4,12.89,5.71,8.85,17.59-37.63H162.87l4.3-9.23h20.2V73.52H168.6l4.55-9.76h18.66v-2.6H146.08v2.6H159l-4.55,9.76h-23v3.07h21.61l-4.3,9.23H132.54l-9.62,20.71,7.61,6.47h5.56l-4.67,10h-21.5v3.07H130l-4.46,9.56h-24.2L117.48,97.1H89.76l6.08-14.61h27.75V79.06H97.27l4.39-10.52h27.77v-2.9H63v2.9H87.54L83.15,79.06H55.82v3.43h25.9L75.64,97.1H48.57l-8.63,29.68,10.46,9.94Zm89.25-48.17-5,10.09H156.9l4.7-10.09Zm-24.8,0-4.7,10.09h-5.7l4.59-10.09Zm-15.62,21.56,3.82-8.4h5.67l-3.91,8.4Z"/><path class="cls-2" d="M290.18,67.33c3.06-.38,4.88-.85,4.88-1.36h0L301,52.8h0c0-1.41-13.3-2.56-30-2.63l-1.09-4.85a5.21,5.21,0,1,0-2.36,0l-1.09,4.86c-16.09.12-28.7,1.25-28.7,2.62a.38.38,0,0,0,.19.28L243.72,66h0c0,.51,1.82,1,4.88,1.36H228.45v3.41h34.41L251.73,104.2H223.22v3.4H250.6L240,139.5H202.83v3.41H305.37l-3.14-3.41H254.12l10.6-31.9h39.56l-3.14-3.4H265.85L277,70.74h32.53l-3.14-3.41Z"/><polygon class="cls-2" points="232.33 56.02 215.43 56.02 215.42 56.03 205.8 56.03 197.89 73.52 189.69 73.52 189.69 76.59 195.97 76.59 164.22 138.75 157.16 144.36 172.84 144.36 207.52 76.59 214.22 76.59 185.75 138.14 178.69 143.76 197.52 143.76 228.43 77.15 235.27 73.49 229.17 73.49 229.15 73.52 228.23 73.52 216.04 73.52 208.41 73.52 214.56 60.27 232.33 56.02"/></g></svg>