<svg xmlns="http://www.w3.org/2000/svg" width="300" height="200" viewBox="0 0 300 200"><rect width="100%" height="100%" fill="#DDDDDD"/><path fill="#999999" d="M76.78 120.005h10.61q2.92 0 4.91-.7t3.18-1.87 1.71-2.73q.53-1.56.53-3.32 0-1.83-.58-3.29-.59-1.47-1.84-2.5t-3.21-1.58q-1.97-.55-4.74-.55H76.78zm8.93-40.09h-8.93v16.3h8.34q5.39 0 8.14-1.95 2.74-1.95 2.74-6.2 0-4.41-2.49-6.28-2.5-1.87-7.8-1.87m-19.42-8.11h19.42q5.54 0 9.48 1.05 3.93 1.05 6.45 3t3.69 4.72 1.17 6.24q0 1.99-.59 3.8-.58 1.82-1.81 3.4t-3.12 2.86q-1.89 1.29-4.51 2.19 11.63 2.61 11.63 12.56 0 3.58-1.37 6.62-1.37 3.05-3.98 5.25t-6.43 3.45-8.74 1.25H66.29zm63.22 35.1h17.94l-6.87-18.76q-.51-1.25-1.05-2.97-.55-1.71-1.09-3.7-.51 1.99-1.06 3.72-.54 1.74-1.05 3.02zm14.31-35.1 22.15 56.39h-8.11q-1.37 0-2.22-.68-.86-.68-1.29-1.7l-4.21-11.5h-23.36l-4.22 11.5q-.31.9-1.2 1.64-.9.74-2.23.74h-8.19l22.19-56.39zm38.49 48.2h10.61q2.93 0 4.91-.7 1.99-.7 3.18-1.87t1.72-2.73q.52-1.56.52-3.32 0-1.83-.58-3.29-.59-1.47-1.83-2.5-1.25-1.03-3.22-1.58t-4.74-.55h-10.57zm8.93-40.09h-8.93v16.3h8.35q5.38 0 8.13-1.95t2.75-6.2q0-4.41-2.5-6.28-2.49-1.87-7.8-1.87m-19.42-8.11h19.42q5.54 0 9.48 1.05t6.45 3q2.52 1.95 3.69 4.72t1.17 6.24q0 1.99-.59 3.8-.58 1.82-1.81 3.4t-3.12 2.86q-1.89 1.29-4.5 2.19 11.62 2.61 11.62 12.56 0 3.58-1.37 6.62-1.36 3.05-3.97 5.25-2.62 2.2-6.44 3.45t-8.74 1.25h-21.29zm61.89 0v56.39h-10.53v-56.39z"/></svg>