<svg xmlns="http://www.w3.org/2000/svg" width="300" height="200" viewBox="0 0 300 200"><rect width="100%" height="100%" fill="#DDDDDD"/><path fill="#999999" d="M78.69 99.955h10.8v13.16q-2.48 1.82-5.28 2.67-2.8.84-5.99.84-3.99 0-7.22-1.24-3.22-1.23-5.51-3.44-2.28-2.2-3.52-5.26t-1.24-6.69q0-3.66 1.2-6.72 1.19-3.06 3.38-5.27 2.2-2.2 5.32-3.42 3.13-1.21 7.02-1.21 1.98 0 3.71.31 1.72.31 3.19.87 1.47.55 2.69 1.33 1.21.79 2.23 1.74l-1.74 2.74q-.4.66-1.05.8-.66.15-1.42-.33-.74-.42-1.49-.85-.74-.43-1.65-.74-.91-.32-2.05-.52-1.13-.2-2.62-.2-2.41 0-4.35.81-1.95.81-3.32 2.32-1.37 1.5-2.12 3.62-.74 2.11-.74 4.72 0 2.79.8 4.99.8 2.19 2.25 3.71t3.5 2.32q2.05.79 4.57.79 1.8 0 3.21-.38 1.42-.38 2.77-1.03v-5.9h-4.09q-.59 0-.91-.32-.33-.33-.33-.8zm38.99 8.64q.5 0 .88.38l2.38 2.59q-1.98 2.45-4.87 3.76-2.89 1.3-6.94 1.3-3.62 0-6.51-1.24-2.89-1.23-4.94-3.44-2.05-2.2-3.14-5.26t-1.09-6.69q0-3.66 1.17-6.71t3.3-5.26q2.12-2.2 5.07-3.43 2.95-1.22 6.52-1.22 3.56 0 6.32 1.17 2.75 1.17 4.69 3.06l-2.03 2.81q-.18.27-.46.47t-.78.2q-.33 0-.69-.19t-.79-.47-.99-.62-1.31-.62q-.74-.28-1.72-.47t-2.26-.19q-2.18 0-3.99.77-1.81.78-3.12 2.25-1.3 1.48-2.02 3.6-.72 2.13-.72 4.85 0 2.75.77 4.89.78 2.13 2.11 3.59 1.32 1.47 3.12 2.24 1.8.78 3.87.78 1.24 0 2.24-.14 1-.13 1.85-.42.84-.3 1.6-.76.75-.46 1.49-1.13.23-.2.47-.33.25-.12.52-.12m38.45-8.6q0 3.58-1.18 6.63t-3.34 5.27q-2.16 2.23-5.2 3.48-3.03 1.25-6.75 1.25-3.69 0-6.72-1.25-3.04-1.25-5.21-3.48-2.17-2.22-3.37-5.27-1.19-3.05-1.19-6.63 0-3.57 1.19-6.62 1.2-3.05 3.37-5.28t5.21-3.48q3.03-1.24 6.72-1.24 2.48 0 4.66.57t4.01 1.62q1.82 1.05 3.27 2.54 1.45 1.5 2.46 3.34 1.02 1.85 1.54 4.01.53 2.16.53 4.54m-6.18 0q0-2.68-.72-4.8-.72-2.13-2.05-3.61-1.33-1.49-3.23-2.27-1.9-.79-4.29-.79-2.38 0-4.28.79-1.9.78-3.24 2.27-1.34 1.48-2.06 3.61-.72 2.12-.72 4.8t.72 4.81q.72 2.12 2.06 3.6 1.34 1.47 3.24 2.26t4.28.79q2.39 0 4.29-.79t3.23-2.26q1.33-1.48 2.05-3.6.72-2.13.72-4.81m42.23-16.26h4.57v32.53h-5.34v-21.02q0-1.25.14-2.72l-9.83 18.48q-.7 1.32-2.14 1.32h-.86q-1.44 0-2.13-1.32l-9.95-18.54q.07.74.11 1.46.05.72.05 1.32v21.02h-5.33v-32.53h4.56q.41 0 .7.02t.53.11.43.29q.19.21.37.54l9.74 18.07q.38.72.71 1.49.33.76.64 1.57.32-.83.65-1.61.34-.77.72-1.49l9.61-18.03q.18-.33.38-.54.21-.2.44-.29.24-.09.53-.11t.7-.02m42.52 0h4.57v32.53h-5.33v-21.02q0-1.25.13-2.72l-9.83 18.48q-.7 1.32-2.14 1.32h-.85q-1.44 0-2.14-1.32l-9.94-18.54q.06.74.11 1.46.04.72.04 1.32v21.02h-5.33v-32.53h4.57q.4 0 .7.02.29.02.52.11.24.09.43.29.19.21.37.54l9.75 18.07q.38.72.7 1.49.33.76.65 1.57.31-.83.65-1.61.34-.77.72-1.49l9.61-18.03q.18-.33.38-.54.2-.2.44-.29.23-.09.53-.11.29-.02.69-.02"/></svg>