<svg xmlns="http://www.w3.org/2000/svg" width="300" height="200" viewBox="0 0 300 200"><rect width="100%" height="100%" fill="#DDDDDD"/><path fill="#999999" d="M68.725 80.47v14.82q1.56-1.45 3.43-2.36t4.4-.91q2.18 0 3.87.74t2.82 2.08 1.72 3.2q.58 1.86.58 4.09v16.98h-6.42v-16.98q0-2.44-1.12-3.78t-3.41-1.34q-1.66 0-3.12.75-1.45.76-2.75 2.06v19.29h-6.42V80.47zm40.64 14.85-1.46 2.31q-.26.42-.54.59-.29.17-.73.17-.47 0-1-.26-.54-.26-1.24-.59-.7-.32-1.6-.58-.89-.26-2.12-.26-1.89 0-2.97.8-1.08.81-1.08 2.11 0 .86.56 1.44.55.59 1.48 1.03.92.44 2.09.79t2.38.77 2.38.95 2.09 1.35q.93.82 1.48 1.96.56 1.15.56 2.76 0 1.92-.69 3.55-.69 1.62-2.04 2.81-1.35 1.18-3.34 1.84-1.99.67-4.59.67-1.37 0-2.69-.25-1.31-.25-2.52-.69t-2.24-1.04q-1.02-.6-1.8-1.3l1.48-2.44q.29-.45.68-.68t.98-.23q.6 0 1.13.33.54.34 1.24.73t1.65.73 2.41.34q1.14 0 1.96-.28.82-.27 1.35-.71t.78-1.03q.25-.58.25-1.21 0-.93-.56-1.53t-1.48-1.04q-.93-.44-2.11-.79t-2.42-.77q-1.23-.42-2.42-.98-1.18-.55-2.1-1.41-.93-.86-1.48-2.11-.56-1.25-.56-3.01 0-1.64.65-3.12.65-1.49 1.91-2.59 1.26-1.11 3.14-1.77 1.89-.66 4.36-.66 2.76 0 5.02.91t3.77 2.39m5.33-2.89h6.45v26.68h-6.45zm7.33-7.77q0 .83-.34 1.56t-.9 1.27q-.55.55-1.31.87-.75.33-1.61.33-.83 0-1.57-.33-.74-.32-1.29-.87-.55-.54-.87-1.27-.33-.73-.33-1.56 0-.86.33-1.61.32-.76.87-1.3.55-.55 1.29-.87.74-.33 1.57-.33.86 0 1.61.33.76.32 1.31.87.56.54.9 1.3.34.75.34 1.61m11.23 8.94.44 2.11q.81-.81 1.71-1.5.89-.68 1.89-1.17 1.01-.48 2.15-.75t2.5-.27q2.18 0 3.87.74t2.82 2.08 1.72 3.2q.58 1.86.58 4.09v16.98h-6.42v-16.98q0-2.44-1.12-3.78t-3.4-1.34q-1.67 0-3.12.75-1.46.76-2.76 2.06v19.29h-6.42V92.43h3.92q1.25 0 1.64 1.17m30.19-13.13v14.82q1.56-1.45 3.43-2.36t4.39-.91q2.19 0 3.88.74t2.82 2.08 1.71 3.2q.59 1.86.59 4.09v16.98h-6.42v-16.98q0-2.44-1.12-3.78t-3.41-1.34q-1.66 0-3.12.75-1.45.76-2.75 2.06v19.29h-6.42V80.47zm37 31.75v-4.5q-2.79.13-4.68.48-1.9.35-3.05.9-1.14.55-1.63 1.27-.5.73-.5 1.59 0 1.69 1 2.42t2.62.73q1.97 0 3.41-.72 1.45-.71 2.83-2.17m-13.58-14.01-1.14-2.06q4.6-4.21 11.08-4.21 2.34 0 4.18.77 1.85.76 3.12 2.13 1.28 1.36 1.94 3.26t.66 4.16v16.85h-2.91q-.91 0-1.4-.27-.5-.28-.78-1.11l-.58-1.92q-1.01.91-1.97 1.6t-2 1.15q-1.04.47-2.23.72-1.18.25-2.61.25-1.69 0-3.12-.46-1.43-.45-2.47-1.36t-1.61-2.27q-.57-1.35-.57-3.14 0-1.02.33-2.02.34-1 1.11-1.91t1.99-1.71q1.22-.81 3-1.41t4.15-.97q2.36-.38 5.41-.46v-1.56q0-2.68-1.15-3.96-1.14-1.29-3.3-1.29-1.56 0-2.59.36-1.02.37-1.8.82-.78.46-1.42.82-.64.37-1.42.37-.67 0-1.14-.36-.47-.35-.76-.81m37.68-6.19q2.96 0 5.39.96t4.16 2.73 2.67 4.32q.93 2.54.93 5.69 0 3.17-.93 5.72-.94 2.55-2.67 4.34-1.73 1.8-4.16 2.76t-5.39.96q-2.99 0-5.44-.96-2.44-.96-4.17-2.76-1.73-1.79-2.68-4.34t-.95-5.72q0-3.15.95-5.69.95-2.55 2.68-4.32t4.17-2.73q2.45-.96 5.44-.96m0 22.54q3.33 0 4.92-2.24 1.6-2.23 1.6-6.55 0-4.31-1.6-6.58-1.59-2.26-4.92-2.26-3.38 0-5.01 2.28-1.62 2.27-1.62 6.56t1.62 6.54q1.63 2.25 5.01 2.25"/></svg>