<svg xmlns="http://www.w3.org/2000/svg" width="400" height="200" viewBox="0 0 400 200"><rect width="100%" height="100%" fill="#DDDDDD"/><path fill="#999999" d="M106.125 125.65h13.6q3.75 0 6.3-.9t4.07-2.4q1.53-1.5 2.2-3.5.68-2 .68-4.25 0-2.35-.75-4.23-.75-1.87-2.35-3.2-1.6-1.32-4.13-2.02-2.52-.7-6.07-.7h-13.55zm11.45-51.4h-11.45v20.9h10.7q6.9 0 10.42-2.5 3.53-2.5 3.53-7.95 0-5.65-3.2-8.05t-10-2.4m-24.9-10.4h24.9q7.1 0 12.15 1.35t8.27 3.85q3.23 2.5 4.73 6.05t1.5 8q0 2.55-.75 4.87-.75 2.33-2.33 4.35-1.57 2.03-4 3.68-2.42 1.65-5.77 2.8 14.9 3.35 14.9 16.1 0 4.6-1.75 8.5t-5.1 6.72q-3.35 2.83-8.25 4.43t-11.2 1.6h-27.3zm81.05 45h23l-8.8-24.05q-.65-1.6-1.35-3.8t-1.4-4.75q-.65 2.55-1.35 4.77-.7 2.23-1.35 3.88zm18.35-45 28.4 72.3h-10.4q-1.75 0-2.85-.88-1.1-.87-1.65-2.17l-5.4-14.75h-29.95l-5.4 14.75q-.4 1.15-1.55 2.1t-2.85.95h-10.5l28.45-72.3zm49.35 61.8h13.6q3.75 0 6.3-.9t4.08-2.4q1.52-1.5 2.19-3.5.68-2 .68-4.25 0-2.35-.75-4.23-.75-1.87-2.35-3.2-1.6-1.32-4.13-2.02-2.52-.7-6.07-.7h-13.55zm11.45-51.4h-11.45v20.9h10.7q6.9 0 10.42-2.5 3.53-2.5 3.53-7.95 0-5.65-3.2-8.05t-10-2.4m-24.9-10.4h24.9q7.1 0 12.15 1.35t8.27 3.85q3.23 2.5 4.73 6.05t1.5 8q0 2.55-.75 4.87-.75 2.33-2.33 4.35-1.57 2.03-4 3.68-2.42 1.65-5.77 2.8 14.9 3.35 14.9 16.1 0 4.6-1.75 8.5t-5.1 6.72q-3.35 2.83-8.25 4.43t-11.2 1.6h-27.3zm79.35 0v72.3h-13.5v-72.3z"/></svg>