<svg xmlns="http://www.w3.org/2000/svg" width="300" height="200" viewBox="0 0 300 200"><rect width="100%" height="100%" fill="#DDDDDD"/><path fill="#999999" d="M65.98 98.53h12.35q0-1.27-.36-2.4-.35-1.13-1.07-1.97-.71-.85-1.81-1.34t-2.56-.49q-2.84 0-4.47 1.61-1.63 1.62-2.08 4.59m16.7 3.95H65.85q.16 2.09.74 3.61.59 1.53 1.54 2.52.95 1 2.27 1.49 1.31.49 2.9.49t2.74-.38q1.15-.37 2.01-.82t1.51-.82 1.26-.37q.82 0 1.22.61l1.88 2.39q-1.08 1.27-2.43 2.13-1.36.86-2.83 1.38-1.47.51-2.99.73-1.53.21-2.96.21-2.83 0-5.27-.94t-4.24-2.79q-1.8-1.84-2.84-4.55-1.03-2.72-1.03-6.3 0-2.78.9-5.23t2.59-4.27q1.68-1.81 4.1-2.87 2.43-1.06 5.48-1.06 2.57 0 4.74.82t3.74 2.4q1.56 1.57 2.45 3.87.88 2.29.88 5.23 0 1.48-.31 2-.32.52-1.22.52m15.5 13.19q-3.55 0-5.45-2-1.89-2-1.89-5.52V92.96h-2.78q-.53 0-.9-.34-.37-.35-.37-1.03v-2.6l4.37-.72 1.38-7.42q.13-.53.5-.82t.95-.29h3.4v8.56h7.26v4.66h-7.26v14.74q0 1.27.62 1.99.62.71 1.71.71.61 0 1.02-.15.41-.14.71-.3.31-.16.55-.3.23-.15.47-.15.29 0 .48.15.19.14.4.43l1.96 3.18q-1.43 1.2-3.29 1.8-1.85.61-3.84.61m19.72 0q-3.55 0-5.45-2-1.89-2-1.89-5.52V92.96h-2.79q-.53 0-.9-.34-.37-.35-.37-1.03v-2.6l4.37-.72 1.38-7.42q.13-.53.51-.82.37-.29.95-.29h3.39v8.56h7.26v4.66h-7.26v14.74q0 1.27.62 1.99.63.71 1.71.71.61 0 1.02-.15.41-.14.72-.3.3-.16.54-.3.24-.15.48-.15.29 0 .48.15.18.14.39.43l1.96 3.18q-1.43 1.2-3.28 1.8-1.86.61-3.84.61m22.68-28.03q3.02 0 5.5.98t4.24 2.78 2.72 4.4q.95 2.6.95 5.8 0 3.24-.95 5.83-.96 2.6-2.72 4.43t-4.24 2.81-5.5.98q-3.05 0-5.54-.98t-4.25-2.81-2.73-4.43q-.97-2.59-.97-5.83 0-3.2.97-5.8t2.73-4.4 4.25-2.78 5.54-.98m0 22.97q3.39 0 5.02-2.28t1.63-6.67q0-4.4-1.63-6.71-1.63-2.3-5.02-2.3-3.44 0-5.1 2.31-1.66 2.32-1.66 6.7 0 4.37 1.66 6.66t5.1 2.29m35.48-3.42V95q-1.11-1.35-2.42-1.9-1.31-.56-2.82-.56-1.49 0-2.68.56-1.19.55-2.04 1.68t-1.3 2.86q-.45 1.74-.45 4.1 0 2.38.39 4.04.38 1.65 1.09 2.7.72 1.05 1.75 1.51 1.04.46 2.31.46 2.04 0 3.47-.84 1.43-.85 2.7-2.42m0-31.32h6.55v39.38h-4q-1.3 0-1.65-1.19l-.55-2.63q-1.64 1.89-3.78 3.05-2.13 1.17-4.97 1.17-2.22 0-4.08-.93-1.85-.93-3.19-2.69t-2.07-4.36-.73-5.93q0-3.03.82-5.62.83-2.6 2.36-4.51 1.54-1.91 3.69-2.98 2.14-1.07 4.82-1.07 2.28 0 3.9.71 1.61.72 2.88 1.94zm27.38 32.36v-4.59q-2.84.14-4.77.49-1.94.36-3.1.92-1.17.55-1.67 1.3-.5.74-.5 1.61 0 1.73 1.02 2.47t2.66.74q2.01 0 3.48-.73t2.88-2.21m-13.83-14.29-1.17-2.09q4.69-4.29 11.29-4.29 2.38 0 4.27.78 1.88.78 3.17 2.17 1.3 1.39 1.98 3.33.68 1.93.68 4.24v17.17h-2.97q-.93 0-1.43-.28-.51-.28-.8-1.12l-.58-1.97q-1.04.93-2.02 1.63-.98.71-2.04 1.18-1.06.48-2.26.73-1.21.25-2.67.25-1.72 0-3.18-.46-1.45-.46-2.51-1.39t-1.65-2.31q-.58-1.37-.58-3.2 0-1.04.35-2.06.34-1.02 1.12-1.94.78-.93 2.03-1.75 1.24-.82 3.06-1.43t4.23-1q2.41-.38 5.51-.46v-1.59q0-2.73-1.17-4.04-1.16-1.31-3.36-1.31-1.59 0-2.64.37t-1.84.83q-.8.46-1.45.84-.64.37-1.44.37-.69 0-1.17-.36-.47-.36-.76-.84m45.81-5.88h5.25l-14.81 34.66q-.29.69-.76 1.05-.46.36-1.42.36h-4.87l5.09-10.92-11-25.15h5.75q.77 0 1.21.37.43.37.64.85l5.78 14.1q.29.71.49 1.43.2.71.39 1.46.23-.75.47-1.47.24-.73.53-1.45l5.46-14.07q.21-.53.7-.87.49-.35 1.1-.35"/></svg>