<svg xmlns="http://www.w3.org/2000/svg" width="300" height="200" viewBox="0 0 300 200"><rect width="100%" height="100%" fill="#DDDDDD"/><path fill="#999999" d="m64.715 95.79.29 1.38q.53-.53 1.12-.98.58-.45 1.24-.76.65-.32 1.4-.5.75-.17 1.63-.17 1.43 0 2.54.48 1.1.48 1.84 1.36t1.12 2.09q.38 1.22.38 2.68v11.1h-4.19v-11.1q0-1.6-.74-2.47-.73-.88-2.22-.88-1.09 0-2.04.49-.95.5-1.8 1.35v12.61h-4.2V95.03h2.56q.82 0 1.07.76m18.86 5.95h7.92q0-.81-.23-1.54-.23-.72-.69-1.26-.46-.55-1.16-.86-.71-.32-1.64-.32-1.82 0-2.87 1.04-1.04 1.04-1.33 2.94m10.71 2.54h-10.8q.1 1.34.48 2.32.37.97.98 1.61.62.64 1.46.95.84.32 1.86.32t1.76-.24 1.29-.53.97-.52q.42-.24.81-.24.52 0 .78.39l1.21 1.53q-.7.81-1.57 1.37-.86.55-1.81.88-.94.33-1.92.47t-1.89.14q-1.82 0-3.39-.61-1.56-.6-2.72-1.78-1.15-1.19-1.82-2.93-.66-1.74-.66-4.04 0-1.78.58-3.35.58-1.58 1.66-2.74t2.63-1.84q1.56-.68 3.51-.68 1.65 0 3.04.52 1.4.53 2.4 1.54t1.57 2.48.57 3.36q0 .95-.2 1.28-.2.34-.78.34m25.84-9.25h3.19l-5.54 17.44h-3.36q-.58 0-.8-.75l-3.13-10.08q-.15-.51-.28-1.01t-.21-1.01q-.11.51-.23 1.03-.13.51-.28 1.03l-3.18 10.04q-.21.75-.9.75h-3.23l-5.53-17.44h3.35q.46 0 .78.22t.43.56l2.5 9.32q.18.76.33 1.49.14.73.24 1.46.19-.73.4-1.46l.45-1.49 2.89-9.35q.11-.34.4-.57.3-.22.73-.22h1.85q.44 0 .76.22.31.23.41.57l2.81 9.35q.22.76.41 1.5.2.74.39 1.47.22-1.44.62-2.97l2.57-9.32q.12-.34.43-.56.3-.22.73-.22m17.17 1.88-.95 1.52q-.17.27-.36.38t-.48.11q-.3 0-.65-.17t-.81-.38-1.04-.38q-.59-.17-1.39-.17-1.24 0-1.95.52-.7.53-.7 1.38 0 .56.36.94.37.39.97.67.61.29 1.37.52.77.23 1.56.5.79.28 1.55.63.77.34 1.37.88.6.53.97 1.28.36.75.36 1.8 0 1.26-.45 2.33-.45 1.06-1.33 1.83t-2.18 1.21q-1.31.43-3.01.43-.9 0-1.75-.16-.86-.16-1.65-.45t-1.47-.68q-.67-.39-1.18-.85l.97-1.6q.19-.29.44-.44.26-.15.65-.15t.74.22.81.47q.46.26 1.08.48t1.57.22q.75 0 1.28-.18.54-.18.89-.47.34-.28.51-.67.16-.38.16-.79 0-.61-.37-1-.36-.39-.97-.68-.6-.29-1.37-.52-.78-.23-1.58-.5-.81-.27-1.59-.64-.77-.36-1.37-.92-.61-.57-.97-1.38-.37-.82-.37-1.97 0-1.07.43-2.04.42-.97 1.25-1.69.82-.73 2.05-1.16 1.24-.43 2.85-.43 1.8 0 3.28.59 1.48.6 2.47 1.56m9.16 15.83q-2.28 0-3.49-1.28-1.22-1.29-1.22-3.55v-9.74h-1.78q-.34 0-.58-.22t-.24-.66v-1.67l2.81-.46.88-4.76q.08-.34.32-.52.24-.19.61-.19h2.18v5.49h4.66v2.99h-4.66v9.45q0 .82.4 1.28t1.1.46q.39 0 .65-.09.26-.1.46-.2t.35-.2q.15-.09.3-.09.19 0 .31.09.12.1.26.28l1.25 2.04q-.91.77-2.1 1.16t-2.47.39m16.05-4.77v-2.95q-1.82.09-3.06.32t-1.99.58q-.75.36-1.07.84-.32.47-.32 1.03 0 1.11.65 1.59.65.47 1.71.47 1.29 0 2.23-.47.95-.46 1.85-1.41m-8.88-9.17-.74-1.34q3.01-2.76 7.24-2.76 1.53 0 2.74.51 1.2.5 2.04 1.39.83.89 1.26 2.13.44 1.24.44 2.72v11.02h-1.91q-.59 0-.92-.18-.32-.18-.51-.72l-.37-1.26q-.66.6-1.29 1.05t-1.31.75q-.68.31-1.45.47-.78.16-1.71.16-1.11 0-2.04-.3-.94-.29-1.62-.89-.68-.59-1.05-1.48-.38-.88-.38-2.05 0-.67.22-1.32.23-.66.73-1.25.5-.6 1.3-1.12.8-.53 1.96-.92 1.17-.39 2.71-.64 1.55-.25 3.54-.3v-1.02q0-1.75-.75-2.59t-2.16-.84q-1.02 0-1.69.24t-1.18.53q-.51.3-.93.54-.41.24-.92.24-.45 0-.75-.23-.31-.23-.5-.54m17.06-3.77h4.21v17.44h-4.21zm4.79-5.09q0 .55-.22 1.02-.22.48-.59.84-.36.35-.86.57-.49.21-1.05.21-.54 0-1.03-.21-.48-.22-.84-.57-.36-.36-.57-.84-.21-.47-.21-1.02 0-.56.21-1.05t.57-.85.84-.57q.49-.21 1.03-.21.56 0 1.05.21.5.21.86.57.37.36.59.85t.22 1.05m25.41 5.09h3.2l-5.54 17.44h-3.37q-.58 0-.8-.75l-3.12-10.08q-.16-.51-.28-1.01-.13-.5-.22-1.01-.1.51-.23 1.03-.12.51-.28 1.03l-3.18 10.04q-.2.75-.9.75h-3.23l-5.52-17.44h3.35q.46 0 .78.22t.42.56l2.5 9.32q.19.76.33 1.49.15.73.25 1.46.19-.73.4-1.46t.45-1.49l2.89-9.35q.1-.34.4-.57.3-.22.72-.22h1.86q.44 0 .75.22.32.23.42.57l2.8 9.35q.22.76.42 1.5t.38 1.47q.22-1.44.63-2.97l2.57-9.32q.12-.34.42-.56.31-.22.73-.22m14.79 12.94v-2.95q-1.81.09-3.06.32-1.24.23-1.98.58-.75.36-1.08.84-.32.47-.32 1.03 0 1.11.66 1.59.65.47 1.7.47 1.3 0 2.24-.47.94-.46 1.84-1.41m-8.87-9.17-.75-1.34q3.01-2.76 7.24-2.76 1.53 0 2.74.51 1.21.5 2.04 1.39t1.27 2.13q.43 1.24.43 2.72v11.02h-1.9q-.6 0-.92-.18t-.51-.72l-.37-1.26q-.67.6-1.3 1.05t-1.31.75q-.68.31-1.45.47t-1.71.16q-1.1 0-2.04-.3-.93-.29-1.61-.89-.68-.59-1.06-1.48-.37-.88-.37-2.05 0-.67.22-1.32.22-.66.72-1.25.5-.6 1.3-1.12.8-.53 1.97-.92 1.16-.39 2.71-.64t3.53-.3v-1.02q0-1.75-.74-2.59-.75-.84-2.16-.84-1.02 0-1.69.24-.68.24-1.19.53l-.92.54q-.42.24-.93.24-.44 0-.75-.23-.3-.23-.49-.54m20.55-3.01.29 1.38q.53-.53 1.12-.98.58-.45 1.24-.76.65-.32 1.4-.5.75-.17 1.63-.17 1.43 0 2.53.48 1.11.48 1.85 1.36t1.12 2.09q.38 1.22.38 2.68v11.1h-4.2v-11.1q0-1.6-.73-2.47-.73-.88-2.22-.88-1.09 0-2.04.49-.96.5-1.81 1.35v12.61h-4.19V95.03h2.56q.82 0 1.07.76"/></svg>