<svg width="154" height="64" viewBox="0 0 154 64" fill="none" xmlns="http://www.w3.org/2000/svg">
<g clip-path="url(#clip0_1996_1239)">
<path d="M153.915 29.4633C151.112 43.5583 112.297 50.6093 101.157 52.1319C80.2124 55.0064 58.493 52.6442 38.8223 44.8176C31.4449 41.8791 23.2993 36.6282 23.3277 28.6878C23.349 22.0281 29.2467 16.9906 34.9664 13.5967C48.0351 5.84132 63.0816 1.46555 78.2703 0.988846C72.8422 1.15961 67.3074 -0.0855331 61.7939 0.106571C55.8323 0.320026 49.8848 1.09557 44.0654 2.42609C36.5244 4.14082 29.332 7.04376 22.4242 10.4803C16.057 13.6465 8.57295 16.6989 4.50366 22.8677C1.15289 27.9549 0.0786591 28.5811 0.0786591 35.4329C0.0786591 46.3901 10.2163 60.0937 19.7279 53.2134C50.5749 30.9219 101.896 68.2333 135.959 49.2005C151.681 40.4134 153.879 29.627 153.915 29.4633Z" fill="url(#paint0_linear_1996_1239)" stroke="#4C67AB" stroke-width="0.25" stroke-miterlimit="10"/>
<path d="M3.11642 6.75199C4.29737 8.53076 6.6237 9.09285 8.47338 8.11808L10.2306 10.7649C9.5903 11.5475 9.20613 12.4938 9.09231 13.4757L7.47028 13.5896V13.6323C7.39203 13.3121 7.26397 12.9919 7.07189 12.7002C6.14705 11.3127 4.27603 10.9356 2.88877 11.8535C1.50151 12.7713 1.12446 14.6497 2.04218 16.0371C2.95991 17.4246 4.83805 17.8017 6.22531 16.8838C6.87981 16.4498 7.29954 15.8023 7.47028 15.098V15.1264L9.17767 15.2403C9.31284 15.8593 9.56185 16.4641 9.93178 17.019C11.5467 19.4453 14.8192 20.107 17.2522 18.4918C19.6782 16.8767 20.3398 13.6038 18.7249 11.1704C17.238 8.93632 14.3497 8.20346 12.002 9.3561L10.1167 6.52431C10.8708 5.21514 10.8708 3.53598 9.98158 2.19123C8.72237 0.291512 6.16128 -0.22077 4.26891 1.0386C2.37655 2.29796 1.85722 4.85939 3.11642 6.75199Z" fill="url(#paint1_linear_1996_1239)"/>
<path d="M135.831 56.0456L138.192 52.239C138.911 52.2959 139.651 52.1109 140.27 51.6413C141.614 50.6239 141.878 48.7028 140.86 47.3581C139.843 46.0133 137.922 45.7501 136.578 46.7675C135.411 47.6498 135.062 49.2009 135.653 50.4816L133.277 54.2881C131.818 53.8612 130.189 54.1031 128.88 55.0921C126.696 56.75 126.269 59.8592 127.927 62.0436C129.584 64.2279 132.693 64.6548 134.877 62.997C137.061 61.3392 137.488 58.2299 135.831 56.0456Z" fill="url(#paint2_linear_1996_1239)"/>
</g>
<defs>
<linearGradient id="paint0_linear_1996_1239" x1="153.915" y1="27.5778" x2="0.0857742" y2="27.5778" gradientUnits="userSpaceOnUse">
<stop stop-color="#EBD6DD"/>
<stop offset="1" stop-color="#F4F5F5"/>
</linearGradient>
<linearGradient id="paint1_linear_1996_1239" x1="19.9187" y1="10.6598" x2="1.97161" y2="9.14012" gradientUnits="userSpaceOnUse">
<stop stop-color="#EBD6DD"/>
<stop offset="1" stop-color="#F4F5F5"/>
</linearGradient>
<linearGradient id="paint2_linear_1996_1239" x1="127.014" y1="54.8991" x2="141.357" y2="55.2085" gradientUnits="userSpaceOnUse">
<stop stop-color="#EBD6DD"/>
<stop offset="1" stop-color="#F4F5F5"/>
</linearGradient>
<clipPath id="clip0_1996_1239">
<rect width="154" height="64" fill="white" transform="matrix(-1 0 0 -1 154 64)"/>
</clipPath>
</defs>
</svg>
