<svg width="798" height="286" viewBox="0 0 798 286" fill="none" xmlns="http://www.w3.org/2000/svg">
<path d="M0.442383 133.158C14.9669 60.0407 216.098 23.4635 273.828 15.5649C382.356 0.653487 494.902 12.9074 596.832 53.5077C635.06 68.7513 677.27 95.9905 677.122 137.181C677.012 171.729 646.451 197.86 616.812 215.466C549.093 255.697 471.125 278.397 392.42 280.87C420.547 279.984 449.228 286.443 477.797 285.446C508.69 284.339 539.508 280.316 569.663 273.414C608.739 264.519 646.009 249.46 681.804 231.632C714.797 215.208 753.579 199.374 774.665 167.373C792.028 140.983 797.595 137.735 797.595 102.191C797.595 45.3508 745.063 -25.7367 695.776 9.95465C535.932 125.592 269.994 -67.9611 93.4877 30.7715C12.0177 76.3547 0.626704 132.309 0.442383 133.158Z" fill="url(#paint0_linear_957_976)" stroke="#4C67AB" stroke-width="0.25" stroke-miterlimit="10"/>
<defs>
<linearGradient id="paint0_linear_957_976" x1="0.442383" y1="142.939" x2="797.558" y2="142.939" gradientUnits="userSpaceOnUse">
<stop stop-color="#EBD6DD"/>
<stop offset="1" stop-color="#F4F5F5"/>
</linearGradient>
</defs>
</svg>
