<svg width="1440" height="950" viewBox="0 0 1440 950" fill="none" xmlns="http://www.w3.org/2000/svg">
<g clip-path="url(#clip0_679_636)" filter="url(#filter0_n_679_636)">
<rect width="1440" height="950" fill="#EDDEE1"/>
<g filter="url(#filter1_f_679_636)">
<path d="M719.023 989.494C1083.21 1004.14 1344.16 918.077 1429.11 873.213C1514.04 845.239 1666.31 778.99 1596 737.789C1525.7 696.588 1438.25 689.132 1403.31 690.554C1334.01 695.016 1166.04 690.616 1048.55 637.313C901.692 570.685 661.206 580.176 470.342 604.417C279.478 628.657 -12.6 733.828 -121.59 818.238C-208.782 885.765 -142.948 952.37 -99.1319 977.231C-69.4765 996.954 34.5812 1032.73 213.568 1018.05C437.302 999.71 263.787 971.184 719.023 989.494Z" fill="white" fill-opacity="0.8"/>
</g>
</g>
<defs>
<filter id="filter0_n_679_636" x="0" y="0" width="1440" height="950" filterUnits="userSpaceOnUse" color-interpolation-filters="sRGB">
<feFlood flood-opacity="0" result="BackgroundImageFix"/>
<feBlend mode="normal" in="SourceGraphic" in2="BackgroundImageFix" result="shape"/>
<feTurbulence type="fractalNoise" baseFrequency="2 2" stitchTiles="stitch" numOctaves="3" result="noise" seed="7647" />
<feColorMatrix in="noise" type="luminanceToAlpha" result="alphaNoise" />
<feComponentTransfer in="alphaNoise" result="coloredNoise1">
<feFuncA type="discrete" tableValues="0 0 0 0 0 0 0 0 0 0 0 0 0 0 0 0 0 0 0 0 0 0 1 1 1 1 1 1 0 0 0 0 0 0 0 0 0 0 0 0 0 0 0 0 0 0 0 0 0 0 0 0 0 0 0 0 0 0 0 0 0 0 0 0 0 0 0 0 0 0 0 0 0 0 0 0 0 0 0 0 0 0 0 0 0 0 0 0 0 0 0 0 0 0 0 0 0 0 0 0 "/>
</feComponentTransfer>
<feComposite operator="in" in2="shape" in="coloredNoise1" result="noise1Clipped" />
<feFlood flood-color="rgba(0, 0, 0, 0.25)" result="color1Flood" />
<feComposite operator="in" in2="noise1Clipped" in="color1Flood" result="color1" />
<feMerge result="effect1_noise_679_636">
<feMergeNode in="shape" />
<feMergeNode in="color1" />
</feMerge>
</filter>
<filter id="filter1_f_679_636" x="-324.429" y="426.207" width="2098.45" height="755.291" filterUnits="userSpaceOnUse" color-interpolation-filters="sRGB">
<feFlood flood-opacity="0" result="BackgroundImageFix"/>
<feBlend mode="normal" in="SourceGraphic" in2="BackgroundImageFix" result="shape"/>
<feGaussianBlur stdDeviation="80" result="effect1_foregroundBlur_679_636"/>
</filter>
<clipPath id="clip0_679_636">
<rect width="1440" height="950" fill="white"/>
</clipPath>
</defs>
</svg>
