<svg width="291" height="203" viewBox="0 0 291 203" fill="none" xmlns="http://www.w3.org/2000/svg">
<g filter="url(#filter0_d_1996_1719)">
<g clip-path="url(#clip0_1996_1719)">
<g filter="url(#filter1_f_1996_1719)">
<path d="M889.677 686.33C1292.5 746.19 1553.87 585.752 1634.2 498.051C1719.27 445.91 1867.26 318.54 1778.66 226.181C1690.05 133.822 1592.21 111.154 1554.37 111.364C1479.76 115.239 1294.64 92.59 1150.97 -29.0115C971.379 -181.013 710.791 -180.188 508.691 -144.351C306.591 -108.515 16.5437 89.6762 -78.9344 258.735C-155.317 393.983 -64.4365 539.48 -9.44842 595.323C28.5861 639.215 152.605 722.841 344.404 706.199C584.152 685.397 386.144 611.504 889.677 686.33Z" fill="#4B659B" fill-opacity="0.6"/>
</g>
<g filter="url(#filter2_f_1996_1719)">
<path d="M236.895 369.131C499.095 379.677 686.966 317.714 748.127 285.414C809.269 265.274 918.899 217.578 868.281 187.915C817.663 158.253 754.704 152.884 729.551 153.908C679.659 157.121 558.727 153.953 474.141 115.577C368.409 67.6079 195.27 74.4412 57.8562 91.8932C-79.5573 109.345 -289.84 185.064 -368.308 245.835C-431.083 294.451 -383.685 342.404 -352.139 360.303C-330.789 374.502 -255.872 400.259 -127.009 389.694C34.0688 376.487 -90.854 355.949 236.895 369.131Z" fill="white" fill-opacity="0.6"/>
</g>
</g>
<rect x="4.5" y="0.5" width="282" height="194" rx="29.5" stroke="#2D3E63" stroke-dasharray="10 10" shape-rendering="crispEdges"/>
</g>
<defs>
<filter id="filter0_d_1996_1719" x="0" y="0" width="291" height="203" filterUnits="userSpaceOnUse" color-interpolation-filters="sRGB">
<feFlood flood-opacity="0" result="BackgroundImageFix"/>
<feColorMatrix in="SourceAlpha" type="matrix" values="0 0 0 0 0 0 0 0 0 0 0 0 0 0 0 0 0 0 127 0" result="hardAlpha"/>
<feOffset dy="4"/>
<feGaussianBlur stdDeviation="2"/>
<feComposite in2="hardAlpha" operator="out"/>
<feColorMatrix type="matrix" values="0 0 0 0 0 0 0 0 0 0 0 0 0 0 0 0 0 0 0.25 0"/>
<feBlend mode="normal" in2="BackgroundImageFix" result="effect1_dropShadow_1996_1719"/>
<feBlend mode="normal" in="SourceGraphic" in2="effect1_dropShadow_1996_1719" result="shape"/>
</filter>
<filter id="filter1_f_1996_1719" x="-268.228" y="-324.157" width="2234.2" height="1192.52" filterUnits="userSpaceOnUse" color-interpolation-filters="sRGB">
<feFlood flood-opacity="0" result="BackgroundImageFix"/>
<feBlend mode="normal" in="SourceGraphic" in2="BackgroundImageFix" result="shape"/>
<feGaussianBlur stdDeviation="80" result="effect1_foregroundBlur_1996_1719"/>
</filter>
<filter id="filter2_f_1996_1719" x="-559.15" y="-81.2178" width="1600.41" height="633.39" filterUnits="userSpaceOnUse" color-interpolation-filters="sRGB">
<feFlood flood-opacity="0" result="BackgroundImageFix"/>
<feBlend mode="normal" in="SourceGraphic" in2="BackgroundImageFix" result="shape"/>
<feGaussianBlur stdDeviation="80" result="effect1_foregroundBlur_1996_1719"/>
</filter>
<clipPath id="clip0_1996_1719">
<rect x="4" width="283" height="195" rx="30" fill="white"/>
</clipPath>
</defs>
</svg>
