<svg width="77" height="93" viewBox="0 0 77 93" fill="none" xmlns="http://www.w3.org/2000/svg">
<path d="M30.1513 41.2647L17.9124 61.0113C14.1891 60.716 10.3552 61.6756 7.148 64.1116C0.180664 69.3897 -1.18331 79.3552 4.08827 86.3311C9.35986 93.307 19.3132 94.6726 26.2805 89.3946C32.3263 84.8178 34.1326 76.7716 31.0729 70.1279L43.3855 50.3813C50.9427 52.5959 59.3846 51.341 66.1676 46.2106C77.485 37.6107 79.6968 21.4813 71.1075 10.1501C62.5181 -1.18108 46.4084 -3.39564 35.0911 5.20425C23.7738 13.8041 21.5619 29.9335 30.1513 41.2647Z" fill="url(#paint0_linear_957_978)"/>
<defs>
<linearGradient id="paint0_linear_957_978" x1="75.8368" y1="47.2119" x2="1.51605" y2="45.6107" gradientUnits="userSpaceOnUse">
<stop stop-color="#EBD6DD"/>
<stop offset="1" stop-color="#F4F5F5"/>
</linearGradient>
</defs>
</svg>
