<svg width="95" height="100" viewBox="0 0 95 100" fill="none" xmlns="http://www.w3.org/2000/svg">
<path d="M85.8534 65.973C79.734 56.7456 67.6794 53.8298 58.0947 58.8864L48.9892 45.1561C52.307 41.096 54.2977 36.1871 54.8875 31.0936L63.2925 30.503V30.2816C63.698 31.9425 64.3616 33.6034 65.3569 35.1167C70.1493 42.3141 79.8446 44.2703 87.0331 39.5089C94.2216 34.7476 96.1754 25.0036 91.42 17.8062C86.6645 10.6089 76.9323 8.65269 69.7438 13.414C66.3523 15.6655 64.1773 19.0242 63.2925 22.6783V22.5306L54.4451 21.9401C53.7447 18.729 52.4544 15.5917 50.5375 12.7127C42.1693 0.126615 25.2118 -3.30596 12.6042 5.07248C0.0335117 13.4509 -3.39489 30.4292 4.97329 43.0522C12.6779 54.6418 27.6448 58.4435 39.81 52.4642L49.579 67.1541C45.6714 73.9454 45.6714 82.656 50.2795 89.6319C56.8044 99.4867 70.0755 102.144 79.8814 95.6112C89.6873 89.0783 92.3784 75.7909 85.8534 65.973Z" fill="url(#paint0_linear_957_977)"/>
<defs>
<linearGradient id="paint0_linear_957_977" x1="-1.21271" y1="45.7012" x2="91.7871" y2="53.5674" gradientUnits="userSpaceOnUse">
<stop stop-color="#EBD6DD"/>
<stop offset="1" stop-color="#F4F5F5"/>
</linearGradient>
</defs>
</svg>
