<svg width="131" height="127" viewBox="0 0 131 127" fill="none" xmlns="http://www.w3.org/2000/svg">
<g clip-path="url(#clip0_2079_1994)">
<path d="M50.9204 22.3031C61.8002 52.8254 67.0951 59.6948 72.1043 49.7926C67.0951 59.6948 75.2634 56.7832 104.79 38.1418C75.2634 56.7832 70.3681 63.9483 85.1876 66.7825C70.356 63.9526 75.6509 70.822 106.371 94.272C75.6509 70.822 67.3271 68.3688 73.0728 84.4879C67.3314 68.3809 62.4318 75.534 53.4709 113.129C62.4318 75.534 62.1877 66.8642 52.4903 78.4376C62.1877 66.8642 53.8519 64.4154 19.1916 68.6535C53.8519 64.4154 62.0202 61.5038 51.8769 57.0027C62.0202 61.5038 61.7761 52.834 50.8963 22.3117L50.9204 22.3031Z" fill="url(#paint0_linear_2079_1994)"/>
<path d="M50.9204 22.3031C61.8002 52.8254 67.0951 59.6948 72.1043 49.7926C67.0951 59.6948 75.2634 56.7832 104.79 38.1418C75.2634 56.7832 70.3681 63.9483 85.1876 66.7825C70.356 63.9526 75.6509 70.822 106.371 94.272C75.6509 70.822 67.3271 68.3688 73.0728 84.4879C67.3314 68.3809 62.4318 75.534 53.4709 113.129C62.4318 75.534 62.1877 66.8642 52.4903 78.4376C62.1877 66.8642 53.8519 64.4154 19.1916 68.6535C53.8519 64.4154 62.0202 61.5038 51.8769 57.0027C62.0202 61.5038 61.7761 52.834 50.8963 22.3117L50.9204 22.3031Z" stroke="#E9D5DB" stroke-miterlimit="10"/>
</g>
<defs>
<linearGradient id="paint0_linear_2079_1994" x1="22.64" y1="78.2511" x2="108.226" y2="47.7437" gradientUnits="userSpaceOnUse">
<stop stop-color="#D27F90"/>
<stop offset="0.44" stop-color="#E9D5DB"/>
</linearGradient>
<clipPath id="clip0_2079_1994">
<rect width="91.1428" height="86.7684" fill="white" transform="translate(8 37.6021) rotate(-19.6188)"/>
</clipPath>
</defs>
</svg>
